<?xml version="1.0" encoding="UTF-8"?>
<svg width="26px" height="22px" viewBox="0 0 26 22" version="1.1" xmlns="http://www.w3.org/2000/svg" xmlns:xlink="http://www.w3.org/1999/xlink">
    <!-- Generator: Sketch 54.1 (76490) - https://sketchapp.com -->
    <title>icon/coins</title>
    <desc>Created with Sketch.</desc>
    <g id="Tableau-de-bord" stroke="none" stroke-width="1" fill="none" fill-rule="evenodd">
        <g id="Tableau-de-bord---Graphique-interactif---1---Détail-écart-2" transform="translate(-925.000000, -181.000000)" fill="#FFFFFF">
            <g id="Visualisation-écart" transform="translate(896.000000, 159.000000)">
                <g id="Écart">
                    <g id="icon/coins" transform="translate(28.000000, 19.000000)">
                        <path d="M24.6814815,13.8065 L24.6814815,11.8925 C25.1756296,11.7265 25.5951111,11.543 25.9248889,11.342 L25.9248889,12.998 C25.9248889,13.2225 25.4877778,13.5155 24.6814815,13.8065 Z M24.6752593,19.031 C24.6306667,19.301 23.9928889,19.66 22.8604444,19.998 C21.3940741,20.4355 19.097037,20.836 16.1865926,20.961 C16.0367407,20.967 15.888963,20.9725 15.737037,20.9765 C15.6136296,20.9805 15.4876296,20.9845 15.3621481,20.9885 C15.0178519,20.994 14.6694074,21 14.3111111,21 C13.9528148,21 13.6022963,20.994 13.2600741,20.9865 C13.1340741,20.9845 13.0106667,20.9805 12.8872593,20.9765 C12.7353333,20.9705 12.5854815,20.965 12.4356296,20.959 C9.52518519,20.836 7.22814815,20.4355 5.76177778,19.998 C4.66407407,19.672 4.02992593,19.324 3.95111111,19.0565 C4.07451852,19.0975 4.20207407,19.1385 4.33377778,19.1775 C4.34777778,19.1815 4.36022222,19.1855 4.37422222,19.1895 C4.4857037,19.2225 4.60081481,19.254 4.71851852,19.285 C4.76311111,19.297 4.8077037,19.3105 4.8522963,19.3205 C4.91918519,19.338 4.98607407,19.3555 5.05451852,19.371 C6.56548148,19.744 8.49385185,20.0095 10.5762222,20.129 C10.5762222,20.129 10.5762222,20.129 10.5782963,20.129 C11.2222963,20.164 11.8787407,20.1875 12.542963,20.1955 C12.7192593,20.199 12.8955556,20.199 13.0677037,20.199 C13.2942963,20.199 13.5291852,20.197 13.7661481,20.1935 C14.3717778,20.1835 14.9691111,20.162 15.5524444,20.129 C15.5545185,20.129 15.5545185,20.129 15.5565926,20.129 C15.5586667,20.129 15.5586667,20.129 15.5607407,20.129 C16.2716296,20.086 16.9602222,20.0275 17.6228889,19.955 C17.624963,19.955 17.6265185,19.955 17.6306667,19.955 C17.638963,19.955 17.6472593,19.951 17.655037,19.951 C18.3923704,19.869 19.0913333,19.7675 19.7394815,19.6505 C19.8732593,19.627 20.0044444,19.6035 20.1340741,19.578 C20.1646667,19.572 20.1931852,19.5665 20.2211852,19.5605 C21.446963,19.3185 22.5062963,19.004 23.2353333,18.615 C23.2737037,18.593 23.3120741,18.572 23.3488889,18.551 C23.3955556,18.5255 23.4396296,18.498 23.4826667,18.4705 C23.5231111,18.4455 23.5677037,18.422 23.604,18.3965 C24.4242963,18.6775 24.6488148,18.9295 24.6752593,19.031 Z M23.4380741,22.6075 L23.4380741,20.6935 C23.9301481,20.5275 24.3491111,20.3435 24.6814815,20.1425 L24.6814815,21.797 C24.6814815,22.0235 24.2438519,22.3165 23.4380741,22.6075 Z M3.94074074,21.799 L3.94074074,20.1425 C4.27311111,20.3435 4.69207407,20.5275 5.18414815,20.6935 L5.18414815,22.6075 C4.37837037,22.3165 3.94074074,22.0235 3.94074074,21.799 Z M2.69733333,17.3985 L2.69733333,15.742 C3.02711111,15.9435 3.44659259,16.127 3.94074074,16.293 L3.94074074,18.199 L3.70377778,18.1115 L3.69962963,18.115 C3.04733333,17.8555 2.69733333,17.5995 2.69733333,17.3985 Z M4.70659259,13.7345 C4.7122963,13.74 4.72059259,13.746 4.72888889,13.752 C5.29562963,14.3045 6.47059259,14.74 7.93488889,15.0645 C7.96962963,15.0705 8.00385185,15.078 8.03807407,15.086 C8.14540741,15.1095 8.25481481,15.133 8.3662963,15.1545 C9.70925926,15.4295 11.3156296,15.629 13.0635556,15.7285 C13.0656296,15.7285 13.0656296,15.7285 13.0656296,15.7285 C13.0677037,15.7285 13.0677037,15.7285 13.0677037,15.7285 C13.6308148,15.7595 14.2037778,15.7805 14.7912593,15.791 C15.0505185,15.797 15.3056296,15.801 15.5545185,15.801 C15.8422963,15.801 16.1357778,15.797 16.4339259,15.789 C16.9768148,15.7795 17.5114074,15.758 18.0377037,15.7285 C18.0397778,15.7285 18.0418519,15.7285 18.0439259,15.7285 C18.0480741,15.7285 18.0501481,15.7265 18.0542963,15.7265 C19.8084444,15.627 21.4526667,15.426 22.8443704,15.1365 C22.5425926,15.287 22.1293333,15.4455 21.617037,15.5975 C20.0677037,16.0605 17.5922963,16.4805 14.449037,16.578 C14.3557037,16.58 14.2623704,16.584 14.1674815,16.586 C14.0658519,16.588 13.9626667,16.59 13.8594815,16.592 C13.5981481,16.5955 13.3368148,16.5995 13.0677037,16.5995 C12.7068148,16.5995 12.3583704,16.5955 12.0161481,16.588 C11.8885926,16.584 11.7651852,16.58 11.6397037,16.576 C11.4877778,16.572 11.34,16.5665 11.1917037,16.5605 C8.28125926,16.4355 5.98422222,16.035 4.51577778,15.5975 C3.37555556,15.258 2.73777778,14.8965 2.70096296,14.625 C2.74762963,14.4745 3.16711111,14.0975 4.70659259,13.7345 Z M2.69733333,8.199 L2.69733333,6.543 C3.02711111,6.744 3.44659259,6.9275 3.94074074,7.092 L3.94074074,9.008 C3.13444444,8.717 2.69733333,8.424 2.69733333,8.199 Z M13.0677037,3.801 C19.9074815,3.801 23.367037,4.838 23.4318519,5.4335 C23.381037,5.705 22.7432593,6.0625 21.617037,6.3985 C20.1485926,6.836 17.8515556,7.2365 14.9431852,7.3595 C14.7933333,7.365 14.6455556,7.371 14.4936296,7.377 C14.3676296,7.381 14.2442222,7.385 14.1187407,7.3865 C13.7744444,7.3945 13.426,7.4005 13.0677037,7.4005 C12.7068148,7.4005 12.3583704,7.3945 12.0161481,7.3865 C11.8885926,7.385 11.7651852,7.381 11.6397037,7.377 C11.4877778,7.371 11.34,7.365 11.1917037,7.3595 C8.28125926,7.2365 5.98422222,6.836 4.51577778,6.3985 C3.39007407,6.0625 2.75177778,5.705 2.70303704,5.4335 C2.76785185,4.838 6.22740741,3.801 13.0677037,3.801 Z M25.9212593,10.2265 C25.8823704,10.498 25.2445926,10.8595 24.1064444,11.199 C22.638,11.635 20.340963,12.035 17.4305185,12.16 C17.2822222,12.166 17.1323704,12.172 16.9825185,12.1775 C16.857037,12.1815 16.7336296,12.1835 16.6060741,12.1875 C16.2638519,12.1955 15.9154074,12.199 15.5545185,12.199 C15.1962222,12.199 14.8477778,12.1955 14.5034815,12.1875 C14.378,12.1835 14.2545926,12.1795 14.1285926,12.176 C13.9766667,12.172 13.8288889,12.166 13.679037,12.16 C10.7706667,12.035 8.47362963,11.635 7.00518519,11.1975 C5.87481481,10.8615 5.23911111,10.502 5.19037037,10.2325 C5.19244444,10.2245 5.19244444,10.2185 5.19866667,10.209 C5.22666667,10.215 5.25725926,10.2205 5.28577778,10.2285 C5.44755556,10.2655 5.61555556,10.301 5.78407407,10.336 C6.60851852,10.506 7.52162963,10.6465 8.49385185,10.754 C8.498,10.754 8.50007407,10.756 8.50422222,10.756 L8.5062963,10.756 C9.16844444,10.828 9.85703704,10.885 10.5622222,10.926 C10.5679259,10.926 10.5720741,10.9295 10.5782963,10.9295 C10.5803704,10.9295 10.5824444,10.9275 10.5860741,10.9275 C11.0947407,10.955 11.6091111,10.9765 12.1297037,10.9885 C12.4475556,10.996 12.7617778,11 13.0677037,11 C13.2844444,11 13.5068889,10.998 13.734,10.994 C16.7476296,10.949 19.5408889,10.6035 21.4832593,10.0685 C21.5745185,10.043 21.6616296,10.0175 21.7466667,9.992 C21.799037,9.9765 21.854,9.963 21.9048148,9.9475 C22.0546667,9.9005 22.1982963,9.8515 22.3377778,9.8025 C22.3621481,9.795 22.3844444,9.785 22.4088148,9.7775 C22.5265185,9.7345 22.6395556,9.6895 22.7474074,9.6445 C22.7774815,9.631 22.8101481,9.617 22.8402222,9.6055 C22.9558519,9.5545 23.0673333,9.504 23.1705185,9.451 C23.2151111,9.4275 23.2555556,9.4025 23.3001481,9.379 C23.3488889,9.3515 23.3991852,9.3225 23.4458519,9.295 C23.4722963,9.2795 23.5028889,9.2635 23.5267407,9.248 C25.3840741,9.635 25.8745926,10.0605 25.9212593,10.2265 Z M23.6708889,14.119 C23.464,14.174 23.2451852,14.2265 23.0227407,14.2775 C22.9195556,14.301 22.8137778,14.322 22.7064444,14.3455 C22.6742963,14.3515 22.6395556,14.3595 22.6074074,14.365 L22.6074074,12.414 C23.0491852,12.33 23.464,12.2385 23.8528889,12.1365 L23.8528889,14.0705 C23.7922222,14.086 23.7315556,14.1015 23.6708889,14.119 Z M18.9311111,14.869 C18.775037,14.881 18.6153333,14.8885 18.4592593,14.9005 L18.4592593,12.908 C18.8802963,12.881 19.2956296,12.8495 19.7026667,12.8105 L19.7026667,14.795 C19.4620741,14.8205 19.223037,14.843 18.9736296,14.865 C18.9596296,14.865 18.9456296,14.867 18.9311111,14.869 Z M21.7383704,14.5275 C21.5563704,14.5565 21.3738519,14.588 21.1856296,14.615 C21.0762222,14.631 20.9647407,14.6465 20.8553333,14.662 C20.7500741,14.676 20.6406667,14.6875 20.5333333,14.701 L20.5333333,12.7245 C20.9605926,12.676 21.3759259,12.619 21.7788148,12.5565 L21.7788148,14.5195 C21.7648148,14.5215 21.7528889,14.5255 21.7383704,14.5275 Z M16.378963,12.992 C16.7963704,12.9845 17.2137778,12.9725 17.6285926,12.953 L17.6285926,14.949 C17.0841481,14.9745 16.5308889,14.9885 15.9698519,14.994 L15.9698519,12.998 C16.0854815,12.996 16.199037,12.996 16.3120741,12.994 L16.378963,12.992 Z M6.43014815,11.8925 L6.43014815,13.793 C5.77785185,13.551 5.3562963,13.3025 5.22096296,13.082 L5.19244444,13.037 C5.19037037,13.0235 5.18622222,13.0115 5.18414815,12.998 L5.18414815,11.342 C5.51651852,11.543 5.936,11.7265 6.43014815,11.8925 Z M8.50422222,12.414 L8.50422222,14.3635 C8.0442963,14.2675 7.62896296,14.166 7.25822222,14.0625 L7.25822222,12.1365 C7.64711111,12.2385 8.06244444,12.33 8.50422222,12.414 Z M9.8082963,14.5975 C9.64444444,14.572 9.49044444,14.545 9.3322963,14.5175 L9.3322963,12.5565 C9.7357037,12.619 10.151037,12.676 10.5782963,12.7245 L10.5782963,14.703 C10.3231852,14.672 10.0758519,14.6365 9.83681481,14.6015 C9.82696296,14.5995 9.81866667,14.5975 9.8082963,14.5975 Z M12.5491852,14.8965 C12.4921481,14.8905 12.4377037,14.8865 12.3806667,14.883 C12.1157037,14.8635 11.8564444,14.842 11.6028889,14.8165 C11.5484444,14.8125 11.4934815,14.8065 11.4411111,14.801 C11.4286667,14.801 11.4188148,14.799 11.4063704,14.797 L11.4063704,12.8105 C11.816,12.8495 12.2308148,12.881 12.6523704,12.908 L12.6523704,14.9025 C12.6176296,14.9005 12.5834074,14.8985 12.5491852,14.8965 Z M8.08888889,7.924 L8.08888889,9.9005 C8.00592593,9.8905 7.92088889,9.883 7.84,9.871 C7.78711111,9.865 7.7362963,9.8575 7.68392593,9.8495 C7.44488889,9.8165 7.21,9.781 6.98081481,9.744 C6.93414815,9.7365 6.89007407,9.7285 6.84548148,9.7205 L6.84548148,7.756 C7.2462963,7.8185 7.66162963,7.875 8.08888889,7.924 Z M8.91955556,9.996 L8.91955556,8.0115 C9.32659259,8.049 9.74192593,8.082 10.162963,8.1095 L10.162963,10.0995 C9.74192593,10.0705 9.32451852,10.037 8.91955556,9.996 Z M17.2158519,8.0115 L17.2158519,9.996 C16.8145185,10.035 16.3991852,10.0725 15.9698519,10.1015 L15.9698519,8.1095 C16.3914074,8.082 16.8062222,8.049 17.2158519,8.0115 Z M20.118,9.5625 L20.118,7.6135 C20.5597778,7.5295 20.9751111,7.4375 21.364,7.338 L21.364,9.2655 C20.9911852,9.369 20.5717037,9.4685 20.118,9.5625 Z M18.0439259,9.9005 L18.0439259,7.924 C18.4711852,7.875 18.8865185,7.8185 19.2899259,7.756 L19.2899259,9.717 C18.8948148,9.783 18.4815556,9.8455 18.0439259,9.9005 Z M23.3426667,8.3925 L23.3307407,8.3905 L23.1788148,8.504 C22.96,8.668 22.6234815,8.834 22.1920741,8.996 L22.1920741,7.092 C22.6862222,6.9275 23.1057037,6.744 23.4380741,6.543 L23.4380741,8.1975 C23.4380741,8.258 23.4033333,8.324 23.3426667,8.3925 Z M13.8900741,8.1915 C14.306963,8.1835 14.7243704,8.172 15.1417778,8.1545 L15.1417778,10.1485 C15.0707407,10.1525 15.0017778,10.156 14.9307407,10.16 C14.9265926,10.16 14.9208889,10.16 14.9146667,10.162 C14.6351852,10.174 14.3515556,10.1815 14.0637778,10.1875 C14.0197037,10.1895 13.9751111,10.1895 13.9305185,10.1915 C13.7822222,10.1935 13.6308148,10.1955 13.4804444,10.1955 L13.4804444,8.1975 C13.5960741,8.1975 13.7096296,8.1955 13.8231852,8.1935 L13.8900741,8.1915 Z M12.3101481,8.1935 C12.4231852,8.1955 12.5367407,8.1975 12.6523704,8.1975 L12.6523704,10.1955 C12.0934074,10.1895 11.5380741,10.176 10.9936296,10.1505 L10.9936296,8.1545 C11.4084444,8.172 11.8258519,8.1855 12.2432593,8.1935 C12.2655556,8.1935 12.2878519,8.1935 12.3101481,8.1935 Z M4.77140741,9.2695 L4.77140741,7.338 C5.15822222,7.4375 5.57511111,7.5295 6.01481481,7.6135 L6.01481481,9.5665 C5.964,9.5545 5.91162963,9.545 5.86081481,9.535 C5.63992593,9.4885 5.42525926,9.4395 5.21888889,9.3865 C5.06281481,9.3495 4.91296296,9.3085 4.77140741,9.2695 Z M14.446963,14.9865 C14.1348148,14.9785 13.8288889,14.967 13.5291852,14.953 C13.5131111,14.951 13.497037,14.951 13.4804444,14.951 L13.4804444,12.953 C13.8978519,12.9725 14.3152593,12.9845 14.7321481,12.992 C14.7544444,12.992 14.7767407,12.992 14.796963,12.994 C14.9125926,12.996 15.0261481,12.996 15.1397037,12.998 L15.1397037,14.996 C14.939037,14.994 14.7342222,14.992 14.5377037,14.9885 C14.5076296,14.9865 14.477037,14.9865 14.446963,14.9865 Z M20.118,16.8125 C20.5597778,16.7305 20.9751111,16.6365 21.364,16.537 L21.364,18.4685 C20.9932593,18.572 20.5779259,18.672 20.118,18.7655 L20.118,16.8125 Z M18.0439259,19.1035 L18.0439259,17.125 C18.4711852,17.076 18.8865185,17.0195 19.2899259,16.955 L19.2899259,18.92 C18.898963,18.9865 18.4836296,19.049 18.0439259,19.1035 Z M16.2472593,19.283 C16.1565185,19.289 16.0631852,19.297 15.9698519,19.3025 L15.9698519,17.3085 C16.3914074,17.2805 16.8062222,17.25 17.2158519,17.211 L17.2158519,19.197 C16.9581481,19.2225 16.6973333,19.248 16.4277037,19.2695 C16.367037,19.2735 16.3063704,19.2795 16.2472593,19.283 Z M8.08888889,17.125 L8.08888889,19.1035 C7.65125926,19.047 7.23592593,18.9865 6.84548148,18.92 L6.84548148,16.955 C7.2462963,17.0195 7.66162963,17.076 8.08888889,17.125 Z M9.13422222,19.2185 C9.0917037,19.215 9.04918519,19.211 9.00822222,19.207 C8.97814815,19.203 8.94755556,19.201 8.91955556,19.197 L8.91955556,17.211 C9.32659259,17.25 9.74192593,17.2805 10.162963,17.3085 L10.162963,19.3025 C9.81451852,19.2775 9.47022222,19.25 9.13422222,19.2185 Z M10.162963,21.6115 C10.5720741,21.6485 10.9874074,21.6815 11.4063704,21.709 L11.4063704,23.703 C10.977037,23.674 10.5622222,23.6385 10.162963,23.5975 L10.162963,21.6115 Z M8.08888889,21.3555 C8.4897037,21.42 8.90503704,21.4765 9.3322963,21.5255 L9.3322963,23.504 C8.89518519,23.447 8.47985185,23.3865 8.08888889,23.3205 L8.08888889,21.3555 Z M7.25822222,21.213 L7.25822222,23.166 C6.80088889,23.072 6.38348148,22.9725 6.01481481,22.869 L6.01481481,20.9375 C6.40162963,21.037 6.81903704,21.131 7.25822222,21.213 Z M21.364,21.213 C21.8031852,21.129 22.2205926,21.037 22.6074074,20.9375 L22.6074074,22.869 C22.2387407,22.9725 21.8213333,23.072 21.364,23.166 L21.364,21.213 Z M19.2899259,21.5255 C19.7171852,21.4745 20.1325185,21.418 20.5333333,21.3555 L20.5333333,23.3205 C20.1423704,23.3865 19.727037,23.447 19.2899259,23.504 L19.2899259,21.5255 Z M18.4592593,21.6115 L18.4592593,23.5975 C18.06,23.6385 17.6451852,23.674 17.2158519,23.703 L17.2158519,21.707 C17.6348148,21.6815 18.0501481,21.6485 18.4592593,21.6115 Z M15.1334815,21.793 C15.5524444,21.785 15.9698519,21.7715 16.3851852,21.754 L16.3851852,23.75 C15.8526667,23.7755 15.2994074,23.793 14.7264444,23.797 L14.7264444,21.797 C14.84,21.797 14.953037,21.795 15.0686667,21.793 C15.090963,21.793 15.1111852,21.793 15.1334815,21.793 Z M13.5535556,21.793 C13.6691852,21.795 13.7822222,21.797 13.8957778,21.799 L13.8957778,23.797 C13.3228148,23.793 12.7695556,23.7775 12.237037,23.752 L12.237037,21.754 C12.6523704,21.7735 13.0692593,21.785 13.4887407,21.793 C13.511037,21.793 13.5312593,21.793 13.5535556,21.793 Z M4.80977778,18.4805 C4.79733333,18.4765 4.78333333,18.4725 4.77140741,18.4685 L4.77140741,16.537 C5.15822222,16.6385 5.57511111,16.7305 6.01481481,16.8145 L6.01481481,18.7655 C5.63422222,18.6875 5.2837037,18.6055 4.96377778,18.5215 C4.91296296,18.508 4.86007407,18.494 4.80977778,18.4805 Z M12.3039259,19.3925 C12.1136296,19.3885 11.9233333,19.3845 11.7366667,19.379 L11.6656296,19.377 C11.4411111,19.369 11.2160741,19.3615 10.9936296,19.3495 L10.9936296,17.3535 C11.4084444,17.373 11.8258519,17.3845 12.2432593,17.3925 C12.2655556,17.3925 12.2878519,17.3925 12.3101481,17.3925 C12.4231852,17.3945 12.5367407,17.3965 12.6523704,17.3985 L12.6523704,19.3965 C12.5714815,19.3965 12.4900741,19.3965 12.4112593,19.3945 C12.374963,19.3945 12.3381481,19.3925 12.3039259,19.3925 Z M14.1145926,19.3865 C14.0539259,19.3885 13.9932593,19.3885 13.9325926,19.3905 C13.7842963,19.3945 13.6323704,19.3945 13.4825185,19.3965 L13.4825185,17.3985 C13.5960741,17.3965 13.7096296,17.3945 13.8247407,17.3925 L13.8900741,17.3905 C14.306963,17.3845 14.7264444,17.371 15.1417778,17.3535 L15.1417778,19.3495 C15.0525926,19.3555 14.9634074,19.3595 14.8742222,19.3635 C14.6232593,19.373 14.3717778,19.381 14.1145926,19.3865 Z M23.3914074,17.5295 L23.2514074,17.6485 C23.0325926,17.834 22.6701481,18.0195 22.1920741,18.199 L22.1920741,16.293 C22.6862222,16.127 23.1057037,15.9435 23.4380741,15.742 L23.4380741,17.3985 C23.4380741,17.4395 23.4214815,17.4825 23.3914074,17.5295 Z M26.7514074,10.199 C26.7088889,9.5155 25.8662963,8.9805 24.176963,8.5725 C24.234,8.453 24.2661481,8.328 24.2661481,8.199 L24.2661481,5.4005 L24.2599259,5.4005 C24.1100741,3.0685 14.2037778,3 13.0677037,3 C11.929037,3 2.02274074,3.0685 1.87288889,5.4005 L1.86666667,5.4005 L1.86666667,8.199 C1.86874074,8.959 2.88555556,9.5545 4.39859259,9.998 C4.37837037,10.0645 4.36592593,10.131 4.36177778,10.199 L4.35607407,10.199 L4.35607407,12.994 C2.72533333,13.4005 1.91125926,13.9275 1.87081481,14.5995 L1.86666667,14.5995 L1.86666667,17.4005 C1.86874074,17.9295 2.36288889,18.377 3.17333333,18.752 C3.14274074,18.832 3.12251852,18.916 3.1162963,19 L3.11007407,19 L3.11007407,21.801 C3.11422222,23.131 6.22118519,23.957 9.67296296,24.342 C9.69733333,24.3475 9.72118519,24.3575 9.74762963,24.3575 C9.75592593,24.3575 9.76214815,24.3535 9.76992593,24.3515 C10.4362222,24.424 11.1128889,24.4805 11.7812593,24.5215 C11.7952593,24.5235 11.8077037,24.5295 11.8217037,24.5295 C11.83,24.5295 11.8362222,24.5255 11.844,24.5255 C12.6928148,24.574 13.5291852,24.5995 14.3111111,24.5995 C15.093037,24.5995 15.9294074,24.574 16.7782222,24.5255 C16.786,24.5255 16.7922222,24.5295 16.8005185,24.5295 C16.8145185,24.5295 16.826963,24.5215 16.840963,24.5215 C17.5093333,24.4805 18.186,24.424 18.8522963,24.3515 C18.8600741,24.3515 18.8662963,24.3555 18.8745926,24.3555 C18.901037,24.3555 18.9248889,24.3455 18.9492593,24.342 C22.401037,23.955 25.508,23.129 25.5121481,21.799 L25.5121481,19 L25.5038519,19 C25.4753333,18.5095 25.0418519,18.0995 24.1852593,17.758 C24.2381481,17.6425 24.2661481,17.5235 24.2661481,17.3985 L24.2661481,14.783 C25.7548148,14.342 26.7534815,13.752 26.7555556,12.998 L26.7555556,10.199 L26.7514074,10.199 L26.7514074,10.199 Z" id="coins"></path>
                    </g>
                </g>
            </g>
        </g>
    </g>
</svg>