<?xml version="1.0" encoding="UTF-8"?>
<svg width="69px" height="60px" viewBox="0 0 69 60" version="1.1" xmlns="http://www.w3.org/2000/svg" xmlns:xlink="http://www.w3.org/1999/xlink">
    <!-- Generator: Sketch 54.1 (76490) - https://sketchapp.com -->
    <title>icon/simulation</title>
    <desc>Created with Sketch.</desc>
    <defs>
        <circle id="path-1" cx="17.25" cy="17.25" r="3.75"></circle>
        <filter x="-46.7%" y="-33.3%" width="193.3%" height="193.3%" filterUnits="objectBoundingBox" id="filter-2">
            <feMorphology radius="0.5" operator="erode" in="SourceAlpha" result="shadowSpreadOuter1"></feMorphology>
            <feOffset dx="0" dy="1" in="shadowSpreadOuter1" result="shadowOffsetOuter1"></feOffset>
            <feGaussianBlur stdDeviation="1.5" in="shadowOffsetOuter1" result="shadowBlurOuter1"></feGaussianBlur>
            <feColorMatrix values="0 0 0 0 0   0 0 0 0 0   0 0 0 0 0  0 0 0 0.5 0" type="matrix" in="shadowBlurOuter1"></feColorMatrix>
        </filter>
    </defs>
    <g id="Simulation" stroke="none" stroke-width="1" fill="none" fill-rule="evenodd">
        <g id="Simulation-vide---Application-sélectionnée" transform="translate(-900.000000, -380.000000)">
            <g id="Group-7" transform="translate(746.000000, 346.000000)">
                <g id="icon/simulation" transform="translate(123.000000, 0.000000)">
                    <g id="icon/coins" transform="translate(27.000000, 27.000000)" fill="#001A70" fill-rule="nonzero">
                        <path d="M59.9407407,34.7719259 L59.9407407,29.9514815 C61.1408148,29.5334074 62.1595556,29.0712593 62.9604444,28.565037 L62.9604444,32.7357037 C62.9604444,33.3011111 61.8988889,34.039037 59.9407407,34.7719259 Z M59.9256296,47.9299259 C59.8173333,48.6099259 58.2684444,49.5140741 55.5182222,50.3653333 C51.957037,51.4671852 46.3785185,52.4758519 39.3102963,52.7906667 C38.9463704,52.8057778 38.5874815,52.8196296 38.2185185,52.8297037 C37.9188148,52.8397778 37.6128148,52.8498519 37.3080741,52.8599259 C36.4719259,52.8737778 35.6257037,52.8888889 34.7555556,52.8888889 C33.8854074,52.8888889 33.0341481,52.8737778 32.203037,52.8548889 C31.897037,52.8498519 31.5973333,52.8397778 31.2976296,52.8297037 C30.9286667,52.8145926 30.5647407,52.8007407 30.2008148,52.7856296 C23.1325926,52.4758519 17.5540741,51.4671852 13.9928889,50.3653333 C11.327037,49.5442963 9.78696296,48.6678519 9.59555556,47.9941481 C9.89525926,48.0974074 10.205037,48.2006667 10.5248889,48.2988889 C10.5588889,48.308963 10.5891111,48.319037 10.6231111,48.3291111 C10.8938519,48.4122222 11.1734074,48.4915556 11.4592593,48.5696296 C11.5675556,48.5998519 11.6758519,48.6338519 11.7841481,48.659037 C11.9465926,48.7031111 12.109037,48.7471852 12.2752593,48.7862222 C15.9447407,49.7256296 20.6279259,50.3942963 25.6851111,50.6952593 C25.6851111,50.6952593 25.6851111,50.6952593 25.6901481,50.6952593 C27.2541481,50.7834074 28.8483704,50.8425926 30.4614815,50.8627407 C30.8896296,50.8715556 31.3177778,50.8715556 31.7358519,50.8715556 C32.2861481,50.8715556 32.8565926,50.8665185 33.4320741,50.8577037 C34.9028889,50.8325185 36.3535556,50.7783704 37.7702222,50.6952593 C37.7752593,50.6952593 37.7752593,50.6952593 37.7802963,50.6952593 C37.7853333,50.6952593 37.7853333,50.6952593 37.7903704,50.6952593 C39.5168148,50.586963 41.1891111,50.4396296 42.7984444,50.257037 C42.8034815,50.257037 42.8072593,50.257037 42.8173333,50.257037 C42.8374815,50.257037 42.8576296,50.246963 42.8765185,50.246963 C44.6671852,50.0404444 46.3646667,49.7848148 47.9387407,49.4901481 C48.2636296,49.430963 48.5822222,49.3717778 48.897037,49.3075556 C48.9713333,49.2924444 49.0405926,49.2785926 49.1085926,49.2634815 C52.0854815,48.654 54.6581481,47.8619259 56.4286667,46.8822222 C56.5218519,46.8268148 56.615037,46.7739259 56.7044444,46.721037 C56.8177778,46.6568148 56.9248148,46.5875556 57.0293333,46.5182963 C57.1275556,46.4553333 57.2358519,46.3961481 57.324,46.3319259 C59.3161481,47.0396296 59.8614074,47.6742963 59.9256296,47.9299259 Z M56.921037,56.9374074 L56.921037,52.116963 C58.1160741,51.6988889 59.1335556,51.2354815 59.9407407,50.7292593 L59.9407407,54.8961481 C59.9407407,55.4665926 58.8779259,56.2045185 56.921037,56.9374074 Z M9.57037037,54.9011852 L9.57037037,50.7292593 C10.3775556,51.2354815 11.395037,51.6988889 12.5900741,52.116963 L12.5900741,56.9374074 C10.6331852,56.2045185 9.57037037,55.4665926 9.57037037,54.9011852 Z M6.55066667,43.8184444 L6.55066667,39.6465185 C7.35155556,40.154 8.3702963,40.6161481 9.57037037,41.0342222 L9.57037037,45.8345185 L8.99488889,45.6141481 L8.98481481,45.622963 C7.40066667,44.9694074 6.55066667,44.3246667 6.55066667,43.8184444 Z M11.4302963,34.5905926 C11.4441481,34.6044444 11.4642963,34.6195556 11.4844444,34.6346667 C12.8608148,36.0261481 15.7142963,37.122963 19.2704444,37.9402222 C19.3548148,37.9553333 19.4379259,37.9742222 19.521037,37.9943704 C19.7817037,38.0535556 20.0474074,38.1127407 20.3181481,38.1668889 C23.5796296,38.8594815 27.4808148,39.3619259 31.7257778,39.6125185 C31.7308148,39.6125185 31.7308148,39.6125185 31.7308148,39.6125185 C31.7358519,39.6125185 31.7358519,39.6125185 31.7358519,39.6125185 C33.1034074,39.6905926 34.4948889,39.7434815 35.9216296,39.7699259 C36.5512593,39.785037 37.1708148,39.7951111 37.7752593,39.7951111 C38.4741481,39.7951111 39.1868889,39.785037 39.910963,39.7648889 C41.2294074,39.740963 42.5277037,39.6868148 43.8058519,39.6125185 C43.8108889,39.6125185 43.8159259,39.6125185 43.820963,39.6125185 C43.831037,39.6125185 43.8360741,39.6074815 43.8461481,39.6074815 C48.1062222,39.3568889 52.0993333,38.8506667 55.4791852,38.1215556 C54.7462963,38.5005926 53.7426667,38.8997778 52.4985185,39.2825926 C48.7358519,40.4486667 42.7241481,41.5064444 35.0905185,41.752 C34.8638519,41.757037 34.6371852,41.7671111 34.4067407,41.7721481 C34.1599259,41.7771852 33.9093333,41.7822222 33.6587407,41.7872593 C33.0240741,41.7960741 32.3894074,41.8061481 31.7358519,41.8061481 C30.8594074,41.8061481 30.0131852,41.7960741 29.1820741,41.7771852 C28.8722963,41.7671111 28.5725926,41.757037 28.2678519,41.746963 C27.8988889,41.7368889 27.54,41.723037 27.1798519,41.7079259 C20.1116296,41.3931111 14.5331111,40.3844444 10.9668889,39.2825926 C8.19777778,38.4275556 6.64888889,37.5171111 6.55948148,36.8333333 C6.67281481,36.4542963 7.69155556,35.5048148 11.4302963,34.5905926 Z M6.55066667,20.6493333 L6.55066667,16.4786667 C7.35155556,16.9848889 8.3702963,17.447037 9.57037037,17.8613333 L9.57037037,22.6868148 C7.61222222,21.9539259 6.55066667,21.216 6.55066667,20.6493333 Z M31.7358519,9.57288889 C48.3467407,9.57288889 56.7485185,12.1845926 56.9059259,13.6843704 C56.7825185,14.3681481 55.2336296,15.2685185 52.4985185,16.1147407 C48.9322963,17.2165926 43.3537778,18.2252593 36.2905926,18.535037 C35.9266667,18.5488889 35.5677778,18.564 35.1988148,18.5791111 C34.8928148,18.5891852 34.5931111,18.5992593 34.2883704,18.603037 C33.4522222,18.6231852 32.606,18.6382963 31.7358519,18.6382963 C30.8594074,18.6382963 30.0131852,18.6231852 29.1820741,18.603037 C28.8722963,18.5992593 28.5725926,18.5891852 28.2678519,18.5791111 C27.8988889,18.564 27.54,18.5488889 27.1798519,18.535037 C20.1116296,18.2252593 14.5331111,17.2165926 10.9668889,16.1147407 C8.23303704,15.2685185 6.68288889,14.3681481 6.56451852,13.6843704 C6.72192593,12.1845926 15.1237037,9.57288889 31.7358519,9.57288889 Z M62.9516296,25.7556296 C62.8571852,26.4394074 61.3082963,27.3498519 58.5442222,28.2048889 C54.978,29.302963 49.3994815,30.3103704 42.3312593,30.6251852 C41.9711111,30.6402963 41.6071852,30.6554074 41.2432593,30.6692593 C40.9385185,30.6793333 40.6388148,30.6843704 40.329037,30.6944444 C39.4979259,30.7145926 38.6517037,30.7234074 37.7752593,30.7234074 C36.9051111,30.7234074 36.0588889,30.7145926 35.2227407,30.6944444 C34.918,30.6843704 34.6182963,30.6742963 34.3122963,30.6654815 C33.9433333,30.6554074 33.5844444,30.6402963 33.2205185,30.6251852 C26.1573333,30.3103704 20.5788148,29.302963 17.0125926,28.2011111 C14.2674074,27.3548889 12.7235556,26.4494815 12.6051852,25.7707407 C12.6102222,25.7505926 12.6102222,25.7354815 12.6253333,25.7115556 C12.6933333,25.7266667 12.7676296,25.7405185 12.8368889,25.7606667 C13.2297778,25.8538519 13.6377778,25.9432593 14.047037,26.0314074 C16.0492593,26.4595556 18.2668148,26.8134074 20.6279259,27.0841481 C20.638,27.0841481 20.643037,27.0891852 20.6531111,27.0891852 L20.6581481,27.0891852 C22.2662222,27.2705185 23.9385185,27.4140741 25.6511111,27.5173333 C25.664963,27.5173333 25.675037,27.5261481 25.6901481,27.5261481 C25.6951852,27.5261481 25.7002222,27.5211111 25.709037,27.5211111 C26.9443704,27.5903704 28.1935556,27.6445185 29.4578519,27.6747407 C30.2297778,27.6936296 30.9928889,27.7037037 31.7358519,27.7037037 C32.2622222,27.7037037 32.8024444,27.6986667 33.354,27.6885926 C40.6728148,27.5752593 47.4564444,26.7051111 52.1736296,25.3577037 C52.3952593,25.2934815 52.6068148,25.2292593 52.8133333,25.165037 C52.9405185,25.126 53.074,25.092 53.1974074,25.052963 C53.5613333,24.9345926 53.9101481,24.8111852 54.2488889,24.6877778 C54.3080741,24.6688889 54.3622222,24.6437037 54.4214074,24.6248148 C54.7072593,24.5165185 54.9817778,24.4031852 55.2437037,24.2898519 C55.3167407,24.2558519 55.3960741,24.2205926 55.4691111,24.1916296 C55.7499259,24.0631852 56.0206667,23.936 56.2712593,23.8025185 C56.3795556,23.7433333 56.4777778,23.6803704 56.5860741,23.6211852 C56.7044444,23.5519259 56.8265926,23.4788889 56.9399259,23.4096296 C57.0041481,23.3705926 57.0784444,23.3302963 57.1363704,23.2912593 C61.647037,24.2659259 62.8382963,25.3375556 62.9516296,25.7556296 Z M57.4864444,35.558963 C56.984,35.6974815 56.4525926,35.8297037 55.9123704,35.9581481 C55.6617778,36.0173333 55.4048889,36.0702222 55.1442222,36.1294074 C55.0661481,36.1445185 54.9817778,36.1646667 54.9037037,36.1785185 L54.9037037,31.2648889 C55.9765926,31.0533333 56.984,30.8228889 57.9284444,30.566 L57.9284444,35.4368148 C57.7811111,35.4758519 57.6337778,35.5148889 57.4864444,35.558963 Z M45.9755556,37.4478519 C45.5965185,37.4780741 45.2086667,37.496963 44.8296296,37.5271852 L44.8296296,32.509037 C45.8521481,32.441037 46.8608148,32.3617037 47.8493333,32.2634815 L47.8493333,37.2614815 C47.265037,37.3257037 46.6845185,37.3823704 46.0788148,37.4377778 C46.0448148,37.4377778 46.0108148,37.4428148 45.9755556,37.4478519 Z M52.7931852,36.5877778 C52.3511852,36.6608148 51.9079259,36.7401481 51.4508148,36.8081481 C51.1851111,36.8484444 50.9143704,36.8874815 50.6486667,36.9265185 C50.393037,36.9617778 50.1273333,36.9907407 49.8666667,37.0247407 L49.8666667,32.0468889 C50.9042963,31.9247407 51.912963,31.7811852 52.8914074,31.6237778 L52.8914074,36.5676296 C52.8574074,36.5726667 52.8284444,36.5827407 52.7931852,36.5877778 Z M39.7774815,32.7205926 C40.7911852,32.7017037 41.8048889,32.6714815 42.8122963,32.6223704 L42.8122963,37.6493333 C41.4900741,37.7135556 40.1464444,37.7488148 38.7839259,37.7626667 L38.7839259,32.7357037 C39.0647407,32.7306667 39.3405185,32.7306667 39.615037,32.7256296 L39.7774815,32.7205926 Z M15.6160741,29.9514815 L15.6160741,34.7379259 C14.0319259,34.1284444 13.0081481,33.5025926 12.6794815,32.9472593 L12.6102222,32.8339259 C12.6051852,32.7999259 12.5951111,32.7697037 12.5900741,32.7357037 L12.5900741,28.565037 C13.3972593,29.0712593 14.416,29.5334074 15.6160741,29.9514815 Z M20.6531111,31.2648889 L20.6531111,36.1747407 C19.5361481,35.932963 18.5274815,35.6773333 17.6271111,35.4166667 L17.6271111,30.566 C18.5715556,30.8228889 19.5802222,31.0533333 20.6531111,31.2648889 Z M23.8201481,36.7640741 C23.4222222,36.6998519 23.0482222,36.6318519 22.6641481,36.5625926 L22.6641481,31.6237778 C23.6438519,31.7811852 24.6525185,31.9247407 25.6901481,32.0468889 L25.6901481,37.0297778 C25.0705926,36.9517037 24.4699259,36.8622963 23.8894074,36.7741481 C23.8654815,36.7691111 23.8453333,36.7640741 23.8201481,36.7640741 Z M30.4765926,37.5171111 C30.3380741,37.502 30.2058519,37.4919259 30.0673333,37.4831111 C29.4238519,37.434 28.7942222,37.3798519 28.1784444,37.3156296 C28.0462222,37.3055556 27.9127407,37.2904444 27.7855556,37.2765926 C27.7553333,37.2765926 27.7314074,37.2715556 27.7011852,37.2665185 L27.7011852,32.2634815 C28.696,32.3617037 29.7034074,32.441037 30.7271852,32.509037 L30.7271852,37.5322222 C30.6428148,37.5271852 30.5597037,37.5221481 30.4765926,37.5171111 Z M19.6444444,19.9567407 L19.6444444,24.9345926 C19.442963,24.9094074 19.2364444,24.8905185 19.04,24.8602963 C18.9115556,24.8451852 18.7881481,24.8262963 18.660963,24.8061481 C18.0804444,24.723037 17.51,24.6336296 16.9534074,24.5404444 C16.8400741,24.5215556 16.733037,24.5014074 16.6247407,24.4812593 L16.6247407,19.5336296 C17.5981481,19.691037 18.6068148,19.8333333 19.6444444,19.9567407 Z M21.6617778,25.1751111 L21.6617778,20.1771111 C22.6502963,20.2715556 23.658963,20.3546667 24.6814815,20.4239259 L24.6814815,25.4357778 C23.658963,25.3627407 22.6452593,25.2783704 21.6617778,25.1751111 Z M41.8099259,20.1771111 L41.8099259,25.1751111 C40.8352593,25.2733333 39.8265926,25.3677778 38.7839259,25.4408148 L38.7839259,20.4239259 C39.8077037,20.3546667 40.8151111,20.2715556 41.8099259,20.1771111 Z M48.858,24.0833333 L48.858,19.1747407 C49.9308889,18.9631852 50.9395556,18.7314815 51.884,18.4808889 L51.884,23.3353333 C50.9785926,23.596 49.9598519,23.8465926 48.858,24.0833333 Z M43.820963,24.9345926 L43.820963,19.9567407 C44.8585926,19.8333333 45.8672593,19.691037 46.846963,19.5336296 L46.846963,24.4724444 C45.8874074,24.6386667 44.8837778,24.7960741 43.820963,24.9345926 Z M56.6893333,21.1366667 L56.6603704,21.1316296 L56.2914074,21.4174815 C55.76,21.8305185 54.9427407,22.2485926 53.895037,22.6565926 L53.895037,17.8613333 C55.0951111,17.447037 56.1138519,16.9848889 56.921037,16.4786667 L56.921037,20.6455556 C56.921037,20.7979259 56.8366667,20.9641481 56.6893333,21.1366667 Z M33.733037,20.6304444 C34.7454815,20.6102963 35.7591852,20.5813333 36.7728889,20.5372593 L36.7728889,25.5591852 C36.6003704,25.5692593 36.4328889,25.5780741 36.2603704,25.5881481 C36.2502963,25.5881481 36.2364444,25.5881481 36.2213333,25.5931852 C35.5425926,25.6234074 34.8537778,25.6422963 34.1548889,25.6574074 C34.0478519,25.6624444 33.9395556,25.6624444 33.8312593,25.6674815 C33.4711111,25.6725185 33.1034074,25.6775556 32.7382222,25.6775556 L32.7382222,20.6455556 C33.019037,20.6455556 33.2948148,20.6405185 33.5705926,20.6354815 L33.733037,20.6304444 Z M29.8960741,20.6354815 C30.1705926,20.6405185 30.4463704,20.6455556 30.7271852,20.6455556 L30.7271852,25.6775556 C29.3697037,25.6624444 28.021037,25.6284444 26.6988148,25.5642222 L26.6988148,20.5372593 C27.7062222,20.5813333 28.7199259,20.6153333 29.7336296,20.6354815 C29.7877778,20.6354815 29.8419259,20.6354815 29.8960741,20.6354815 Z M11.5877037,23.3454074 L11.5877037,18.4808889 C12.5271111,18.7314815 13.5395556,18.9631852 14.6074074,19.1747407 L14.6074074,24.0934074 C14.484,24.0631852 14.3568148,24.0392593 14.2334074,24.0140741 C13.696963,23.896963 13.1756296,23.7735556 12.6744444,23.6400741 C12.2954074,23.5468889 11.9314815,23.4436296 11.5877037,23.3454074 Z M35.0854815,37.7437778 C34.3274074,37.7236296 33.5844444,37.6946667 32.8565926,37.6594074 C32.8175556,37.6543704 32.7785185,37.6543704 32.7382222,37.6543704 L32.7382222,32.6223704 C33.7519259,32.6714815 34.7656296,32.7017037 35.7780741,32.7205926 C35.8322222,32.7205926 35.8863704,32.7205926 35.9354815,32.7256296 C36.2162963,32.7306667 36.4920741,32.7306667 36.7678519,32.7357037 L36.7678519,37.7677037 C36.2805185,37.7626667 35.7831111,37.7576296 35.3058519,37.7488148 C35.2328148,37.7437778 35.1585185,37.7437778 35.0854815,37.7437778 Z M48.858,42.3425926 C49.9308889,42.1360741 50.9395556,41.8993333 51.884,41.6487407 L51.884,46.5132593 C50.9836296,46.7739259 49.974963,47.0257778 48.858,47.2612593 L48.858,42.3425926 Z M43.820963,48.1125185 L43.820963,43.1296296 C44.8585926,43.0062222 45.8672593,42.8639259 46.846963,42.7014815 L46.846963,47.6503704 C45.8974815,47.8178519 44.8888148,47.9752593 43.820963,48.1125185 Z M39.4576296,48.5645926 C39.2372593,48.5797037 39.0105926,48.5998519 38.7839259,48.6137037 L38.7839259,43.5917778 C39.8077037,43.5212593 40.8151111,43.4444444 41.8099259,43.3462222 L41.8099259,48.348 C41.1840741,48.4122222 40.5506667,48.4764444 39.8958519,48.5305926 C39.7485185,48.5406667 39.6011852,48.5557778 39.4576296,48.5645926 Z M19.6444444,43.1296296 L19.6444444,48.1125185 C18.5816296,47.9702222 17.572963,47.8178519 16.6247407,47.6503704 L16.6247407,42.7014815 C17.5981481,42.8639259 18.6068148,43.0062222 19.6444444,43.1296296 Z M22.1831111,48.4021481 C22.0798519,48.3933333 21.9765926,48.3832593 21.8771111,48.3731852 C21.8040741,48.3631111 21.7297778,48.3580741 21.6617778,48.348 L21.6617778,43.3462222 C22.6502963,43.4444444 23.658963,43.5212593 24.6814815,43.5917778 L24.6814815,48.6137037 C23.8352593,48.5507407 22.9991111,48.4814815 22.1831111,48.4021481 Z M24.6814815,54.428963 C25.675037,54.5221481 26.6837037,54.6052593 27.7011852,54.6745185 L27.7011852,59.6964444 C26.6585185,59.6234074 25.6511111,59.534 24.6814815,59.4307407 L24.6814815,54.428963 Z M19.6444444,53.7842222 C20.6178519,53.9466667 21.6265185,54.088963 22.6641481,54.2123704 L22.6641481,59.1952593 C21.6025926,59.0517037 20.5939259,58.8993333 19.6444444,58.7331111 L19.6444444,53.7842222 Z M17.6271111,53.4253333 L17.6271111,58.344 C16.5164444,58.1072593 15.5027407,57.8566667 14.6074074,57.596 L14.6074074,52.7314815 C15.5468148,52.9820741 16.5605185,53.2188148 17.6271111,53.4253333 Z M51.884,53.4253333 C52.9505926,53.2137778 53.9642963,52.9820741 54.9037037,52.7314815 L54.9037037,57.596 C54.0083704,57.8566667 52.9946667,58.1072593 51.884,58.344 L51.884,53.4253333 Z M46.846963,54.2123704 C47.8845926,54.0839259 48.8932593,53.9416296 49.8666667,53.7842222 L49.8666667,58.7331111 C48.9171852,58.8993333 47.9085185,59.0517037 46.846963,59.1952593 L46.846963,54.2123704 Z M44.8296296,54.428963 L44.8296296,59.4307407 C43.86,59.534 42.8525926,59.6234074 41.8099259,59.6964444 L41.8099259,54.6694815 C42.8274074,54.6052593 43.8360741,54.5221481 44.8296296,54.428963 Z M36.7527407,54.8860741 C37.7702222,54.8659259 38.7839259,54.8319259 39.7925926,54.7878519 L39.7925926,59.8148148 C38.4993333,59.879037 37.1557037,59.9231111 35.7642222,59.9331852 L35.7642222,54.8961481 C36.04,54.8961481 36.3145185,54.8911111 36.5953333,54.8860741 C36.6494815,54.8860741 36.6985926,54.8860741 36.7527407,54.8860741 Z M32.9157778,54.8860741 C33.1965926,54.8911111 33.4711111,54.8961481 33.7468889,54.9011852 L33.7468889,59.9331852 C32.3554074,59.9231111 31.0117778,59.8840741 29.7185185,59.8198519 L29.7185185,54.7878519 C30.7271852,54.836963 31.7396296,54.8659259 32.7583704,54.8860741 C32.8125185,54.8860741 32.8616296,54.8860741 32.9157778,54.8860741 Z M11.6808889,46.5434815 C11.6506667,46.5334074 11.6166667,46.5233333 11.5877037,46.5132593 L11.5877037,41.6487407 C12.5271111,41.9043704 13.5395556,42.1360741 14.6074074,42.3476296 L14.6074074,47.2612593 C13.6831111,47.0648148 12.8318519,46.8582963 12.0548889,46.6467407 C11.9314815,46.6127407 11.803037,46.5774815 11.6808889,46.5434815 Z M29.880963,48.8403704 C29.4188148,48.8302963 28.9566667,48.8202222 28.5033333,48.8063704 L28.3308148,48.8013333 C27.7855556,48.7811852 27.239037,48.7622963 26.6988148,48.7320741 L26.6988148,43.7051111 C27.7062222,43.7542222 28.7199259,43.7831852 29.7336296,43.8033333 C29.7877778,43.8033333 29.8419259,43.8033333 29.8960741,43.8033333 C30.1705926,43.8083704 30.4463704,43.8134074 30.7271852,43.8184444 L30.7271852,48.8504444 C30.5307407,48.8504444 30.333037,48.8504444 30.1416296,48.8454074 C30.0534815,48.8454074 29.9640741,48.8403704 29.880963,48.8403704 Z M34.2782963,48.8252593 C34.130963,48.8302963 33.9836296,48.8302963 33.8362963,48.8353333 C33.4761481,48.8454074 33.1071852,48.8454074 32.7432593,48.8504444 L32.7432593,43.8184444 C33.019037,43.8134074 33.2948148,43.8083704 33.5743704,43.8033333 L33.733037,43.7982963 C34.7454815,43.7831852 35.7642222,43.7491852 36.7728889,43.7051111 L36.7728889,48.7320741 C36.5562963,48.7471852 36.3397037,48.7572593 36.1231111,48.7673333 C35.5136296,48.7912593 34.9028889,48.8114074 34.2782963,48.8252593 Z M56.8077037,44.1483704 L56.4677037,44.4480741 C55.9362963,44.9152593 55.0560741,45.3824444 53.895037,45.8345185 L53.895037,41.0342222 C55.0951111,40.6161481 56.1138519,40.154 56.921037,39.6465185 L56.921037,43.8184444 C56.921037,43.9217037 56.8807407,44.03 56.8077037,44.1483704 Z M64.9677037,25.6863704 C64.8644444,23.964963 62.8181481,22.6175556 58.7154815,21.59 C58.854,21.289037 58.9320741,20.9742222 58.9320741,20.6493333 L58.9320741,13.6012593 L58.916963,13.6012593 C58.553037,7.72807407 34.4948889,7.55555556 31.7358519,7.55555556 C28.9705185,7.55555556 4.91237037,7.72807407 4.54844444,13.6012593 L4.53333333,13.6012593 L4.53333333,20.6493333 C4.53837037,22.5634074 7.00777778,24.0631852 10.6822963,25.1801481 C10.6331852,25.3476296 10.602963,25.5151111 10.5928889,25.6863704 L10.579037,25.6863704 L10.579037,32.7256296 C6.61866667,33.7494074 4.64162963,35.0766667 4.54340741,36.7691111 L4.53333333,36.7691111 L4.53333333,43.8234815 C4.53837037,45.1557778 5.73844444,46.2828148 7.70666667,47.2272593 C7.63237037,47.4287407 7.58325926,47.6402963 7.56814815,47.8518519 L7.55303704,47.8518519 L7.55303704,54.9062222 C7.56311111,58.2558519 15.1085926,60.3361481 23.4914815,61.3057778 C23.5506667,61.3196296 23.6085926,61.3448148 23.6728148,61.3448148 C23.692963,61.3448148 23.7080741,61.3347407 23.726963,61.3297037 C25.3451111,61.5122963 26.9884444,61.6545926 28.6116296,61.7578519 C28.6456296,61.7628889 28.6758519,61.778 28.7098519,61.778 C28.73,61.778 28.7451111,61.7679259 28.764,61.7679259 C30.8254074,61.8900741 32.8565926,61.9542963 34.7555556,61.9542963 C36.6545185,61.9542963 38.6857037,61.8900741 40.7471111,61.7679259 C40.766,61.7679259 40.7811111,61.778 40.8012593,61.778 C40.8352593,61.778 40.8654815,61.7578519 40.8994815,61.7578519 C42.5226667,61.6545926 44.166,61.5122963 45.7841481,61.3297037 C45.803037,61.3297037 45.8181481,61.3397778 45.8382963,61.3397778 C45.9025185,61.3397778 45.9604444,61.3145926 46.0196296,61.3057778 C54.4025185,60.3311111 61.948,58.2508148 61.9580741,54.9011852 L61.9580741,47.8518519 L61.9379259,47.8518519 C61.8686667,46.6165185 60.8159259,45.5839259 58.7356296,44.7238519 C58.8640741,44.432963 58.9320741,44.1332593 58.9320741,43.8184444 L58.9320741,37.2312593 C62.5474074,36.1205926 64.9727407,34.6346667 64.9777778,32.7357037 L64.9777778,25.6863704 L64.9677037,25.6863704 L64.9677037,25.6863704 Z" id="coins"></path>
                    </g>
                    <g id="paramètres" stroke-width="1" fill-rule="evenodd" transform="translate(67.500000, 61.500000)">
                        <g id="Group" transform="translate(2.250000, 2.250000)" fill="#001A70" fill-rule="nonzero">
                            <circle id="Oval" cx="15" cy="15" r="11.25"></circle>
                            <rect id="Rectangle" x="22.5" y="11.25" width="7.5" height="7.5" rx="1"></rect>
                            <rect id="Rectangle-Copy" x="0" y="11.25" width="7.5" height="7.5" rx="1"></rect>
                            <rect id="Rectangle-Copy-2" x="11.25" y="0" width="7.5" height="7.5" rx="1"></rect>
                            <path d="M4.31456304,2.37706304 L9.81456304,2.37706304 C10.3668478,2.37706304 10.814563,2.82477829 10.814563,3.37706304 L10.814563,10.752063 C10.814563,11.3043478 10.3668478,11.752063 9.81456304,11.752063 L4.31456304,11.752063 C3.76227829,11.752063 3.31456304,11.3043478 3.31456304,10.752063 L3.31456304,3.37706304 C3.31456304,2.82477829 3.76227829,2.37706304 4.31456304,2.37706304 Z" id="Rectangle-Copy-4" transform="translate(7.064563, 7.064563) rotate(135.000000) translate(-7.064563, -7.064563) "></path>
                            <path d="M20.0912135,2.37706304 L25.5912135,2.37706304 C26.1434982,2.37706304 26.5912135,2.82477829 26.5912135,3.37706304 L26.5912135,10.752063 C26.5912135,11.3043478 26.1434982,11.752063 25.5912135,11.752063 L20.0912135,11.752063 C19.5389287,11.752063 19.0912135,11.3043478 19.0912135,10.752063 L19.0912135,3.37706304 C19.0912135,2.82477829 19.5389287,2.37706304 20.0912135,2.37706304 Z" id="Rectangle-Copy-5" transform="translate(22.841213, 7.064563) rotate(-135.000000) translate(-22.841213, -7.064563) "></path>
                            <path d="M20.0912135,18.1537135 L25.5912135,18.1537135 C26.1434982,18.1537135 26.5912135,18.6014287 26.5912135,19.1537135 L26.5912135,26.5287135 C26.5912135,27.0809982 26.1434982,27.5287135 25.5912135,27.5287135 L20.0912135,27.5287135 C19.5389287,27.5287135 19.0912135,27.0809982 19.0912135,26.5287135 L19.0912135,19.1537135 C19.0912135,18.6014287 19.5389287,18.1537135 20.0912135,18.1537135 Z" id="Rectangle-Copy-6" transform="translate(22.841213, 22.841213) rotate(135.000000) translate(-22.841213, -22.841213) "></path>
                            <path d="M4.31456304,18.1537135 L9.81456304,18.1537135 C10.3668478,18.1537135 10.814563,18.6014287 10.814563,19.1537135 L10.814563,26.5287135 C10.814563,27.0809982 10.3668478,27.5287135 9.81456304,27.5287135 L4.31456304,27.5287135 C3.76227829,27.5287135 3.31456304,27.0809982 3.31456304,26.5287135 L3.31456304,19.1537135 C3.31456304,18.6014287 3.76227829,18.1537135 4.31456304,18.1537135 Z" id="Rectangle-Copy-7" transform="translate(7.064563, 22.841213) rotate(-135.000000) translate(-7.064563, -22.841213) "></path>
                            <rect id="Rectangle-Copy-3" x="11.25" y="22.5" width="7.5" height="7.5" rx="1"></rect>
                        </g>
                        <g id="Oval" fill-rule="nonzero">
                            <use fill="black" fill-opacity="1" filter="url(#filter-2)" xlink:href="#path-1"></use>
                            <use fill="#FFFFFF" xlink:href="#path-1"></use>
                        </g>
                    </g>
                </g>
            </g>
        </g>
    </g>
</svg>