<?xml version="1.0" encoding="UTF-8"?>
<svg width="58px" height="58px" viewBox="0 0 58 58" version="1.1" xmlns="http://www.w3.org/2000/svg" xmlns:xlink="http://www.w3.org/1999/xlink">
    <!-- Generator: Sketch 54.1 (76490) - https://sketchapp.com -->
    <title>Administrateur</title>
    <desc>Created with Sketch.</desc>
    <defs>
        <circle id="path-1" cx="25" cy="25" r="25"></circle>
        <filter x="-12.0%" y="-12.0%" width="124.0%" height="124.0%" filterUnits="objectBoundingBox" id="filter-3">
            <feMorphology radius="2" operator="erode" in="SourceAlpha" result="shadowSpreadOuter1"></feMorphology>
            <feOffset dx="0" dy="0" in="shadowSpreadOuter1" result="shadowOffsetOuter1"></feOffset>
            <feGaussianBlur stdDeviation="4" in="shadowOffsetOuter1" result="shadowBlurOuter1"></feGaussianBlur>
            <feColorMatrix values="0 0 0 0 0   0 0 0 0 0   0 0 0 0 0  0 0 0 0.5 0" type="matrix" in="shadowBlurOuter1"></feColorMatrix>
        </filter>
        <path d="M5.120625,5.25090278 C5.120625,3.04881944 6.91229167,1.25715278 9.114375,1.25715278 C11.3178472,1.25715278 13.1088194,3.04881944 13.1088194,5.25090278 C13.1088194,7.45298611 11.3178472,9.24465278 9.114375,9.24465278 C6.91229167,9.24465278 5.120625,7.45298611 5.120625,5.25090278 L5.120625,5.25090278 Z M12.801875,10.035625 C12.6928472,9.98701389 12.5872917,9.93284722 12.476875,9.88840278 C12.3539583,9.83979167 12.2650694,9.72868056 12.2449306,9.59743056 C12.2247917,9.46756944 12.2754861,9.33423611 12.3782639,9.24881944 C13.5859028,8.26409722 14.2789583,6.80645833 14.2789583,5.25090278 C14.2789583,2.40298611 11.9622917,0.0870138889 9.114375,0.0870138889 C6.26715278,0.0870138889 3.95048611,2.40298611 3.95048611,5.25090278 C3.95048611,6.80576389 4.64354167,8.26270833 5.851875,9.24951389 C5.95395833,9.33423611 6.00465278,9.46756944 5.98451389,9.59604167 C5.96506944,9.72798611 5.87618056,9.83979167 5.75256944,9.88840278 C4.62270833,10.3411806 3.60534722,11.0134028 2.73034722,11.8884028 C1.05604167,13.5627083 0.120625,15.779375 0.0865972222,18.1425694 L1.258125,18.1425694 C1.326875,13.8696528 4.82479167,10.4147917 9.114375,10.4147917 C10.020625,10.4147917 10.8879861,10.5752083 11.6984028,10.8585417 L12.801875,10.035625 Z" id="path-4"></path>
        <path d="M5.62215792,4.65043404 C5.62215792,5.18603671 5.18621033,5.62215792 4.65043404,5.62215792 C4.11396329,5.62215792 3.67784208,5.18603671 3.67784208,4.65043404 C3.67784208,4.11396329 4.11396329,3.67784208 4.65043404,3.67784208 C5.18621033,3.67784208 5.62215792,4.11396329 5.62215792,4.65043404 Z M8.01422718,3.8169078 L7.31230121,3.8169078 C7.19962499,3.8169078 7.1067409,3.75440635 7.06333711,3.65075812 C7.02062779,3.54624181 7.04232968,3.43634343 7.1216718,3.35700132 L7.61803745,2.86063566 C7.69060858,2.78806454 7.73071367,2.69101368 7.73071367,2.58805991 C7.73071367,2.48493252 7.69060858,2.38788166 7.61803745,2.31461608 L6.98538392,1.68196255 C6.83954721,1.53612584 6.58520105,1.53612584 6.43936434,1.68196255 L5.94299868,2.1783282 C5.87719855,2.24412834 5.80462742,2.25767032 5.75584157,2.25767032 C5.68587467,2.25767032 5.61677585,2.23058636 5.56590662,2.18318943 C5.52857937,2.14777194 5.4830922,2.08544411 5.4830922,1.9878724 L5.4830922,1.28594643 C5.4830922,1.07292067 5.31017153,0.9 5.09731938,0.9 L4.20268062,0.9 C3.98982847,0.9 3.8169078,1.07292067 3.8169078,1.28594643 L3.8169078,1.9878724 C3.8169078,2.15662631 3.67853654,2.25767032 3.54415843,2.25767032 C3.49537258,2.25767032 3.42280145,2.24412834 3.35700132,2.1783282 L2.86063566,1.68196255 C2.71479895,1.53612584 2.46045279,1.53612584 2.31461608,1.68196255 L1.68196255,2.31461608 C1.60939142,2.3871872 1.56928633,2.48493252 1.56928633,2.58805991 C1.56928633,2.69101368 1.60939142,2.78806454 1.68196255,2.86063566 L2.1783282,3.35700132 C2.25767032,3.43634343 2.27937221,3.54624181 2.23666289,3.65075812 C2.1932591,3.75440635 2.10037501,3.8169078 1.9878724,3.8169078 L1.28594643,3.8169078 C1.07292067,3.8169078 0.9,3.98982847 0.9,4.20268062 L0.9,5.09731938 C0.9,5.31017153 1.07292067,5.4830922 1.28594643,5.4830922 L1.9878724,5.4830922 C2.10037501,5.4830922 2.1932591,5.54559365 2.23666289,5.64993634 C2.28006667,5.75375819 2.25767032,5.86365657 2.1783282,5.94299868 L1.68196255,6.43936434 C1.60939142,6.51193546 1.56928633,6.60968078 1.56928633,6.71211371 C1.56928633,6.81576194 1.60939142,6.9128128 1.68196255,6.98538392 L2.31461608,7.61803745 C2.46045279,7.76387416 2.71479895,7.76387416 2.86063566,7.61803745 L3.35700132,7.1216718 C3.42280145,7.05587166 3.49537258,7.04232968 3.54485289,7.04232968 C3.67853654,7.04232968 3.8169078,7.14337369 3.8169078,7.31230121 L3.8169078,8.01422718 C3.8169078,8.22707933 3.98982847,8.4 4.20268062,8.4 L5.09731938,8.4 C5.31017153,8.4 5.4830922,8.22707933 5.4830922,8.01422718 L5.4830922,7.31230121 C5.4830922,7.14337369 5.62146346,7.04232968 5.75584157,7.04232968 C5.80462742,7.04232968 5.87719855,7.05587166 5.94299868,7.1216718 L6.43936434,7.61803745 C6.58520105,7.76387416 6.83954721,7.76387416 6.98538392,7.61803745 L7.61803745,6.98538392 C7.69060858,6.9128128 7.73071367,6.81576194 7.73071367,6.71211371 C7.73071367,6.60968078 7.69060858,6.51262992 7.61803745,6.43936434 L7.1216718,5.94299868 C7.04232968,5.86365657 7.02062779,5.75375819 7.06333711,5.64993634 C7.1067409,5.54559365 7.19962499,5.4830922 7.31230121,5.4830922 L8.01422718,5.4830922 C8.22707933,5.4830922 8.4,5.31017153 8.4,5.09731938 L8.4,4.20268062 C8.4,3.98982847 8.22707933,3.8169078 8.01422718,3.8169078 Z" id="path-6"></path>
    </defs>
    <g id="Première-connexion" stroke="none" stroke-width="1" fill="none" fill-rule="evenodd">
        <g id="Première-connexion---Étape-3" transform="translate(-1142.000000, -16.000000)">
            <g id="Navigation-admin,-user-et-notif" transform="translate(1146.000000, 20.000000)">
                <g id="buttons/round/button_round_small">
                    <g id="admin" stroke-width="1" fill-rule="evenodd">
                        <mask id="mask-2" fill="white">
                            <use xlink:href="#path-1"></use>
                        </mask>
                        <g id="Mask">
                            <use fill="black" fill-opacity="1" filter="url(#filter-3)" xlink:href="#path-1"></use>
                            <use fill="#FFFFFF" fill-rule="evenodd" xlink:href="#path-1"></use>
                        </g>
                        <g id="icon/admin" mask="url(#mask-2)">
                            <g transform="translate(0.000000, -0.000000)" id="Group">
                                <g transform="translate(15.625000, 15.625000)">
                                    <g id="Picto-/-ic/Proprietaire">
                                        <mask id="mask-5" fill="white">
                                            <use xlink:href="#path-4"></use>
                                        </mask>
                                        <use id="Mask" fill="#001A70" fill-rule="nonzero" xlink:href="#path-4"></use>
                                        <path d="M17.9638889,17.5513889 L15.5902778,17.5513889 L15.5902778,15.2166667 C15.5902778,14.9743056 15.3916667,14.7777778 15.1479167,14.7777778 L13.5493056,14.7777778 C13.3055556,14.7777778 13.1069444,14.9743056 13.1069444,15.2166667 L13.1069444,17.5513889 L10.7319444,17.5513889 L10.6770833,13.1548611 L14.35,10.4166667 L17.9638889,13.04375 L17.9638889,17.5513889 Z" id="Path" fill="#001A70" fill-rule="nonzero" mask="url(#mask-5)"></path>
                                    </g>
                                    <g id="Picto-/-ic/Tools" transform="translate(9.895833, 9.895833)">
                                        <mask id="mask-7" fill="white">
                                            <use xlink:href="#path-6"></use>
                                        </mask>
                                        <use id="Mask" fill="#001A70" fill-rule="nonzero" xlink:href="#path-6"></use>
                                    </g>
                                </g>
                            </g>
                        </g>
                    </g>
                    <circle id="Oval" cx="33" cy="15" r="5"></circle>
                </g>
            </g>
        </g>
    </g>
</svg>