<?xml version="1.0" encoding="UTF-8"?>
<svg width="48px" height="48px" viewBox="0 0 48 48" version="1.1" xmlns="http://www.w3.org/2000/svg" xmlns:xlink="http://www.w3.org/1999/xlink">
    <!-- Generator: Sketch 54.1 (76490) - https://sketchapp.com -->
    <title>Group 3</title>
    <desc>Created with Sketch.</desc>
    <defs>
        <circle id="path-1" cx="20" cy="20" r="20"></circle>
        <filter x="-16.2%" y="-13.8%" width="132.5%" height="132.5%" filterUnits="objectBoundingBox" id="filter-2">
            <feMorphology radius="1" operator="erode" in="SourceAlpha" result="shadowSpreadOuter1"></feMorphology>
            <feOffset dx="0" dy="1" in="shadowSpreadOuter1" result="shadowOffsetOuter1"></feOffset>
            <feGaussianBlur stdDeviation="3" in="shadowOffsetOuter1" result="shadowBlurOuter1"></feGaussianBlur>
            <feColorMatrix values="0 0 0 0 0   0 0 0 0 0   0 0 0 0 0  0 0 0 0.5 0" type="matrix" in="shadowBlurOuter1"></feColorMatrix>
        </filter>
    </defs>
    <g id="SYMBOLES" stroke="none" stroke-width="1" fill="none" fill-rule="evenodd">
        <g id="serveurs" transform="translate(-1034.000000, -7.000000)">
            <g id="Group-3" transform="translate(1038.000000, 10.000000)">
                <g id="Oval" fill-rule="nonzero">
                    <use fill="black" fill-opacity="1" filter="url(#filter-2)" xlink:href="#path-1"></use>
                    <use fill="#005BBB" xlink:href="#path-1"></use>
                </g>
                <path d="M28.5908086,25.6707583 L28.5908086,25.6707583 L28.5886961,25.6660949 C28.5879786,25.6637831 28.5866633,25.6616307 28.5858661,25.6593587 C28.5838333,25.6534597 28.5816012,25.6474011 28.5791698,25.6417811 C28.5777349,25.6383133 28.5759811,25.6350449 28.5743868,25.6316569 C28.5721547,25.626834 28.5698429,25.6220111 28.5672919,25.6173078 C28.564741,25.6126045 28.5625488,25.6093361 28.5601174,25.6051509 C28.557686,25.6009657 28.5557329,25.5978567 28.5533414,25.5943093 C28.5501128,25.5895263 28.5466053,25.5849027 28.5430977,25.5803588 C28.5411048,25.577768 28.5391118,25.5750974 28.5371189,25.572387 C28.532854,25.5672054 28.5283101,25.5622629 28.5236865,25.55744 C28.5222516,25.5559652 28.5210558,25.5544108 28.5197006,25.552936 L28.5165917,25.5497871 L28.5157148,25.5489501 L16.4378868,13.4258825 C16.4324261,13.4204218 16.4266466,13.4153199 16.4207874,13.4103376 C16.415805,13.4044783 16.4107828,13.3986191 16.4052425,13.3930787 L14.3806988,11.3610018 C14.1544529,11.1305748 13.8452312,11.0005311 13.5223016,11.0000014 L13.5223016,11.0000014 C13.2116865,10.9995147 12.9138601,11.1236593 12.6955521,11.3446199 L11.3567777,12.6884165 C10.8876007,13.1593472 10.8801472,13.9475932 11.3404356,14.4096752 L13.3649792,16.4418718 C13.3705196,16.447452 13.3763788,16.4525539 13.3823178,16.4575761 C13.3872204,16.4633556 13.3921629,16.4691351 13.3976235,16.4745958 L25.4793975,28.6016094 C25.4810317,28.6032436 25.4828652,28.6046785 25.4845393,28.6062729 C25.4888042,28.6102588 25.4931488,28.6142446 25.4976927,28.6182305 C25.5001639,28.6203032 25.5027946,28.6222164 25.5053456,28.624289 C25.5099293,28.6278763 25.5145529,28.6313839 25.5194157,28.634732 C25.5223254,28.6367249 25.5253546,28.6387179 25.5283839,28.6404717 C25.5330075,28.6433813 25.5376311,28.6462512 25.542454,28.6489217 C25.546121,28.6509146 25.5498677,28.6529076 25.5535746,28.6545418 C25.5579591,28.6566942 25.5623037,28.6588864 25.5668077,28.6608395 C25.5713117,28.6627925 25.5759752,28.6644268 25.5805589,28.6661407 C25.5837078,28.6672966 25.5866573,28.6686518 25.589846,28.669728 L29.4756322,29.9479969 C29.5751037,29.9805874 29.6844476,29.9548809 29.7589779,29.881383 C29.8335083,29.8078851 29.8607375,29.6989104 29.8295377,29.598994 L28.5908086,25.6707583 Z M11.7520964,13.0822206 L13.0909107,11.7384638 C13.2047317,11.6229592 13.3601395,11.5579558 13.5223016,11.5580234 C13.6967876,11.5589828 13.8635993,11.6298828 13.9853801,11.7548457 L15.8463835,13.6227048 L13.595243,15.8822953 L11.7357942,14.0158313 C11.4881121,13.7672723 11.4954063,13.3397079 11.7520964,13.0822206 Z M16.2401875,14.0181431 L27.9281176,25.7499975 L25.6771366,28.0095082 L13.9891268,16.2776539 L16.2401875,14.0181431 Z M26.1940643,28.2811852 L28.1944934,26.2732627 L29.1328871,29.2479982 L26.1940643,28.2811852 Z" id="Shape" fill="#FFFFFF" transform="translate(20.421127, 20.480950) scale(-1, 1) translate(-20.421127, -20.480950) "></path>
            </g>
        </g>
    </g>
</svg>