<?xml version="1.0" encoding="UTF-8"?>
<svg width="21px" height="23px" viewBox="0 0 21 23" version="1.1" xmlns="http://www.w3.org/2000/svg" xmlns:xlink="http://www.w3.org/1999/xlink">
    <!-- Generator: Sketch 54.1 (76490) - https://sketchapp.com -->
    <title>calendar_icon</title>
    <desc>Created with Sketch.</desc>
    <g id="SYMBOLES" stroke="none" stroke-width="1" fill="none" fill-rule="evenodd">
        <g id="offre" transform="translate(-427.000000, -43.000000)" fill="#001A70">
            <g id="Group-3">
                <g id="icon/calendar_icon" transform="translate(427.000000, 43.000000)">
                    <g id="Calendar_font_awesome">
                        <g id="g3027" transform="translate(10.648511, 11.500000) scale(-1, 1) rotate(-180.000000) translate(-10.648511, -11.500000) translate(0.568511, 0.000000)" fill-rule="nonzero">
                            <path d="M1.55076923,1.64285714 L5.04,1.64285714 L5.04,5.33928571 L1.55076923,5.33928571 L1.55076923,1.64285714 Z M5.81538462,1.64285714 L9.69230769,1.64285714 L9.69230769,5.33928571 L5.81538462,5.33928571 L5.81538462,1.64285714 Z M1.55076923,6.16071429 L5.04,6.16071429 L5.04,10.2678571 L1.55076923,10.2678571 L1.55076923,6.16071429 Z M5.81538462,6.16071429 L9.69230769,6.16071429 L9.69230769,10.2678571 L5.81538462,10.2678571 L5.81538462,6.16071429 Z M1.55076923,11.0892857 L5.04,11.0892857 L5.04,14.7857143 L1.55076923,14.7857143 L1.55076923,11.0892857 Z M10.4676923,1.64285714 L14.3446154,1.64285714 L14.3446154,5.33928571 L10.4676923,5.33928571 L10.4676923,1.64285714 Z M5.81538462,11.0892857 L9.69230769,11.0892857 L9.69230769,14.7857143 L5.81538462,14.7857143 L5.81538462,11.0892857 Z M15.12,1.64285714 L18.6092308,1.64285714 L18.6092308,5.33928571 L15.12,5.33928571 L15.12,1.64285714 Z M10.4676923,6.16071429 L14.3446154,6.16071429 L14.3446154,10.2678571 L10.4676923,10.2678571 L10.4676923,6.16071429 Z M6.20307692,17.25 L6.20307692,20.9464286 C6.20307692,21.0576637 6.16471154,21.1539249 6.08798077,21.2352121 C6.01125,21.3164993 5.92038462,21.3571429 5.81538462,21.3571429 L5.04,21.3571429 C4.935,21.3571429 4.84413462,21.3164993 4.76740385,21.2352121 C4.69067308,21.1539249 4.65230769,21.0576637 4.65230769,20.9464286 L4.65230769,17.25 C4.65230769,17.1387649 4.69067308,17.0425037 4.76740385,16.9612165 C4.84413462,16.8799293 4.935,16.8392857 5.04,16.8392857 L5.81538462,16.8392857 C5.92038462,16.8392857 6.01125,16.8799293 6.08798077,16.9612165 C6.16471154,17.0425037 6.20307692,17.1387649 6.20307692,17.25 Z M15.12,6.16071429 L18.6092308,6.16071429 L18.6092308,10.2678571 L15.12,10.2678571 L15.12,6.16071429 Z M10.4676923,11.0892857 L14.3446154,11.0892857 L14.3446154,14.7857143 L10.4676923,14.7857143 L10.4676923,11.0892857 Z M15.12,11.0892857 L18.6092308,11.0892857 L18.6092308,14.7857143 L15.12,14.7857143 L15.12,11.0892857 Z M15.5076923,17.25 L15.5076923,20.9464286 C15.5076923,21.0576637 15.4693269,21.1539249 15.3925962,21.2352121 C15.3158654,21.3164993 15.225,21.3571429 15.12,21.3571429 L14.3446154,21.3571429 C14.2396154,21.3571429 14.14875,21.3164993 14.0720192,21.2352121 C13.9952885,21.1539249 13.9569231,21.0576637 13.9569231,20.9464286 L13.9569231,17.25 C13.9569231,17.1387649 13.9952885,17.0425037 14.0720192,16.9612165 C14.14875,16.8799293 14.2396154,16.8392857 14.3446154,16.8392857 L15.12,16.8392857 C15.225,16.8392857 15.3158654,16.8799293 15.3925962,16.9612165 C15.4693269,17.0425037 15.5076923,17.1387649 15.5076923,17.25 Z M20.16,18.0714286 L20.16,1.64285714 C20.16,1.19791667 20.0065385,0.812872024 19.6996154,0.487723214 C19.3926923,0.162574405 19.0292308,0 18.6092308,0 L1.55076923,0 C1.13076923,0 0.767307692,0.162574405 0.460384615,0.487723214 C0.153461538,0.812872024 0,1.19791667 0,1.64285714 L0,18.0714286 C0,18.516369 0.153461538,18.9014137 0.460384615,19.2265625 C0.767307692,19.5517113 1.13076923,19.7142857 1.55076923,19.7142857 L3.10153846,19.7142857 L3.10153846,20.9464286 C3.10153846,21.5111607 3.29134615,21.9946057 3.67096154,22.3967634 C4.05057692,22.7989211 4.50692308,23 5.04,23 L5.81538462,23 C6.34846154,23 6.80480769,22.7989211 7.18442308,22.3967634 C7.56403846,21.9946057 7.75384615,21.5111607 7.75384615,20.9464286 L7.75384615,19.7142857 L12.4061538,19.7142857 L12.4061538,20.9464286 C12.4061538,21.5111607 12.5959615,21.9946057 12.9755769,22.3967634 C13.3551923,22.7989211 13.8115385,23 14.3446154,23 L15.12,23 C15.6530769,23 16.1094231,22.7989211 16.4890385,22.3967634 C16.8686538,21.9946057 17.0584615,21.5111607 17.0584615,20.9464286 L17.0584615,19.7142857 L18.6092308,19.7142857 C19.0292308,19.7142857 19.3926923,19.5517113 19.6996154,19.2265625 C20.0065385,18.9014137 20.16,18.516369 20.16,18.0714286 Z" id="path3029"></path>
                        </g>
                    </g>
                </g>
            </g>
        </g>
    </g>
</svg>