<?xml version="1.0" encoding="UTF-8"?>
<svg width="35px" height="34px" viewBox="0 0 35 34" version="1.1" xmlns="http://www.w3.org/2000/svg" xmlns:xlink="http://www.w3.org/1999/xlink">
    <!-- Generator: Sketch 54.1 (76490) - https://sketchapp.com -->
    <title>Combined Shape</title>
    <desc>Created with Sketch.</desc>
    <g id="SYMBOLES" stroke="none" stroke-width="1" fill="none" fill-rule="evenodd">
        <g id="serveurs" transform="translate(-40.000000, -13.000000)" fill="#4C4C4C" fill-rule="nonzero">
            <path d="M46.5,16 C47.8783333,16 49,17.1216667 49,18.5 C49,19.8783333 47.8783333,21 46.5,21 C45.1216667,21 44,19.8783333 44,18.5 C44,17.1216667 45.1216667,16 46.5,16 Z M46.5,19.8888889 C47.2655556,19.8888889 47.8888889,19.2661111 47.8888889,18.5 C47.8888889,17.7338889 47.2655556,17.1111111 46.5,17.1111111 C45.7344444,17.1111111 45.1111111,17.7338889 45.1111111,18.5 C45.1111111,19.2661111 45.7344444,19.8888889 46.5,19.8888889 Z M69.5,18 C69.2238576,18 69,17.7761424 69,17.5 C69,17.2238576 69.2238576,17 69.5,17 C69.7761424,17 70,17.2238576 70,17.5 C70,17.7761424 69.7761424,18 69.5,18 Z M66.5,18 C66.2238576,18 66,17.7761424 66,17.5 C66,17.2238576 66.2238576,17 66.5,17 C66.7761424,17 67,17.2238576 67,17.5 C67,17.7761424 66.7761424,18 66.5,18 Z M70.5,20 C70.2238576,20 70,19.7761424 70,19.5 C70,19.2238576 70.2238576,19 70.5,19 C70.7761424,19 71,19.2238576 71,19.5 C71,19.7761424 70.7761424,20 70.5,20 Z M68.5,20 C68.2238576,20 68,19.7761424 68,19.5 C68,19.2238576 68.2238576,19 68.5,19 C68.7761424,19 69,19.2238576 69,19.5 C69,19.7761424 68.7761424,20 68.5,20 Z M64.5,18 C64.2238576,18 64,17.7761424 64,17.5 C64,17.2238576 64.2238576,17 64.5,17 C64.7761424,17 65,17.2238576 65,17.5 C65,17.7761424 64.7761424,18 64.5,18 Z M65.5,20 C65.2238576,20 65,19.7761424 65,19.5 C65,19.2238576 65.2238576,19 65.5,19 C65.7761424,19 66,19.2238576 66,19.5 C66,19.7761424 65.7761424,20 65.5,20 Z M62.5,18 C62.2238576,18 62,17.7761424 62,17.5 C62,17.2238576 62.2238576,17 62.5,17 C62.7761424,17 63,17.2238576 63,17.5 C63,17.7761424 62.7761424,18 62.5,18 Z M63.5,20 C63.2238576,20 63,19.7761424 63,19.5 C63,19.2238576 63.2238576,19 63.5,19 C63.7761424,19 64,19.2238576 64,19.5 C64,19.7761424 63.7761424,20 63.5,20 Z M59.5,18 C59.2238576,18 59,17.7761424 59,17.5 C59,17.2238576 59.2238576,17 59.5,17 C59.7761424,17 60,17.2238576 60,17.5 C60,17.7761424 59.7761424,18 59.5,18 Z M61.5,20 C61.2238576,20 61,19.7761424 61,19.5 C61,19.2238576 61.2238576,19 61.5,19 C61.7761424,19 62,19.2238576 62,19.5 C62,19.7761424 61.7761424,20 61.5,20 Z M75,22.4462373 C75,23.2922034 74.5899167,24.0390508 73.9634167,24.5254237 C74.5899167,25.0117966 75,25.7580678 75,26.6046102 L75,33.3953898 C75,34.2413559 74.5899167,34.9882034 73.9628333,35.4745763 C74.5893333,35.9609492 74.9994167,36.7072203 74.9994167,37.5537627 L74.9994167,44.3445424 C74.9994167,45.8088475 73.7936667,47 72.3114167,47 L42.688,47 C41.20575,47 40,45.8088475 40,44.3439661 L40,37.5537627 C40,36.7077966 40.4100833,35.9609492 41.0365833,35.474 C40.4100833,34.9876271 40,34.2413559 40,33.3948136 L40,26.6046102 C40,25.7586441 40.4100833,25.0117966 41.0365833,24.5248475 C40.4100833,24.0384746 40,23.2922034 40,22.445661 L40,15.6554576 C40,14.1911525 41.20575,13 42.688,13 L72.312,13 C73.79425,13 75,14.1911525 75,15.6554576 L75,22.4462373 Z M73.8333333,37.5537627 C73.8333333,36.7250847 73.1508333,36.0508475 72.3114167,36.0508475 L42.688,36.0508475 C41.8491667,36.0508475 41.1666667,36.7250847 41.1666667,37.5537627 L41.1666667,44.3445424 C41.1666667,45.1732203 41.8491667,45.8474576 42.688,45.8468814 L72.312,45.8468814 C73.1508333,45.8468814 73.8333333,45.1726441 73.8333333,44.3439661 L73.8333333,37.5537627 Z M73.8333333,26.6046102 C73.8333333,25.7759322 73.1508333,25.1016949 72.3114167,25.1016949 L42.688,25.1016949 C41.8491667,25.1016949 41.1666667,25.7759322 41.1666667,26.6046102 L41.1666667,33.3953898 C41.1666667,34.2240678 41.8491667,34.8983051 42.688,34.8977288 L72.312,34.8977288 C73.1508333,34.8977288 73.8333333,34.2234915 73.8333333,33.3948136 L73.8333333,26.6046102 Z M42.688,23.9491525 L42.688,23.9485763 L72.312,23.9485763 C73.1508333,23.9485763 73.8333333,23.274339 73.8333333,22.445661 L73.8333333,15.6554576 C73.8333333,14.8267797 73.1508333,14.1525424 72.3114167,14.1525424 L42.688,14.1525424 C41.8491667,14.1525424 41.1666667,14.8267797 41.1666667,15.6554576 L41.1666667,22.4462373 C41.1666667,23.2749153 41.8491667,23.9491525 42.688,23.9491525 Z M46.5,32 C45.1216667,32 44,30.8783333 44,29.5 C44,28.1216667 45.1216667,27 46.5,27 C47.8783333,27 49,28.1216667 49,29.5 C49,30.8783333 47.8783333,32 46.5,32 Z M46.5,28.1111111 C45.7344444,28.1111111 45.1111111,28.7338889 45.1111111,29.5 C45.1111111,30.2661111 45.7344444,30.8888889 46.5,30.8888889 C47.2655556,30.8888889 47.8888889,30.2661111 47.8888889,29.5 C47.8888889,28.7338889 47.2655556,28.1111111 46.5,28.1111111 Z M69.5,29 C69.2238576,29 69,28.7761424 69,28.5 C69,28.2238576 69.2238576,28 69.5,28 C69.7761424,28 70,28.2238576 70,28.5 C70,28.7761424 69.7761424,29 69.5,29 Z M66.5,29 C66.2238576,29 66,28.7761424 66,28.5 C66,28.2238576 66.2238576,28 66.5,28 C66.7761424,28 67,28.2238576 67,28.5 C67,28.7761424 66.7761424,29 66.5,29 Z M70.5,31 C70.2238576,31 70,30.7761424 70,30.5 C70,30.2238576 70.2238576,30 70.5,30 C70.7761424,30 71,30.2238576 71,30.5 C71,30.7761424 70.7761424,31 70.5,31 Z M68.5,31 C68.2238576,31 68,30.7761424 68,30.5 C68,30.2238576 68.2238576,30 68.5,30 C68.7761424,30 69,30.2238576 69,30.5 C69,30.7761424 68.7761424,31 68.5,31 Z M64.5,29 C64.2238576,29 64,28.7761424 64,28.5 C64,28.2238576 64.2238576,28 64.5,28 C64.7761424,28 65,28.2238576 65,28.5 C65,28.7761424 64.7761424,29 64.5,29 Z M65.5,31 C65.2238576,31 65,30.7761424 65,30.5 C65,30.2238576 65.2238576,30 65.5,30 C65.7761424,30 66,30.2238576 66,30.5 C66,30.7761424 65.7761424,31 65.5,31 Z M62.5,29 C62.2238576,29 62,28.7761424 62,28.5 C62,28.2238576 62.2238576,28 62.5,28 C62.7761424,28 63,28.2238576 63,28.5 C63,28.7761424 62.7761424,29 62.5,29 Z M63.5,31 C63.2238576,31 63,30.7761424 63,30.5 C63,30.2238576 63.2238576,30 63.5,30 C63.7761424,30 64,30.2238576 64,30.5 C64,30.7761424 63.7761424,31 63.5,31 Z M59.5,29 C59.2238576,29 59,28.7761424 59,28.5 C59,28.2238576 59.2238576,28 59.5,28 C59.7761424,28 60,28.2238576 60,28.5 C60,28.7761424 59.7761424,29 59.5,29 Z M61.5,31 C61.2238576,31 61,30.7761424 61,30.5 C61,30.2238576 61.2238576,30 61.5,30 C61.7761424,30 62,30.2238576 62,30.5 C62,30.7761424 61.7761424,31 61.5,31 Z M46.5,43 C45.1216667,43 44,41.8783333 44,40.5 C44,39.1216667 45.1216667,38 46.5,38 C47.8783333,38 49,39.1216667 49,40.5 C49,41.8783333 47.8783333,43 46.5,43 Z M46.5,39.1111111 C45.7344444,39.1111111 45.1111111,39.7338889 45.1111111,40.5 C45.1111111,41.2661111 45.7344444,41.8888889 46.5,41.8888889 C47.2655556,41.8888889 47.8888889,41.2661111 47.8888889,40.5 C47.8888889,39.7338889 47.2655556,39.1111111 46.5,39.1111111 Z M69.5,40 C69.2238576,40 69,39.7761424 69,39.5 C69,39.2238576 69.2238576,39 69.5,39 C69.7761424,39 70,39.2238576 70,39.5 C70,39.7761424 69.7761424,40 69.5,40 Z M66.5,40 C66.2238576,40 66,39.7761424 66,39.5 C66,39.2238576 66.2238576,39 66.5,39 C66.7761424,39 67,39.2238576 67,39.5 C67,39.7761424 66.7761424,40 66.5,40 Z M70.5,42 C70.2238576,42 70,41.7761424 70,41.5 C70,41.2238576 70.2238576,41 70.5,41 C70.7761424,41 71,41.2238576 71,41.5 C71,41.7761424 70.7761424,42 70.5,42 Z M68.5,42 C68.2238576,42 68,41.7761424 68,41.5 C68,41.2238576 68.2238576,41 68.5,41 C68.7761424,41 69,41.2238576 69,41.5 C69,41.7761424 68.7761424,42 68.5,42 Z M64.5,40 C64.2238576,40 64,39.7761424 64,39.5 C64,39.2238576 64.2238576,39 64.5,39 C64.7761424,39 65,39.2238576 65,39.5 C65,39.7761424 64.7761424,40 64.5,40 Z M65.5,42 C65.2238576,42 65,41.7761424 65,41.5 C65,41.2238576 65.2238576,41 65.5,41 C65.7761424,41 66,41.2238576 66,41.5 C66,41.7761424 65.7761424,42 65.5,42 Z M62.5,40 C62.2238576,40 62,39.7761424 62,39.5 C62,39.2238576 62.2238576,39 62.5,39 C62.7761424,39 63,39.2238576 63,39.5 C63,39.7761424 62.7761424,40 62.5,40 Z M63.5,42 C63.2238576,42 63,41.7761424 63,41.5 C63,41.2238576 63.2238576,41 63.5,41 C63.7761424,41 64,41.2238576 64,41.5 C64,41.7761424 63.7761424,42 63.5,42 Z M59.5,40 C59.2238576,40 59,39.7761424 59,39.5 C59,39.2238576 59.2238576,39 59.5,39 C59.7761424,39 60,39.2238576 60,39.5 C60,39.7761424 59.7761424,40 59.5,40 Z M61.5,42 C61.2238576,42 61,41.7761424 61,41.5 C61,41.2238576 61.2238576,41 61.5,41 C61.7761424,41 62,41.2238576 62,41.5 C62,41.7761424 61.7761424,42 61.5,42 Z" id="Combined-Shape"></path>
        </g>
    </g>
</svg>