<?xml version="1.0" encoding="UTF-8"?>
<svg width="10px" height="10px" viewBox="0 0 10 10" version="1.1" xmlns="http://www.w3.org/2000/svg" xmlns:xlink="http://www.w3.org/1999/xlink">
    <!-- Generator: Sketch 54.1 (76490) - https://sketchapp.com -->
    <title>Path</title>
    <desc>Created with Sketch.</desc>
    <g id="SYMBOLES" stroke="none" stroke-width="1" fill="none" fill-rule="evenodd">
        <g id="drag_item_close" transform="translate(-242.000000, -8.000000)" fill="#001A70">
            <path d="M248.188485,13.0000235 L251.753853,9.43465175 C252.082049,9.10645501 252.082049,8.57434431 251.753853,8.24619451 C251.425656,7.91799777 250.893593,7.91799777 250.565397,8.24619451 L246.999982,11.8116132 L243.434568,8.24614756 C243.106372,7.91795081 242.574308,7.91795081 242.246112,8.24614756 C241.917963,8.57434431 241.917963,9.10645501 242.246112,9.4346048 L245.811527,12.9999765 L242.246112,16.5653952 C241.917963,16.8935919 241.917963,17.4257026 242.246112,17.7538524 C242.574308,18.0820492 243.106372,18.0820492 243.434568,17.7538524 L246.999982,14.1884338 L250.565397,17.7538524 C250.893546,18.0820492 251.425656,18.0820492 251.753853,17.7538524 C252.082049,17.4256557 252.082049,16.8935919 251.753853,16.5653952 L248.188485,13.0000235 Z" id="Path"></path>
        </g>
    </g>
</svg>