<?xml version="1.0" encoding="UTF-8"?>
<svg width="80px" height="80px" viewBox="0 0 80 80" version="1.1" xmlns="http://www.w3.org/2000/svg" xmlns:xlink="http://www.w3.org/1999/xlink">
    <!-- Generator: Sketch 54.1 (76490) - https://sketchapp.com -->
    <title>menu/icon/écarts</title>
    <desc>Created with Sketch.</desc>
    <g id="menu/icon/écarts" stroke="none" stroke-width="1" fill="none" fill-rule="evenodd">
        <path d="M16,50 L62,50 L62,47.8216732 C62,47.2693884 62.4477153,46.8216732 63,46.8216732 C63.190184,46.8216732 63.3764246,46.8759065 63.5368755,46.9780117 L71.6742462,52.1563385 C72.1401876,52.4528467 72.2775404,53.0709341 71.9810322,53.5368755 C71.9024535,53.6603563 71.797727,53.7650828 71.6742462,53.8436615 L63.5368755,59.0219883 C63.0709341,59.3184965 62.4528467,59.1811437 62.1563385,58.7152023 C62.0542334,58.5547514 62,58.3685109 62,58.1783268 L62,56 L16,56 L16,58.1783268 C16,58.7306116 15.5522847,59.1783268 15,59.1783268 C14.809816,59.1783268 14.6235754,59.1240935 14.4631245,59.0219883 L6.32575377,53.8436615 C5.85981239,53.5471533 5.72245962,52.9290659 6.01896777,52.4631245 C6.09754646,52.3396437 6.20227296,52.2349172 6.32575377,52.1563385 L14.4631245,46.9780117 C14.9290659,46.6815035 15.5471533,46.8188563 15.8436615,47.2847977 C15.9457666,47.4452486 16,47.6314891 16,47.8216732 L16,50 Z" id="Combined-Shape" fill="#001A70" fill-rule="nonzero"></path>
        <g id="icon/coins" transform="translate(18.000000, 18.000000)" fill="#001A70" fill-rule="nonzero">
            <path d="M39.6666667,23.0108333 L39.6666667,19.8208333 C40.4608333,19.5441667 41.135,19.2383333 41.665,18.9033333 L41.665,21.6633333 C41.665,22.0375 40.9625,22.5258333 39.6666667,23.0108333 Z M39.6566667,31.7183333 C39.585,32.1683333 38.56,32.7666667 36.74,33.33 C34.3833333,34.0591667 30.6916667,34.7266667 26.0141667,34.935 C25.7733333,34.945 25.5358333,34.9541667 25.2916667,34.9608333 C25.0933333,34.9675 24.8908333,34.9741667 24.6891667,34.9808333 C24.1358333,34.99 23.5758333,35 23,35 C22.4241667,35 21.8608333,34.99 21.3108333,34.9775 C21.1083333,34.9741667 20.91,34.9675 20.7116667,34.9608333 C20.4675,34.9508333 20.2266667,34.9416667 19.9858333,34.9316667 C15.3083333,34.7266667 11.6166667,34.0591667 9.26,33.33 C7.49583333,32.7866667 6.47666667,32.2066667 6.35,31.7608333 C6.54833333,31.8291667 6.75333333,31.8975 6.965,31.9625 C6.9875,31.9691667 7.0075,31.9758333 7.03,31.9825 C7.20916667,32.0375 7.39416667,32.09 7.58333333,32.1416667 C7.655,32.1616667 7.72666667,32.1841667 7.79833333,32.2008333 C7.90583333,32.23 8.01333333,32.2591667 8.12333333,32.285 C10.5516667,32.9066667 13.6508333,33.3491667 16.9975,33.5483333 C16.9975,33.5483333 16.9975,33.5483333 17.0008333,33.5483333 C18.0358333,33.6066667 19.0908333,33.6458333 20.1583333,33.6591667 C20.4416667,33.665 20.725,33.665 21.0016667,33.665 C21.3658333,33.665 21.7433333,33.6616667 22.1241667,33.6558333 C23.0975,33.6391667 24.0575,33.6033333 24.995,33.5483333 C24.9983333,33.5483333 24.9983333,33.5483333 25.0016667,33.5483333 C25.005,33.5483333 25.005,33.5483333 25.0083333,33.5483333 C26.1508333,33.4766667 27.2575,33.3791667 28.3225,33.2583333 C28.3258333,33.2583333 28.3283333,33.2583333 28.335,33.2583333 C28.3483333,33.2583333 28.3616667,33.2516667 28.3741667,33.2516667 C29.5591667,33.115 30.6825,32.9458333 31.7241667,32.7508333 C31.9391667,32.7116667 32.15,32.6725 32.3583333,32.63 C32.4075,32.62 32.4533333,32.6108333 32.4983333,32.6008333 C34.4683333,32.1975 36.1708333,31.6733333 37.3425,31.025 C37.4041667,30.9883333 37.4658333,30.9533333 37.525,30.9183333 C37.6,30.8758333 37.6708333,30.83 37.74,30.7841667 C37.805,30.7425 37.8766667,30.7033333 37.935,30.6608333 C39.2533333,31.1291667 39.6141667,31.5491667 39.6566667,31.7183333 Z M37.6683333,37.6791667 L37.6683333,34.4891667 C38.4591667,34.2125 39.1325,33.9058333 39.6666667,33.5708333 L39.6666667,36.3283333 C39.6666667,36.7058333 38.9633333,37.1941667 37.6683333,37.6791667 Z M6.33333333,36.3316667 L6.33333333,33.5708333 C6.8675,33.9058333 7.54083333,34.2125 8.33166667,34.4891667 L8.33166667,37.6791667 C7.03666667,37.1941667 6.33333333,36.7058333 6.33333333,36.3316667 Z M4.335,28.9975 L4.335,26.2366667 C4.865,26.5725 5.53916667,26.8783333 6.33333333,27.155 L6.33333333,30.3316667 L5.9525,30.1858333 L5.94583333,30.1916667 C4.8975,29.7591667 4.335,29.3325 4.335,28.9975 Z M7.56416667,22.8908333 C7.57333333,22.9 7.58666667,22.91 7.6,22.92 C8.51083333,23.8408333 10.3991667,24.5666667 12.7525,25.1075 C12.8083333,25.1175 12.8633333,25.13 12.9183333,25.1433333 C13.0908333,25.1825 13.2666667,25.2216667 13.4458333,25.2575 C15.6041667,25.7158333 18.1858333,26.0483333 20.995,26.2141667 C20.9983333,26.2141667 20.9983333,26.2141667 20.9983333,26.2141667 C21.0016667,26.2141667 21.0016667,26.2141667 21.0016667,26.2141667 C21.9066667,26.2658333 22.8275,26.3008333 23.7716667,26.3183333 C24.1883333,26.3283333 24.5983333,26.335 24.9983333,26.335 C25.4608333,26.335 25.9325,26.3283333 26.4116667,26.315 C27.2841667,26.2991667 28.1433333,26.2633333 28.9891667,26.2141667 C28.9925,26.2141667 28.9958333,26.2141667 28.9991667,26.2141667 C29.0058333,26.2141667 29.0091667,26.2108333 29.0158333,26.2108333 C31.835,26.045 34.4775,25.71 36.7141667,25.2275 C36.2291667,25.4783333 35.565,25.7425 34.7416667,25.9958333 C32.2516667,26.7675 28.2733333,27.4675 23.2216667,27.63 C23.0716667,27.6333333 22.9216667,27.64 22.7691667,27.6433333 C22.6058333,27.6466667 22.44,27.65 22.2741667,27.6533333 C21.8541667,27.6591667 21.4341667,27.6658333 21.0016667,27.6658333 C20.4216667,27.6658333 19.8616667,27.6591667 19.3116667,27.6466667 C19.1066667,27.64 18.9083333,27.6333333 18.7066667,27.6266667 C18.4625,27.62 18.225,27.6108333 17.9866667,27.6008333 C13.3091667,27.3925 9.6175,26.725 7.2575,25.9958333 C5.425,25.43 4.4,24.8275 4.34083333,24.375 C4.41583333,24.1241667 5.09,23.4958333 7.56416667,22.8908333 Z M4.335,13.665 L4.335,10.905 C4.865,11.24 5.53916667,11.5458333 6.33333333,11.82 L6.33333333,15.0133333 C5.0375,14.5283333 4.335,14.04 4.335,13.665 Z M21.0016667,6.335 C31.9941667,6.335 37.5541667,8.06333333 37.6583333,9.05583333 C37.5766667,9.50833333 36.5516667,10.1041667 34.7416667,10.6641667 C32.3816667,11.3933333 28.69,12.0608333 24.0158333,12.2658333 C23.775,12.275 23.5375,12.285 23.2933333,12.295 C23.0908333,12.3016667 22.8925,12.3083333 22.6908333,12.3108333 C22.1375,12.3241667 21.5775,12.3341667 21.0016667,12.3341667 C20.4216667,12.3341667 19.8616667,12.3241667 19.3116667,12.3108333 C19.1066667,12.3083333 18.9083333,12.3016667 18.7066667,12.295 C18.4625,12.285 18.225,12.275 17.9866667,12.2658333 C13.3091667,12.0608333 9.6175,11.3933333 7.2575,10.6641667 C5.44833333,10.1041667 4.4225,9.50833333 4.34416667,9.05583333 C4.44833333,8.06333333 10.0083333,6.335 21.0016667,6.335 Z M41.6591667,17.0441667 C41.5966667,17.4966667 40.5716667,18.0991667 38.7425,18.665 C36.3825,19.3916667 32.6908333,20.0583333 28.0133333,20.2666667 C27.775,20.2766667 27.5341667,20.2866667 27.2933333,20.2958333 C27.0916667,20.3025 26.8933333,20.3058333 26.6883333,20.3125 C26.1383333,20.3258333 25.5783333,20.3316667 24.9983333,20.3316667 C24.4225,20.3316667 23.8625,20.3258333 23.3091667,20.3125 C23.1075,20.3058333 22.9091667,20.2991667 22.7066667,20.2933333 C22.4625,20.2866667 22.225,20.2766667 21.9841667,20.2666667 C17.31,20.0583333 13.6183333,19.3916667 11.2583333,18.6625 C9.44166667,18.1025 8.42,17.5033333 8.34166667,17.0541667 C8.345,17.0408333 8.345,17.0308333 8.355,17.015 C8.4,17.025 8.44916667,17.0341667 8.495,17.0475 C8.755,17.1091667 9.025,17.1683333 9.29583333,17.2266667 C10.6208333,17.51 12.0883333,17.7441667 13.6508333,17.9233333 C13.6575,17.9233333 13.6608333,17.9266667 13.6675,17.9266667 L13.6708333,17.9266667 C14.735,18.0466667 15.8416667,18.1416667 16.975,18.21 C16.9841667,18.21 16.9908333,18.2158333 17.0008333,18.2158333 C17.0041667,18.2158333 17.0075,18.2125 17.0133333,18.2125 C17.8308333,18.2583333 18.6575,18.2941667 19.4941667,18.3141667 C20.005,18.3266667 20.51,18.3333333 21.0016667,18.3333333 C21.35,18.3333333 21.7075,18.33 22.0725,18.3233333 C26.9158333,18.2483333 31.405,17.6725 34.5266667,16.7808333 C34.6733333,16.7383333 34.8133333,16.6958333 34.95,16.6533333 C35.0341667,16.6275 35.1225,16.605 35.2041667,16.5791667 C35.445,16.5008333 35.6758333,16.4191667 35.9,16.3375 C35.9391667,16.325 35.975,16.3083333 36.0141667,16.2958333 C36.2033333,16.2241667 36.385,16.1491667 36.5583333,16.0741667 C36.6066667,16.0516667 36.6591667,16.0283333 36.7075,16.0091667 C36.8933333,15.9241667 37.0725,15.84 37.2383333,15.7516667 C37.31,15.7125 37.375,15.6708333 37.4466667,15.6316667 C37.525,15.5858333 37.6058333,15.5375 37.6808333,15.4916667 C37.7233333,15.4658333 37.7725,15.4391667 37.8108333,15.4133333 C40.7958333,16.0583333 41.5841667,16.7675 41.6591667,17.0441667 Z M38.0425,23.5316667 C37.71,23.6233333 37.3583333,23.7108333 37.0008333,23.7958333 C36.835,23.835 36.665,23.87 36.4925,23.9091667 C36.4408333,23.9191667 36.385,23.9325 36.3333333,23.9416667 L36.3333333,20.69 C37.0433333,20.55 37.71,20.3975 38.335,20.2275 L38.335,23.4508333 C38.2375,23.4766667 38.14,23.5025 38.0425,23.5316667 Z M30.425,24.7816667 C30.1741667,24.8016667 29.9175,24.8141667 29.6666667,24.8341667 L29.6666667,21.5133333 C30.3433333,21.4683333 31.0108333,21.4158333 31.665,21.3508333 L31.665,24.6583333 C31.2783333,24.7008333 30.8941667,24.7383333 30.4933333,24.775 C30.4708333,24.775 30.4483333,24.7783333 30.425,24.7816667 Z M34.9366667,24.2125 C34.6441667,24.2608333 34.3508333,24.3133333 34.0483333,24.3583333 C33.8725,24.385 33.6933333,24.4108333 33.5175,24.4366667 C33.3483333,24.46 33.1725,24.4791667 33,24.5016667 L33,21.2075 C33.6866667,21.1266667 34.3541667,21.0316667 35.0016667,20.9275 L35.0016667,24.1991667 C34.9791667,24.2025 34.96,24.2091667 34.9366667,24.2125 Z M26.3233333,21.6533333 C26.9941667,21.6408333 27.665,21.6208333 28.3316667,21.5883333 L28.3316667,24.915 C27.4566667,24.9575 26.5675,24.9808333 25.6658333,24.99 L25.6658333,21.6633333 C25.8516667,21.66 26.0341667,21.66 26.2158333,21.6566667 L26.3233333,21.6533333 Z M10.3341667,19.8208333 L10.3341667,22.9883333 C9.28583333,22.585 8.60833333,22.1708333 8.39083333,21.8033333 L8.345,21.7283333 C8.34166667,21.7058333 8.335,21.6858333 8.33166667,21.6633333 L8.33166667,18.9033333 C8.86583333,19.2383333 9.54,19.5441667 10.3341667,19.8208333 Z M13.6675,20.69 L13.6675,23.9391667 C12.9283333,23.7791667 12.2608333,23.61 11.665,23.4375 L11.665,20.2275 C12.29,20.3975 12.9575,20.55 13.6675,20.69 Z M15.7633333,24.3291667 C15.5,24.2866667 15.2525,24.2416667 14.9983333,24.1958333 L14.9983333,20.9275 C15.6466667,21.0316667 16.3141667,21.1266667 17.0008333,21.2075 L17.0008333,24.505 C16.5908333,24.4533333 16.1933333,24.3941667 15.8091667,24.3358333 C15.7933333,24.3325 15.78,24.3291667 15.7633333,24.3291667 Z M20.1683333,24.8275 C20.0766667,24.8175 19.9891667,24.8108333 19.8975,24.805 C19.4716667,24.7725 19.055,24.7366667 18.6475,24.6941667 C18.56,24.6875 18.4716667,24.6775 18.3875,24.6683333 C18.3675,24.6683333 18.3516667,24.665 18.3316667,24.6616667 L18.3316667,21.3508333 C18.99,21.4158333 19.6566667,21.4683333 20.3341667,21.5133333 L20.3341667,24.8375 C20.2783333,24.8341667 20.2233333,24.8308333 20.1683333,24.8275 Z M13,13.2066667 L13,16.5008333 C12.8666667,16.4841667 12.73,16.4716667 12.6,16.4516667 C12.515,16.4416667 12.4333333,16.4291667 12.3491667,16.4158333 C11.965,16.3608333 11.5875,16.3016667 11.2191667,16.24 C11.1441667,16.2275 11.0733333,16.2141667 11.0016667,16.2008333 L11.0016667,12.9266667 C11.6458333,13.0308333 12.3133333,13.125 13,13.2066667 Z M14.335,16.66 L14.335,13.3525 C14.9891667,13.415 15.6566667,13.47 16.3333333,13.5158333 L16.3333333,16.8325 C15.6566667,16.7841667 14.9858333,16.7283333 14.335,16.66 Z M27.6683333,13.3525 L27.6683333,16.66 C27.0233333,16.725 26.3558333,16.7875 25.6658333,16.8358333 L25.6658333,13.5158333 C26.3433333,13.47 27.01,13.415 27.6683333,13.3525 Z M32.3325,15.9375 L32.3325,12.6891667 C33.0425,12.5491667 33.71,12.3958333 34.335,12.23 L34.335,15.4425 C33.7358333,15.615 33.0616667,15.7808333 32.3325,15.9375 Z M28.9991667,16.5008333 L28.9991667,13.2066667 C29.6858333,13.125 30.3533333,13.0308333 31.0016667,12.9266667 L31.0016667,16.195 C30.3666667,16.305 29.7025,16.4091667 28.9991667,16.5008333 Z M37.515,13.9875 L37.4958333,13.9841667 L37.2516667,14.1733333 C36.9,14.4466667 36.3591667,14.7233333 35.6658333,14.9933333 L35.6658333,11.82 C36.46,11.5458333 37.1341667,11.24 37.6683333,10.905 L37.6683333,13.6625 C37.6683333,13.7633333 37.6125,13.8733333 37.515,13.9875 Z M22.3233333,13.6525 C22.9933333,13.6391667 23.6641667,13.62 24.335,13.5908333 L24.335,16.9141667 C24.2208333,16.9208333 24.11,16.9266667 23.9958333,16.9333333 C23.9891667,16.9333333 23.98,16.9333333 23.97,16.9366667 C23.5208333,16.9566667 23.065,16.9691667 22.6025,16.9791667 C22.5316667,16.9825 22.46,16.9825 22.3883333,16.9858333 C22.15,16.9891667 21.9066667,16.9925 21.665,16.9925 L21.665,13.6625 C21.8508333,13.6625 22.0333333,13.6591667 22.2158333,13.6558333 L22.3233333,13.6525 Z M19.7841667,13.6558333 C19.9658333,13.6591667 20.1483333,13.6625 20.3341667,13.6625 L20.3341667,16.9925 C19.4358333,16.9825 18.5433333,16.96 17.6683333,16.9175 L17.6683333,13.5908333 C18.335,13.62 19.0058333,13.6425 19.6766667,13.6558333 C19.7125,13.6558333 19.7483333,13.6558333 19.7841667,13.6558333 Z M7.66833333,15.4491667 L7.66833333,12.23 C8.29,12.3958333 8.96,12.5491667 9.66666667,12.6891667 L9.66666667,15.9441667 C9.585,15.9241667 9.50083333,15.9083333 9.41916667,15.8916667 C9.06416667,15.8141667 8.71916667,15.7325 8.3875,15.6441667 C8.13666667,15.5825 7.89583333,15.5141667 7.66833333,15.4491667 Z M23.2183333,24.9775 C22.7166667,24.9641667 22.225,24.945 21.7433333,24.9216667 C21.7175,24.9183333 21.6916667,24.9183333 21.665,24.9183333 L21.665,21.5883333 C22.3358333,21.6208333 23.0066667,21.6408333 23.6766667,21.6533333 C23.7125,21.6533333 23.7483333,21.6533333 23.7808333,21.6566667 C23.9666667,21.66 24.1491667,21.66 24.3316667,21.6633333 L24.3316667,24.9933333 C24.0091667,24.99 23.68,24.9866667 23.3641667,24.9808333 C23.3158333,24.9775 23.2666667,24.9775 23.2183333,24.9775 Z M32.3325,28.0208333 C33.0425,27.8841667 33.71,27.7275 34.335,27.5616667 L34.335,30.7808333 C33.7391667,30.9533333 33.0716667,31.12 32.3325,31.2758333 L32.3325,28.0208333 Z M28.9991667,31.8391667 L28.9991667,28.5416667 C29.6858333,28.46 30.3533333,28.3658333 31.0016667,28.2583333 L31.0016667,31.5333333 C30.3733333,31.6441667 29.7058333,31.7483333 28.9991667,31.8391667 Z M26.1116667,32.1383333 C25.9658333,32.1483333 25.8158333,32.1616667 25.6658333,32.1708333 L25.6658333,28.8475 C26.3433333,28.8008333 27.01,28.75 27.6683333,28.685 L27.6683333,31.995 C27.2541667,32.0375 26.835,32.08 26.4016667,32.1158333 C26.3041667,32.1225 26.2066667,32.1325 26.1116667,32.1383333 Z M13,28.5416667 L13,31.8391667 C12.2966667,31.745 11.6291667,31.6441667 11.0016667,31.5333333 L11.0016667,28.2583333 C11.6458333,28.3658333 12.3133333,28.46 13,28.5416667 Z M14.68,32.0308333 C14.6116667,32.025 14.5433333,32.0183333 14.4775,32.0116667 C14.4291667,32.005 14.38,32.0016667 14.335,31.995 L14.335,28.685 C14.9891667,28.75 15.6566667,28.8008333 16.3333333,28.8475 L16.3333333,32.1708333 C15.7733333,32.1291667 15.22,32.0833333 14.68,32.0308333 Z M16.3333333,36.0191667 C16.9908333,36.0808333 17.6583333,36.1358333 18.3316667,36.1816667 L18.3316667,39.505 C17.6416667,39.4566667 16.975,39.3975 16.3333333,39.3291667 L16.3333333,36.0191667 Z M13,35.5925 C13.6441667,35.7 14.3116667,35.7941667 14.9983333,35.8758333 L14.9983333,39.1733333 C14.2958333,39.0783333 13.6283333,38.9775 13,38.8675 L13,35.5925 Z M11.665,35.355 L11.665,38.61 C10.93,38.4533333 10.2591667,38.2875 9.66666667,38.115 L9.66666667,34.8958333 C10.2883333,35.0616667 10.9591667,35.2183333 11.665,35.355 Z M34.335,35.355 C35.0408333,35.215 35.7116667,35.0616667 36.3333333,34.8958333 L36.3333333,38.115 C35.7408333,38.2875 35.07,38.4533333 34.335,38.61 L34.335,35.355 Z M31.0016667,35.8758333 C31.6883333,35.7908333 32.3558333,35.6966667 33,35.5925 L33,38.8675 C32.3716667,38.9775 31.7041667,39.0783333 31.0016667,39.1733333 L31.0016667,35.8758333 Z M29.6666667,36.0191667 L29.6666667,39.3291667 C29.025,39.3975 28.3583333,39.4566667 27.6683333,39.505 L27.6683333,36.1783333 C28.3416667,36.1358333 29.0091667,36.0808333 29.6666667,36.0191667 Z M24.3216667,36.3216667 C24.995,36.3083333 25.6658333,36.2858333 26.3333333,36.2566667 L26.3333333,39.5833333 C25.4775,39.6258333 24.5883333,39.655 23.6675,39.6616667 L23.6675,36.3283333 C23.85,36.3283333 24.0316667,36.325 24.2175,36.3216667 C24.2533333,36.3216667 24.2858333,36.3216667 24.3216667,36.3216667 Z M21.7825,36.3216667 C21.9683333,36.325 22.15,36.3283333 22.3325,36.3316667 L22.3325,39.6616667 C21.4116667,39.655 20.5225,39.6291667 19.6666667,39.5866667 L19.6666667,36.2566667 C20.3341667,36.2891667 21.0041667,36.3083333 21.6783333,36.3216667 C21.7141667,36.3216667 21.7466667,36.3216667 21.7825,36.3216667 Z M7.73,30.8008333 C7.71,30.7941667 7.6875,30.7875 7.66833333,30.7808333 L7.66833333,27.5616667 C8.29,27.7308333 8.96,27.8841667 9.66666667,28.0241667 L9.66666667,31.2758333 C9.055,31.1458333 8.49166667,31.0091667 7.9775,30.8691667 C7.89583333,30.8466667 7.81083333,30.8233333 7.73,30.8008333 Z M19.7741667,32.3208333 C19.4683333,32.3141667 19.1625,32.3075 18.8625,32.2983333 L18.7483333,32.295 C18.3875,32.2816667 18.0258333,32.2691667 17.6683333,32.2491667 L17.6683333,28.9225 C18.335,28.955 19.0058333,28.9741667 19.6766667,28.9875 C19.7125,28.9875 19.7483333,28.9875 19.7841667,28.9875 C19.9658333,28.9908333 20.1483333,28.9941667 20.3341667,28.9975 L20.3341667,32.3275 C20.2041667,32.3275 20.0733333,32.3275 19.9466667,32.3241667 C19.8883333,32.3241667 19.8291667,32.3208333 19.7741667,32.3208333 Z M22.6841667,32.3108333 C22.5866667,32.3141667 22.4891667,32.3141667 22.3916667,32.3175 C22.1533333,32.3241667 21.9091667,32.3241667 21.6683333,32.3275 L21.6683333,28.9975 C21.8508333,28.9941667 22.0333333,28.9908333 22.2183333,28.9875 L22.3233333,28.9841667 C22.9933333,28.9741667 23.6675,28.9516667 24.335,28.9225 L24.335,32.2491667 C24.1916667,32.2591667 24.0483333,32.2658333 23.905,32.2725 C23.5016667,32.2883333 23.0975,32.3016667 22.6841667,32.3108333 Z M37.5933333,29.2158333 L37.3683333,29.4141667 C37.0166667,29.7233333 36.4341667,30.0325 35.6658333,30.3316667 L35.6658333,27.155 C36.46,26.8783333 37.1341667,26.5725 37.6683333,26.2366667 L37.6683333,28.9975 C37.6683333,29.0658333 37.6416667,29.1375 37.5933333,29.2158333 Z M42.9933333,16.9983333 C42.925,15.8591667 41.5708333,14.9675 38.8558333,14.2875 C38.9475,14.0883333 38.9991667,13.88 38.9991667,13.665 L38.9991667,9.00083333 L38.9891667,9.00083333 C38.7483333,5.11416667 22.8275,5 21.0016667,5 C19.1716667,5 3.25083333,5.11416667 3.01,9.00083333 L3,9.00083333 L3,13.665 C3.00333333,14.9316667 4.6375,15.9241667 7.06916667,16.6633333 C7.03666667,16.7741667 7.01666667,16.885 7.01,16.9983333 L7.00083333,16.9983333 L7.00083333,21.6566667 C4.38,22.3341667 3.07166667,23.2125 3.00666667,24.3325 L3,24.3325 L3,29.0008333 C3.00333333,29.8825 3.7975,30.6283333 5.1,31.2533333 C5.05083333,31.3866667 5.01833333,31.5266667 5.00833333,31.6666667 L4.99833333,31.6666667 L4.99833333,36.335 C5.005,38.5516667 9.99833333,39.9283333 15.5458333,40.57 C15.585,40.5791667 15.6233333,40.5958333 15.6658333,40.5958333 C15.6791667,40.5958333 15.6891667,40.5891667 15.7016667,40.5858333 C16.7725,40.7066667 17.86,40.8008333 18.9341667,40.8691667 C18.9566667,40.8725 18.9766667,40.8825 18.9991667,40.8825 C19.0125,40.8825 19.0225,40.8758333 19.035,40.8758333 C20.3991667,40.9566667 21.7433333,40.9991667 23,40.9991667 C24.2566667,40.9991667 25.6008333,40.9566667 26.965,40.8758333 C26.9775,40.8758333 26.9875,40.8825 27.0008333,40.8825 C27.0233333,40.8825 27.0433333,40.8691667 27.0658333,40.8691667 C28.14,40.8008333 29.2275,40.7066667 30.2983333,40.5858333 C30.3108333,40.5858333 30.3208333,40.5925 30.3341667,40.5925 C30.3766667,40.5925 30.415,40.5758333 30.4541667,40.57 C36.0016667,39.925 40.995,38.5483333 41.0016667,36.3316667 L41.0016667,31.6666667 L40.9883333,31.6666667 C40.9425,30.8491667 40.2458333,30.1658333 38.8691667,29.5966667 C38.9541667,29.4041667 38.9991667,29.2058333 38.9991667,28.9975 L38.9991667,24.6383333 C41.3916667,23.9033333 42.9966667,22.92 43,21.6633333 L43,16.9983333 L42.9933333,16.9983333 L42.9933333,16.9983333 Z" id="coins"></path>
        </g>
    </g>
</svg>