<?xml version="1.0" encoding="UTF-8"?>
<svg width="80px" height="34px" viewBox="0 0 80 34" version="1.1" xmlns="http://www.w3.org/2000/svg" xmlns:xlink="http://www.w3.org/1999/xlink">
    <!-- Generator: Sketch 54.1 (76490) - https://sketchapp.com -->
    <title>edf-logo</title>
    <desc>Created with Sketch.</desc>
    <g id="Première-connexion" stroke="none" stroke-width="1" fill="none" fill-rule="evenodd">
        <g id="Première-connexion---Accueil" transform="translate(-1266.000000, -714.000000)" fill="#FFFFFF">
            <g id="edf-logo" transform="translate(1266.000000, 714.000000)">
                <path d="M15.1509789,23.2296347 C14.8758791,23.5193047 14.1261775,23.626484 13.9157412,23.9588082 C13.5944853,24.4600953 12.856853,25.602551 12.280827,26.1469989 C10.4218089,27.9076496 6.44184763,28.7921093 4.47920968,27.110733 C4.35049521,27.1194784 4.42446458,27.1943579 4.5795732,27.6753683 C4.7220449,28.5855128 5.45803413,30.7228552 5.1856978,31.2683609 C5.36322727,31.8756951 5.54626859,31.6532169 5.88119209,31.9904874 C6.10916472,32.2178522 6.20235836,32.8125674 6.46432822,32.9738428 C6.7630139,32.9531191 7.06223732,32.9312333 7.36096781,32.9110013 C7.41409968,33.0771931 7.47163805,33.2433254 7.52423218,33.4127652 C7.90683545,33.3854862 8.29260542,33.35706 8.67686673,33.3296916 C8.89217256,33.3789309 9.54496119,33.7145029 9.73672588,33.7670049 C10.1636928,33.7364334 10.5900772,33.7074113 11.0148484,33.679 C11.99197,33.9381282 12.8453363,33.5314311 13.6690522,32.9754965 C14.1277907,32.6688572 14.630893,32.7175453 15.0391584,32.3703971 C15.6299873,31.8636571 16.4356738,30.8753555 16.8126905,30.1909518 C17.7372628,28.5160713 17.4226988,24.5027495 16.5852706,23.5106488 C16.257502,23.1530718 15.870074,23.1471124 15.1509789,23.2296347 M22.8829437,22.1298333 C22.189675,22.6589954 21.8986223,22.5283363 21.4931053,23.3449634 C21.4503399,23.3449634 21.5539149,23.4668027 21.5133453,23.4668027 C21.9261069,24.2906258 22.873115,24.621341 23.5696847,25.1991166 C23.7850802,25.3822778 24.3731157,26.399542 24.6520693,26.4722761 C24.9660806,26.8450495 25.170542,27.8770631 25.376034,27.8770631 C25.5881582,28.1667778 25.3574371,28.8501237 25.5662751,29.1157328 C25.5799427,30.3401893 25.4100312,30.4243654 25.195786,30.659969 C25.195786,30.7446963 25.3130286,30.9671596 25.3130286,31.0497266 C25.3711197,31.1076666 25.8638554,31.4602675 26.0775928,31.4176133 C26.7456175,31.4361469 29.4814982,33.5669489 29.6991343,33.9774451 C31.6616826,34.1244925 31.519196,33.5259932 32.8734239,32.9531191 C33.2389987,32.7956726 33.531112,32.944925 33.7706012,32.6956297 C34.0221598,32.4398238 34.0424745,31.9347375 34.283577,31.6717953 C34.315961,26.8564915 27.7480279,22.2959805 22.8829437,22.1298333 M28.2139064,11.9553588 C25.7821784,12.3194465 24.2952926,13.0940154 23.3756794,13.7280773 C22.7333021,14.1757748 22.5464518,14.4736837 22.4105375,14.6617911 C22.2697089,14.8497943 22.1759626,15.2652368 22.2439123,15.704189 C22.315178,16.1382545 22.4938128,16.6012378 22.873115,16.8603213 C25.8583884,16.6394522 31.0451766,16.4519854 32.0541445,18.9538326 C32.1067834,19.3026344 32.1867277,19.5131193 32.1932851,19.595597 C33.1825657,19.3512778 32.458601,19.4381951 33.916389,19.6650236 C34.2496097,19.7175107 35.0722799,19.5328001 35.6181027,19.3994295 C35.8658971,19.3414895 36.0067257,19.1178642 36.0067257,19.1178642 C36.0067257,19.1178642 35.9595986,18.8789978 35.9727135,18.7483833 C35.9727135,18.7483833 36.4845839,18.7877003 36.6934219,18.6264547 C38.0750747,18.4045278 37.3494221,17.7567742 38,17.0265132 C37.6097339,12.3484537 32.796736,11.261748 28.2139064,11.9553588 M9.69620106,20.4839004 C10.2316574,20.3467307 11.1425173,20.2750544 11.6198826,20.0383929 C12.3811009,19.6584832 14.9947798,17.8366 14.1617879,16.3513913 C13.9069282,13.2246745 10.1225855,15.8670436 8.51016678,14.7705347 C6.88025654,14.5606457 5.04867821,11.4858351 4.55712248,10.1673993 C4.36743408,9.64643134 4.44530207,9.82464625 4.18384007,9.41251123 C4.18549811,9.37036359 4.01722975,9.55511891 4.01891766,9.51301597 C3.54261289,10.0651515 3.62484257,10.5499759 3.54972303,11.8990726 C3.33603043,11.885381 3.12280088,11.873939 2.90909334,11.8586532 C2.86798597,12.3484537 2.81924565,12.6146438 2.58954029,12.8671422 C2.54351856,12.9502605 2.49418075,13.029535 2.44705366,13.1142474 C2.04041633,12.9786867 2.24483288,13.1699973 2.07991047,12.8311178 C0.579282319,12.9076063 0.689444695,14.4130471 0,15.2668756 C0.0306512808,18.0770605 5.60385177,21.5416287 9.69620106,20.4839004 M20.5548206,5.20942825 C20.6836247,4.14840739 20.5258124,2.59761584 21.3654065,1.86733993 C21.6120508,0.734732162 23.3998031,0.999268527 23.1208197,0.277186751 C22.947637,-0.17375866 22.107998,0.0416129157 21.768205,0.124641817 C21.5100889,0.185919023 19.0597192,0.958804415 18.1182081,1.06383828 C17.7186361,0.953366492 17.3190939,0.842924496 16.9217177,0.731394915 C15.3822526,0.938065813 14.4949787,2.15814221 13.640522,3.12783575 C12.9231595,3.94011257 11.9508627,5.93151003 12.7247478,7.12316024 C12.6820272,7.38225868 12.6376037,7.64299595 12.595391,7.90428446 L14.3421256,10.4499777 C14.9454868,10.8823746 15.0254759,11.2027055 15.6743659,11.6279809 C15.8086669,11.8280369 15.941295,12.0281227 16.0755511,12.2297878 C16.6055405,12.5769359 18.1724453,12.5823291 18.4343703,12.3549643 C20.9543478,12.5894803 20.6808613,7.50253364 21.479348,6.43330375 C21.3790891,5.95342561 20.9560058,5.45487974 20.5548206,5.20942825" id="Fill-1"></path>
                <path d="M61.0165047,24.1517903 C63.2553235,24.1517903 65.0766974,23.3929157 65.0766974,19.335532 C65.0766974,15.884104 63.2553235,14.736473 61.0165047,14.736473 L59.8418551,14.736473 L59.8418551,24.1517903 L61.0165047,24.1517903 Z M62.20325,12 C66.2563081,12 69,14.6292882 69,19.335532 C69,25.2486431 65.2334772,27 61.2843044,27 L56,27 C56.0187057,26.671018 56,25.7964852 56,24.6996939 L56,14.2986453 C56,13.2041145 56.0187057,12.5038609 56,12 L62.20325,12 Z" id="Fill-2"></path>
                <path d="M74.7553223,24.699609 C74.7553223,25.7964408 74.8070217,27 74.8070217,27 L71,27 C71,27 71.0250492,25.7964408 71.0250492,24.699609 L71.0250492,14.2965156 C71.0250492,13.2012986 71,12 71,12 L80,12 L80,14.9019861 C80,14.9019861 77.987756,14.8477919 77.3057958,14.8477919 L74.7553223,14.8477919 L74.7553223,17.8693004 L77.3057958,17.897028 C77.7826905,17.897028 79.4248153,17.8693004 79.4248153,17.8693004 L79.4248153,20.6335713 C79.4248153,20.6335713 77.968034,20.5912801 77.3057958,20.5912801 L74.7553223,20.6070278 L74.7553223,24.699609 Z" id="Fill-3"></path>
                <path d="M45.1572867,17.7727317 C45.2144968,16.9361344 45.5133809,14.993231 47.6276174,14.993231 C49.7952954,14.993231 49.9139886,16.8181729 49.9139886,17.7846657 L49.9139886,17.9788568 C49.9139886,17.9788568 48.4654723,18.0190766 47.6010004,18.0190766 C46.7370627,18.0190766 45.1431622,17.9788568 45.1431622,17.9788568 L45.1572867,17.7727317 Z M48.385933,23.845682 C46.5612337,23.845682 45.1572867,22.6186123 45.1572867,20.7007036 L45.1572867,20.536948 C45.1572867,20.536948 48.5476079,20.4542845 49.6978929,20.4542845 C51.6521458,20.4542845 52.4588734,20.4358276 54,20.4157399 L54,19.3245254 C54,14.3981457 51.9084785,12 47.6010004,12 C45.6161692,12 41,12.7451575 41,19.6449206 C41,24.2493188 43.3255102,27 47.3919373,27 C50.5835217,27 52.5432791,26.1851656 53.9629381,25.1500485 C53.8023314,24.910182 52.6145246,22.7752668 52.4588734,22.5424125 C51.6063896,23.1919347 50.2008105,23.845682 48.385933,23.845682 L48.385933,23.845682 Z" id="Fill-4"></path>
            </g>
        </g>
    </g>
</svg>