<?xml version="1.0" encoding="UTF-8"?>
<svg width="18px" height="18px" viewBox="0 0 18 18" version="1.1" xmlns="http://www.w3.org/2000/svg" xmlns:xlink="http://www.w3.org/1999/xlink">
    <!-- Generator: Sketch 54.1 (76490) - https://sketchapp.com -->
    <title>Combined Shape</title>
    <desc>Created with Sketch.</desc>
    <g id="Mon-prévisionnel" stroke="none" stroke-width="1" fill="none" fill-rule="evenodd">
        <g id="Mon-prévisionnel---Modification---Ajout-souscription" transform="translate(-564.000000, -169.000000)" fill="#001A70" fill-rule="nonzero">
            <g id="button_off-copy-2" transform="translate(549.000000, 158.000000)">
                <path d="M26,13 L32.4134,13 C32.7361,13 33,13.2737 33,13.609 L33,26.391 C33,26.7263 32.7361,27 32.4134,27 L26,27 L26,29 L15,27.0006154 L15,13.0000769 L26,11 L26,13 Z M26,15.0888 L26,16.5105 L28.1217,16.5105 L28.1217,15.0888 L26,15.0888 Z M26,17.9 L26,19.3 L28.1,19.3 L28.1,17.9 L26,17.9 Z M26,20.7 L26,22.1 L28.1,22.1 L28.1,20.7 L26,20.7 Z M26,23.5 L26,24.9 L28.1,24.9 L28.1,23.5 L26,23.5 Z M31.6,24.9 L31.6,23.5 L28.8,23.5 L28.8,24.9 L31.6,24.9 Z M31.6,22.1 L31.6,20.7 L28.8,20.7 L28.8,22.1 L31.6,22.1 Z M31.6,19.3 L31.6,17.9 L28.8,17.9 L28.8,19.3 L31.6,19.3 Z M31.6,16.5 L31.6,15.1 L28.8,15.1 L28.8,16.5 L31.6,16.5 Z M21.9578667,23.5169231 L23.9415333,23.5162308 L21.6520667,19.9806154 L23.8792,16.5038462 L22.0150667,16.5038462 L20.8344,18.587 C20.7207333,18.8576923 20.643,19.0612308 20.6012,19.1983077 L20.5806667,19.1983077 C20.5146667,18.9705385 20.4406,18.7732308 20.3577333,18.6070769 L19.2958667,16.5045385 L17.2601333,16.5045385 L19.4256667,20.0110769 L17.0584667,23.5169231 L19.0524,23.5169231 L20.3364667,21.2530769 C20.4266667,21.0343077 20.4838667,20.8709231 20.5080667,20.7636154 L20.5278667,20.7636154 C20.5799333,20.9913846 20.6298,21.1478462 20.6782,21.233 L21.9578667,23.5169231 Z" id="Combined-Shape"></path>
            </g>
        </g>
    </g>
</svg>