<?xml version="1.0" encoding="UTF-8"?>
<svg width="23px" height="13px" viewBox="0 0 23 13" version="1.1" xmlns="http://www.w3.org/2000/svg" xmlns:xlink="http://www.w3.org/1999/xlink">
    <!-- Generator: Sketch 54.1 (76490) - https://sketchapp.com -->
    <title>Shape</title>
    <desc>Created with Sketch.</desc>
    <g id="SYMBOLES" stroke="none" stroke-width="1" fill="none" fill-rule="evenodd">
        <g id="icon/eye" transform="translate(-4.000000, -4.000000)" fill="#001A70" fill-rule="nonzero">
            <g id="Group">
                <path d="M15.5,4 C11.105605,4 7.120538,6.27968428 4.17996318,9.98249828 C3.94001227,10.2858614 3.94001227,10.7096774 4.17996318,11.0130405 C7.120538,14.7203157 11.105605,17 15.5,17 C19.894395,17 23.879462,14.7203157 26.8200368,11.0175017 C27.0599877,10.7141386 27.0599877,10.2903226 26.8200368,9.98695951 C23.879462,6.27968428 19.894395,4 15.5,4 Z M15.8152296,15.0772135 C12.8981794,15.2512011 10.4892605,12.9715168 10.6727524,10.2010981 C10.8233098,7.91695264 12.7758515,6.06554564 15.1847704,5.92278655 C18.1018206,5.7487989 20.5107395,8.02848318 20.3272476,10.7989019 C20.1719853,13.0785861 18.2194436,14.9299931 15.8152296,15.0772135 Z M15.6693771,12.9625944 C14.0979339,13.05628 12.7993761,11.8294441 12.9028843,10.339396 C12.982868,9.10809883 14.03677,8.1132464 15.3353278,8.03294441 C16.906771,7.93925875 18.2053288,9.16609472 18.1018206,10.6561428 C18.017132,11.8919012 16.96323,12.8867536 15.6693771,12.9625944 Z" id="Shape"></path>
            </g>
        </g>
    </g>
</svg>