<?xml version="1.0" encoding="UTF-8"?>
<svg width="15px" height="13px" viewBox="0 0 15 13" version="1.1" xmlns="http://www.w3.org/2000/svg" xmlns:xlink="http://www.w3.org/1999/xlink">
    <!-- Generator: Sketch 54.1 (76490) - https://sketchapp.com -->
    <title>Fill 1</title>
    <desc>Created with Sketch.</desc>
    <g id="Mon-prévisionnel" stroke="none" stroke-width="1" fill="none" fill-rule="evenodd">
        <g id="Mon-prévisionnel---Modification-serveur" transform="translate(-207.000000, -423.000000)" fill="#FFFFFF">
            <g id="Group-7" transform="translate(176.000000, 309.000000)">
                <g id="Group" transform="translate(20.000000, 106.000000)">
                    <path d="M20.2283352,8.95109031 C19.4100874,7.6829699 17.5690299,7.6829699 16.7716474,8.95109031 L11.3298905,17.4195457 C10.4501105,18.7899471 11.4321715,20.5902559 13.0686671,20.5902559 L23.9313155,20.5902559 C25.5678111,20.5902559 26.549913,18.7899471 25.670092,17.4195457 L20.2283352,8.95109031 Z M19.2462742,18.217951 C19.2462742,18.5655427 19.0624875,18.7293559 18.7348693,18.7293559 L18.2849967,18.7293559 C17.937405,18.7293559 17.7735918,18.5455692 17.7735918,18.217951 L17.7735918,17.8495758 C17.7735918,17.5019842 17.9573785,17.338171 18.2849967,17.338171 L18.7348693,17.338171 C19.082461,17.338171 19.2462742,17.5219576 19.2462742,17.8495758 L19.2462742,18.217951 Z M19.2254989,15.7423423 C19.2254989,16.0699687 19.0209369,16.2537472 18.6933105,16.2537472 L18.3249354,16.2537472 C17.9973089,16.2537472 17.8135305,16.0699606 17.792747,15.7423423 L17.6696907,12.1218005 C17.6696907,11.7742088 17.8334998,11.5896121 18.1810956,11.5896121 L18.8371257,11.5896121 C19.1847174,11.5896121 19.3485306,11.7733987 19.3485306,12.1218005 L19.2254989,15.7423423 Z" id="Fill-1"></path>
                </g>
            </g>
        </g>
    </g>
</svg>