<?xml version="1.0" encoding="UTF-8"?>
<svg width="21px" height="18px" viewBox="0 0 21 18" version="1.1" xmlns="http://www.w3.org/2000/svg" xmlns:xlink="http://www.w3.org/1999/xlink">
    <!-- Generator: Sketch 54.1 (76490) - https://sketchapp.com -->
    <title>np_filter_1517831_021D6B</title>
    <desc>Created with Sketch.</desc>
    <g id="Mon-prévisionnel" stroke="none" stroke-width="1" fill="none" fill-rule="evenodd">
        <g id="Mon-prévisionnel---Modification---Ajout-souscription" transform="translate(-190.000000, -101.000000)" fill="#021D6B" fill-rule="nonzero">
            <g id="button_off-copy-2" transform="translate(176.000000, 88.000000)">
                <g id="np_filter_1517831_021D6B" transform="translate(14.000000, 13.000000)">
                    <path d="M20.8602784,0.875969209 C20.6122512,0.335922779 20.0859167,0 19.4883155,0 L1.51128375,0 C0.913682557,0 0.388325466,0.335947779 0.139320803,0.875969209 C-0.107729019,1.41209066 -0.0217985378,2.02341162 0.361957619,2.47263365 L0.362934289,2.47361015 L7.50010137,10.7783052 L7.50010137,17.2500125 C7.50010137,17.5263856 7.65243392,17.780284 7.89654399,17.9111331 C8.00688747,17.9707027 8.1289475,18 8.25004011,18 C8.39553573,18 8.54006643,17.9570303 8.66603114,17.8740233 L13.1656636,14.8740432 C13.3746316,14.7343966 13.4996114,14.5009956 13.4996114,14.2500223 L13.4996114,10.7782952 L20.6377784,2.47260015 C21.0225219,2.02337812 21.107465,1.41205716 20.8604152,0.875935709 L20.8602784,0.875969209 Z" id="Path"></path>
                </g>
            </g>
        </g>
    </g>
</svg>