<?xml version="1.0" encoding="UTF-8"?>
<svg width="18px" height="25px" viewBox="0 0 18 25" version="1.1" xmlns="http://www.w3.org/2000/svg" xmlns:xlink="http://www.w3.org/1999/xlink">
    <!-- Generator: Sketch 54.1 (76490) - https://sketchapp.com -->
    <title>garbage-bin-svgrepo-com</title>
    <desc>Created with Sketch.</desc>
    <g id="SYMBOLES" stroke="none" stroke-width="1" fill="none" fill-rule="evenodd">
        <g id="démantelé_le" fill="#4C4C4C" fill-rule="nonzero">
            <g id="Group-6">
                <g id="garbage-bin-svgrepo-com">
                    <rect id="Rectangle" x="5" y="11" width="1" height="10"></rect>
                    <rect id="Rectangle" x="9" y="11" width="1" height="10"></rect>
                    <rect id="Rectangle" x="12" y="11" width="1" height="10"></rect>
                    <path d="M16.8,2.5 L12,2.5 L12,1.25 C12,0.559570312 11.4628125,0 10.8,0 L7.2,0 C6.5371875,0 6,0.559570312 6,1.25 L6,2.5 L1.2,2.5 C0.5371875,2.5 0,3.05957031 0,3.75 L0,6.25 C0,6.94042969 0.5371875,7.5 1.2,7.5 L1.2,23.75 C1.2,24.4404297 1.7371875,25 2.4,25 L15.6,25 C16.2628125,25 16.8,24.4404297 16.8,23.75 L16.8,7.5 C17.4628125,7.5 18,6.94042969 18,6.25 L18,3.75 C18,3.05957031 17.4628125,2.5 16.8,2.5 Z M7.2,1.25 L10.8,1.25 L10.8,2.5 L7.2,2.5 L7.2,1.25 L7.2,1.25 Z M15.6,23.75 L2.4,23.75 L2.4,7.5 L15.6,7.5 L15.6,23.75 Z M16.8,6.25 L1.2,6.25 L1.2,3.75 L16.8,3.75 L16.8,6.25 Z" id="Shape"></path>
                </g>
            </g>
        </g>
    </g>
</svg>