<?xml version="1.0" encoding="UTF-8"?>
<svg width="13px" height="15px" viewBox="0 0 13 15" version="1.1" xmlns="http://www.w3.org/2000/svg" xmlns:xlink="http://www.w3.org/1999/xlink">
    <!-- Generator: Sketch 54.1 (76490) - https://sketchapp.com -->
    <title>iconmonstr-calculator-8</title>
    <desc>Created with Sketch.</desc>
    <g id="Mon-prévisionnel" stroke="none" stroke-width="1" fill="none" fill-rule="evenodd">
        <g id="Mon-prévisionnel---Modification---OTP-oui" transform="translate(-629.000000, -473.000000)" fill="#001A70" fill-rule="nonzero">
            <g id="iconmonstr-calculator-8" transform="translate(629.000000, 473.000000)">
                <path d="M11.8181818,1.18181818 L11.8181818,13 L1.18181818,13 L1.18181818,1.18181818 L11.8181818,1.18181818 Z M13,0 L0,0 L0,14.1818182 L13,14.1818182 L13,0 Z M11.2272727,1.77272727 L1.77272727,1.77272727 L1.77272727,4.72727273 L11.2272727,4.72727273 L11.2272727,1.77272727 Z M3.54545455,5.90909091 L1.77272727,5.90909091 L1.77272727,7.68181818 L3.54545455,7.68181818 L3.54545455,5.90909091 Z M5.90909091,5.90909091 L4.13636364,5.90909091 L4.13636364,7.68181818 L5.90909091,7.68181818 L5.90909091,5.90909091 Z M8.27272727,5.90909091 L6.5,5.90909091 L6.5,7.68181818 L8.27272727,7.68181818 L8.27272727,5.90909091 Z M11.2272727,5.90909091 L9.45454545,5.90909091 L9.45454545,7.68181818 L11.2272727,7.68181818 L11.2272727,5.90909091 Z M3.54545455,8.27272727 L1.77272727,8.27272727 L1.77272727,10.0454545 L3.54545455,10.0454545 L3.54545455,8.27272727 Z M5.90909091,8.27272727 L4.13636364,8.27272727 L4.13636364,10.0454545 L5.90909091,10.0454545 L5.90909091,8.27272727 Z M8.27272727,8.27272727 L6.5,8.27272727 L6.5,10.0454545 L8.27272727,10.0454545 L8.27272727,8.27272727 Z M11.2272727,8.27272727 L9.45454545,8.27272727 L9.45454545,12.4090909 L11.2272727,12.4090909 L11.2272727,8.27272727 Z M3.54545455,10.6363636 L1.77272727,10.6363636 L1.77272727,12.4090909 L3.54545455,12.4090909 L3.54545455,10.6363636 Z M5.90909091,10.6363636 L4.13636364,10.6363636 L4.13636364,12.4090909 L5.90909091,12.4090909 L5.90909091,10.6363636 Z M8.27272727,10.6363636 L6.5,10.6363636 L6.5,12.4090909 L8.27272727,12.4090909 L8.27272727,10.6363636 Z" id="Shape"></path>
            </g>
        </g>
    </g>
</svg>