<?xml version="1.0" encoding="UTF-8"?>
<svg width="15px" height="15px" viewBox="0 0 15 15" version="1.1" xmlns="http://www.w3.org/2000/svg" xmlns:xlink="http://www.w3.org/1999/xlink">
    <!-- Generator: Sketch 54.1 (76490) - https://sketchapp.com -->
    <title>information</title>
    <desc>Created with Sketch.</desc>
    <g id="Notifications" stroke="none" stroke-width="1" fill="none" fill-rule="evenodd">
        <g id="Notifications---Tableau-de-bord---Menu-notifications" transform="translate(-1079.000000, -98.000000)" fill="#FFFFFF" fill-rule="nonzero">
            <g id="Group-10" transform="translate(1059.000000, 90.000000)">
                <g id="information" transform="translate(20.000000, 8.000000)">
                    <path d="M7.5,0 C3.3645,0 0,3.36454545 0,7.50004545 C0,11.6355455 3.3645,15 7.5,15 C11.6355,15 15,11.6355455 15,7.50004545 C15,3.36454545 11.6355,0 7.5,0 Z M7.5,13.6363636 C4.11636364,13.6363636 1.36363636,10.8836364 1.36363636,7.50004545 C1.36363636,4.11645455 4.11636364,1.36363636 7.5,1.36363636 C10.8836364,1.36363636 13.6363636,4.11645455 13.6363636,7.50004545 C13.6363636,10.8836364 10.8835909,13.6363636 7.5,13.6363636 Z" id="Shape"></path>
                    <path d="M7.5,3 C7.08644229,3 6.75,3.3366 6.75,3.7503375 C6.75,4.1637 7.08644229,4.5 7.5,4.5 C7.91355771,4.5 8.25,4.1637 8.25,3.7503375 C8.25,3.3366 7.91355771,3 7.5,3 Z" id="Path"></path>
                    <path d="M7.5,6.75 C7.0858,6.75 6.75,7.043825 6.75,7.40625 L6.75,11.34375 C6.75,11.706175 7.0858,12 7.5,12 C7.9142,12 8.25,11.706175 8.25,11.34375 L8.25,7.40625 C8.25,7.043825 7.9142,6.75 7.5,6.75 Z" id="Path"></path>
                </g>
            </g>
        </g>
    </g>
</svg>