<?xml version="1.0" encoding="UTF-8"?>
<svg width="103px" height="86px" viewBox="0 0 103 86" version="1.1" xmlns="http://www.w3.org/2000/svg" xmlns:xlink="http://www.w3.org/1999/xlink">
    <!-- Generator: Sketch 54.1 (76490) - https://sketchapp.com -->
    <title>negative</title>
    <desc>Created with Sketch.</desc>
    <g id="Simulation" stroke="none" stroke-width="1" fill="none" fill-rule="evenodd">
        <g id="Simulation---Fenêtre-d'ajout-" transform="translate(-632.000000, -385.000000)" fill-rule="nonzero">
            <g id="Pop-in">
                <g id="negative" transform="translate(632.000000, 385.000000)">
                    <path d="M98.0571443,0 L4.94285573,0 C2.21289063,0 0,2.20844618 0,4.93371274 L0,67.3223174 C0,70.0467996 2.21289062,72.2552458 4.94285573,72.2552458 L34.280159,72.2552458 C35.383461,72.2552458 36.4427567,72.692857 37.2230835,73.4724008 L48.5570756,84.7836293 C50.1821671,86.4054569 52.8178329,86.4054569 54.4429244,84.7836293 L65.7769165,73.4724008 C66.5580291,72.692857 67.616539,72.2552458 68.7206267,72.2552458 L98.0571443,72.2552458 C100.787109,72.2552458 103,70.0467996 103,67.3223174 L103,4.93371274 C103,2.20844618 100.787109,5.70616506e-15 98.0571443,0 Z" id="Path" fill="#001A70"></path>
                    <path d="M42.0829205,66.453111 C40.2801186,64.6629907 37.8824003,63.6767888 35.3316358,63.6767888 L8.9904813,63.6767888 C8.44344052,63.6767888 8,63.236659 8,62.6937027 L8,8.98308593 C8,8.44012959 8.44344052,8 8.9904813,8 L93.0095185,8 C93.5565595,8 94,8.44012959 94,8.98308593 L94,62.6937027 C94,63.236659 93.5565595,63.6767888 93.0095185,63.6767888 L66.8771343,63.6767888 C64.3263701,63.6767888 61.9286516,64.6629907 60.1258499,66.453111 L51.8048642,74.7119683 C51.4179329,75.0960106 50.7916223,75.0960106 50.403906,74.7119683 L42.0829205,66.453111 Z" id="Path" fill="#8BB5E0"></path>
                    <path d="M58.7685403,37.0622484 C58.4445199,36.7396038 58.4445199,36.2129339 58.7685403,35.8902892 L65.6233059,29.068094 C67.458898,27.2223765 67.458898,24.2300053 65.6233059,22.3842881 C63.7877135,20.5385706 60.8117575,20.5385706 58.9761651,22.3842881 L52.0765717,29.2523494 C51.75727,29.5710401 51.2429266,29.5710401 50.9228382,29.2523494 L44.0232449,22.3842881 C42.1876527,20.5385706 39.2116967,20.5385706 37.3761043,22.3842881 C35.5412986,24.2300053 35.5412986,27.2223765 37.3761043,29.068094 L44.2316563,35.8902892 C44.5556767,36.2129339 44.5556767,36.7396038 44.2316563,37.0622484 L37.4783439,43.7848033 C35.5861266,45.6684789 35.5782621,48.7581181 37.4610418,50.6512831 C39.2423686,52.4432262 42.1294547,52.4503435 43.9202188,50.6678897 L50.9228382,43.6986066 C51.2429266,43.3807068 51.75727,43.3807068 52.0765717,43.6986066 L59.0791912,50.6678897 C60.8699553,52.4503435 63.7570416,52.4432262 65.5383682,50.6512831 C67.4211481,48.7581181 67.4132834,45.6684789 65.5218527,43.7848033 L58.7685403,37.0622484 Z" id="Path" fill="#FFFFFF"></path>
                </g>
            </g>
        </g>
    </g>
</svg>