<?xml version="1.0" encoding="UTF-8"?>
<svg width="58px" height="58px" viewBox="0 0 58 58" version="1.1" xmlns="http://www.w3.org/2000/svg" xmlns:xlink="http://www.w3.org/1999/xlink">
    <!-- Generator: Sketch 54.1 (76490) - https://sketchapp.com -->
    <title>Notifications</title>
    <desc>Created with Sketch.</desc>
    <defs>
        <circle id="path-1" cx="25" cy="25" r="25"></circle>
        <filter x="-12.0%" y="-12.0%" width="124.0%" height="124.0%" filterUnits="objectBoundingBox" id="filter-3">
            <feMorphology radius="2" operator="erode" in="SourceAlpha" result="shadowSpreadOuter1"></feMorphology>
            <feOffset dx="0" dy="0" in="shadowSpreadOuter1" result="shadowOffsetOuter1"></feOffset>
            <feGaussianBlur stdDeviation="4" in="shadowOffsetOuter1" result="shadowBlurOuter1"></feGaussianBlur>
            <feColorMatrix values="0 0 0 0 0   0 0 0 0 0   0 0 0 0 0  0 0 0 0.5 0" type="matrix" in="shadowBlurOuter1"></feColorMatrix>
        </filter>
    </defs>
    <g id="Première-connexion" stroke="none" stroke-width="1" fill="none" fill-rule="evenodd">
        <g id="Première-connexion---Étape-3" transform="translate(-1282.000000, -16.000000)">
            <g id="Navigation-admin,-user-et-notif" transform="translate(1146.000000, 20.000000)">
                <g id="buttons/round/button_round_small" transform="translate(140.000000, 0.000000)">
                    <g id="admin" stroke-width="1" fill-rule="evenodd">
                        <mask id="mask-2" fill="white">
                            <use xlink:href="#path-1"></use>
                        </mask>
                        <g id="Mask">
                            <use fill="black" fill-opacity="1" filter="url(#filter-3)" xlink:href="#path-1"></use>
                            <use fill="#FFFFFF" fill-rule="evenodd" xlink:href="#path-1"></use>
                        </g>
                        <g id="icon/notifs" mask="url(#mask-2)" fill-rule="nonzero">
                            <g transform="translate(0.000000, -0.000000)" id="Picto-/-ic/Rappel">
                                <g transform="translate(12.500000, 12.500000)">
                                    <path d="M4.93136175,9.32525 C4.86108397,9.71497222 4.52176299,9.98827469 4.13984941,9.98827469 C4.09228768,9.98827469 4.04472595,9.98401543 3.99645434,9.97549691 C3.55846052,9.89741049 3.26741113,9.47858333 3.34620743,9.04129938 C3.67984941,7.18142284 4.53241113,5.49333642 5.81089879,4.15805864 C6.11827533,3.83719444 6.62796669,3.82583642 6.94954076,4.13321296 C7.27040496,4.44058951 7.28176299,4.95028086 6.97367657,5.27114506 C5.91454076,6.37713272 5.20892348,7.77913889 4.93136175,9.32525 Z M22.0235562,9.06522222 C22.1016426,9.50321605 21.8105932,9.92204321 21.3733093,10.0001296 C21.3250377,10.0086481 21.2774759,10.0129074 21.2299142,10.0129074 C20.8472908,10.0129074 20.5079698,9.73960494 20.4384019,9.34917284 C20.1580006,7.78389506 19.4239883,6.32225926 18.373371,5.23401852 C18.0645747,4.91315432 18.0730932,4.40417284 18.3932476,4.09466667 C18.7134019,3.78587037 19.2230932,3.79509877 19.5318895,4.11454321 C20.8018587,5.4313642 21.6863648,7.18901852 22.0235562,9.06522222 Z M12.7126025,21.5012654 C12.2689297,21.5012654 11.9076025,21.1399383 11.9076025,20.6962654 L13.5176025,20.6962654 C13.5176025,21.1399383 13.1562753,21.5012654 12.7126025,21.5012654 M20.7164605,16.018179 C20.6717383,16.001142 20.0442074,15.7484259 19.5827877,15.167037 C19.3059358,14.8191975 18.799084,14.7616975 18.4512445,15.0385494 C18.103405,15.3146914 18.045905,15.8215432 18.3220469,16.1693827 C18.7387445,16.6932716 19.2221704,17.0411111 19.5920161,17.2554938 C19.5302568,17.6019136 19.3996395,17.9895062 19.1717692,18.318179 C18.8125716,18.8349691 18.3064297,19.0862654 17.6235284,19.0862654 L7.80167657,19.0862654 C6.55655311,19.0862654 6.00071978,18.0427469 5.84028768,17.2505247 C6.07809632,17.1128086 6.36346669,16.921142 6.64883706,16.6641667 C7.56102842,15.8428395 8.04303459,14.7602778 8.04303459,13.5300617 L8.04303459,10.7132716 C8.04303459,8.17262346 10.1023864,6.0770679 12.6338062,6.0437037 C12.640905,6.0437037 12.6480037,6.04299383 12.6543926,6.04228395 C12.6607815,6.04299383 12.6664605,6.04299383 12.6721395,6.04299383 C12.6934358,6.04299383 12.7147321,6.04157407 12.7353185,6.04015432 C12.7544852,6.04157407 12.7722321,6.0437037 12.7913988,6.0437037 C15.3448247,6.07777778 17.4226334,8.17262346 17.4226334,10.7132716 L17.4226334,11.8405556 C17.4226334,12.2849383 17.7832506,12.6448457 18.2276334,12.6448457 C18.6727259,12.6448457 19.0326334,12.2849383 19.0326334,11.8405556 L19.0326334,10.7132716 C19.0326334,7.52024691 16.5956272,4.85111111 13.4778494,4.47842593 L13.4778494,3.30570988 C13.4778494,2.86061728 13.1172321,2.5 12.6721395,2.5 C12.2277568,2.5 11.8671395,2.86061728 11.8671395,3.30570988 L11.8671395,4.48765432 C10.4963679,4.67009259 9.22923829,5.30046296 8.23967039,6.30635802 C7.07476299,7.49114198 6.43303459,9.05641975 6.43303459,10.7132716 L6.43303459,13.5300617 C6.43303459,15.3288889 4.81309632,15.9784259 4.70874447,16.018179 C4.38504076,16.1310494 4.17846669,16.432037 4.17846669,16.7756173 C4.17846669,17.6203704 4.47945434,18.5439198 4.98346669,19.2466975 C5.6550099,20.1816049 6.65593582,20.6962654 7.80167657,20.6962654 L10.2976025,20.6962654 C10.2976025,22.0279938 11.3808741,23.1119753 12.7126025,23.1119753 C14.0443309,23.1119753 15.1283124,22.0279938 15.1283124,20.6962654 L17.6235284,20.6962654 C19.1589914,20.6962654 20.0321395,19.9019136 20.4942692,19.2367593 C21.173621,18.2571296 21.2467383,17.1887654 21.2467383,16.7756173 C21.2467383,16.432037 21.0401642,16.1310494 20.7164605,16.018179" id="Mask" fill="#001A70"></path>
                                </g>
                            </g>
                        </g>
                    </g>
                    <circle id="Oval" cx="33" cy="15" r="5"></circle>
                </g>
            </g>
        </g>
    </g>
</svg>