<?xml version="1.0" encoding="UTF-8"?>
<svg width="12px" height="12px" viewBox="0 0 12 12" version="1.1" xmlns="http://www.w3.org/2000/svg" xmlns:xlink="http://www.w3.org/1999/xlink">
    <!-- Generator: Sketch 54.1 (76490) - https://sketchapp.com -->
    <title>np_duplicate_3018889_000000</title>
    <desc>Created with Sketch.</desc>
    <g id="Mon-prévisionnel" stroke="none" stroke-width="1" fill="none" fill-rule="evenodd">
        <g id="Mon-prévisionnel---Page-modification-avec-cadre---Sélection-d'élément" transform="translate(-348.000000, -338.000000)" fill="#4C4C4C" fill-rule="nonzero">
            <g id="Group-12" transform="translate(342.000000, 301.000000)">
                <g id="Group-9" transform="translate(0.000000, 13.000000)">
                    <g id="np_duplicate_3018889_000000" transform="translate(6.000000, 24.000000)">
                        <path d="M11.6008464,11.2076093 L10.6832933,11.2076093 L8.49440491,11.2076093 L5.83336995,11.2076093 L3.53175362,11.2076093 C3.16207149,11.2076093 2.78470813,11.1866157 2.415026,11.2076093 L2.39915364,11.2076093 L2.79239067,11.6008464 L2.79239067,10.6832933 L2.79239067,8.49440491 L2.79239067,5.83336995 L2.79239067,3.53175362 C2.79239067,3.16207149 2.81338429,2.78470813 2.79239067,2.415026 L2.79239067,2.39915364 L2.39915364,2.79239067 L3.31670671,2.79239067 L5.50559509,2.79239067 L8.16663005,2.79239067 L10.4682464,2.79239067 C10.8379285,2.79239067 11.2152919,2.81338429 11.584974,2.79239067 L11.6008464,2.79239067 L11.2076093,2.39915364 L11.2076093,3.31670671 L11.2076093,5.50559509 L11.2076093,8.16663005 L11.2076093,10.4682464 C11.2076093,10.8404846 11.1942969,11.2127358 11.2076093,11.584974 L11.2076093,11.6008464 C11.2076093,11.8051461 11.3883542,12.0043207 11.6008464,11.9940834 C11.8133385,11.9838461 11.9940834,11.8210198 11.9940834,11.6008464 L11.9940834,10.6832933 L11.9940834,8.49440491 L11.9940834,5.83336995 L11.9940834,3.53175362 C11.9940834,3.15951545 12.0073958,2.78726417 11.9940834,2.415026 L11.9940834,2.39915364 C11.9940834,2.18666146 11.8133385,2.00591662 11.6008464,2.00591662 L10.6832933,2.00591662 L8.49440491,2.00591662 L5.83336995,2.00591662 L3.53175362,2.00591662 C3.15951545,2.00591662 2.78726417,1.99260423 2.415026,2.00591662 L2.39915364,2.00591662 C2.18666146,2.00591662 2.00591662,2.18666146 2.00591662,2.39915364 L2.00591662,3.31670671 L2.00591662,5.50559509 L2.00591662,8.16663005 L2.00591662,10.4682464 C2.00591662,10.8404846 1.99260423,11.2127358 2.00591662,11.584974 L2.00591662,11.6008464 C2.00591662,11.8133385 2.18666146,11.9940834 2.39915364,11.9940834 L3.31670671,11.9940834 L5.50559509,11.9940834 L8.16663005,11.9940834 L10.4682464,11.9940834 C10.8404846,11.9940834 11.2127358,12.0073958 11.584974,11.9940834 L11.6008464,11.9940834 C11.8051461,11.9940834 12.0043207,11.8133385 11.9940834,11.6008464 C11.9838461,11.3883542 11.8210198,11.2076093 11.6008464,11.2076093 L11.6008464,11.2076093 Z" id="Path"></path>
                        <path d="M2.17262731,9.21306034 L0.399389947,9.21306034 L0.792859776,9.60653017 L0.792859776,8.6884339 L0.792859776,6.49824968 L0.792859776,3.83563935 L0.792859776,1.53266044 C0.792859776,1.16275945 0.813865818,0.785172687 0.792859776,0.415271701 L0.792859776,0.399389947 L0.399389947,0.792859776 L1.31748621,0.792859776 L3.50767044,0.792859776 L6.17028077,0.792859776 L8.47325968,0.792859776 C8.84316067,0.792859776 9.22074743,0.813865818 9.59064842,0.792859776 L9.60653017,0.792859776 L9.21306034,0.399389947 L9.21306034,2.32476898 C9.21306034,2.52918967 9.39391219,2.72848214 9.60653017,2.71823881 C9.81914815,2.70799206 10,2.54507273 10,2.32476898 L10,0.399389947 C10,0.186771967 9.81914815,0.0059201179 9.60653017,0.0059201179 L8.6884339,0.0059201179 L6.49824968,0.0059201179 L3.83563935,0.0059201179 L1.53266044,0.0059201179 C1.1602019,0.0059201179 0.787730241,-0.00740014738 0.415271701,0.0059201179 L0.399389947,0.0059201179 C0.186771967,0.0059201179 0.0059201179,0.186771967 0.0059201179,0.399389947 L0.0059201179,1.31748621 L0.0059201179,3.50767044 L0.0059201179,6.17028077 L0.0059201179,8.47325968 C0.0059201179,8.84571822 -0.00740014738,9.21818988 0.0059201179,9.59064842 L0.0059201179,9.60653017 C0.0059201179,9.81914815 0.186771967,10 0.399389947,10 L2.17262731,10 C2.377048,10 2.57634047,9.81914815 2.56609714,9.60653017 C2.55533823,9.39391219 2.39293107,9.21306034 2.17262731,9.21306034 L2.17262731,9.21306034 Z" id="Path"></path>
                        <path d="M6.66666667,5.7176496 L6.66666667,7.95989906 L6.66666667,8.2823504 C6.66666667,8.48182357 6.81987778,8.67629264 7,8.66629722 C7.18012222,8.65629874 7.33333333,8.49732223 7.33333333,8.2823504 L7.33333333,6.04010094 L7.33333333,5.7176496 C7.33333333,5.51817643 7.18012222,5.32370736 7,5.33370278 C6.81987778,5.34369819 6.66666667,5.50267777 6.66666667,5.7176496 Z" id="Path"></path>
                        <path d="M5.7176496,7.33333333 L7.95989906,7.33333333 L8.2823504,7.33333333 C8.48182357,7.33333333 8.67629264,7.18012222 8.66629722,7 C8.65629861,6.81987778 8.49732223,6.66666667 8.2823504,6.66666667 L6.04010094,6.66666667 L5.7176496,6.66666667 C5.51817643,6.66666667 5.32370736,6.81987778 5.33370278,7 C5.34370152,7.18012222 5.50267777,7.33333333 5.7176496,7.33333333 Z" id="Path"></path>
                    </g>
                </g>
            </g>
        </g>
    </g>
</svg>