<?xml version="1.0" encoding="UTF-8"?>
<svg width="12px" height="12px" viewBox="0 0 12 12" version="1.1" xmlns="http://www.w3.org/2000/svg" xmlns:xlink="http://www.w3.org/1999/xlink">
    <!-- Generator: Sketch 54.1 (76490) - https://sketchapp.com -->
    <title>np_edit_2146406_4C4C4C</title>
    <desc>Created with Sketch.</desc>
    <g id="Mon-prévisionnel" stroke="none" stroke-width="1" fill="none" fill-rule="evenodd">
        <g id="Mon-prévisionnel---Estimation-des-budgets---Modifier" transform="translate(-730.000000, -207.000000)" fill="#001A70" fill-rule="nonzero">
            <g id="Group" transform="translate(726.000000, 203.000000)">
                <g id="np_edit_2146406_4C4C4C" transform="translate(4.000000, 4.000000)">
                    <path d="M0.492736427,11.9999955 C0.545187432,11.9999955 0.600553708,11.9912518 0.653001729,11.9737647 L3.73596786,10.9157861 C3.80590303,10.8924696 3.87292442,10.8516654 3.92537095,10.7962894 L11.5978746,3.12222161 C11.8572204,2.86282302 12,2.51890313 12,2.15458413 C12,1.78735523 11.8572159,1.44343535 11.5978746,1.18694665 L10.8111096,0.40002119 C10.2778567,-0.133340397 9.40949683,-0.133340397 8.87336449,0.40002119 L1.2008608,8.06826915 C1.1484098,8.12073085 1.10761391,8.1877659 1.08138841,8.25771085 L0.0265347767,11.3413055 C-0.0346590574,11.5190926 0.0119648375,11.717279 0.146007174,11.851358 C0.239254068,11.9475383 0.364548056,12 0.492766266,12 L0.492736427,11.9999955 Z M1.76322164,9.33318759 L2.66364349,10.233793 L1.29116856,10.7059572 L1.76322164,9.33318759 Z M3.57564288,9.74413954 L2.25270069,8.42092767 L7.3842638,3.28831848 L8.70720598,4.61153035 L3.57564288,9.74413954 Z M8.08357075,2.58892867 L8.43325406,2.23917407 L9.75619625,3.56238594 L9.40651293,3.91214053 L8.08357075,2.58892867 Z M10.111728,1.0936897 L10.8984931,1.88061517 C11.0471048,2.02925714 11.0471048,2.26825811 10.8984931,2.41690157 L10.4584871,2.85992207 L9.13554492,1.53671021 L9.57847512,1.0936897 C9.72417302,0.947962103 9.96311483,0.947962103 10.111728,1.0936897 L10.111728,1.0936897 Z" id="Shape"></path>
                </g>
            </g>
        </g>
    </g>
</svg>