<?xml version="1.0" encoding="UTF-8"?>
<svg width="65px" height="65px" viewBox="0 0 65 65" version="1.1" xmlns="http://www.w3.org/2000/svg" xmlns:xlink="http://www.w3.org/1999/xlink">
    <!-- Generator: Sketch 54.1 (76490) - https://sketchapp.com -->
    <title>Oval-user</title>
    <desc>Created with Sketch.</desc>
    <defs>
        <path d="M8.193,8.40144444 C8.193,4.87811111 11.0596667,2.01144444 14.583,2.01144444 C18.1085556,2.01144444 20.9741111,4.87811111 20.9741111,8.40144444 C20.9741111,11.9247778 18.1085556,14.7914444 14.583,14.7914444 C11.0596667,14.7914444 8.193,11.9247778 8.193,8.40144444 L8.193,8.40144444 Z M20.483,16.057 C20.3085556,15.9792222 20.1396667,15.8925556 19.963,15.8214444 C19.7663333,15.7436667 19.6241111,15.5658889 19.5918889,15.3558889 C19.5596667,15.1481111 19.6407778,14.9347778 19.8052222,14.7981111 C21.7374444,13.2225556 22.8463333,10.8903333 22.8463333,8.40144444 C22.8463333,3.84477778 19.1396667,0.139222222 14.583,0.139222222 C10.0274444,0.139222222 6.32077778,3.84477778 6.32077778,8.40144444 C6.32077778,10.8892222 7.42966667,13.2203333 9.363,14.7992222 C9.52633333,14.9347778 9.60744444,15.1481111 9.57522222,15.3536667 C9.54411111,15.5647778 9.40188889,15.7436667 9.20411111,15.8214444 C7.39633333,16.5458889 5.76855556,17.6214444 4.36855556,19.0214444 C1.68966667,21.7003333 0.193,25.247 0.138555556,29.0281111 L2.013,29.0281111 C2.123,22.1914444 7.71966667,16.6636667 14.583,16.6636667 C16.033,16.6636667 17.4207778,16.9203333 18.7174444,17.3736667 L20.483,16.057 Z" id="path-1"></path>
        <path d="M8.193,8.40144444 C8.193,4.87811111 11.0596667,2.01144444 14.583,2.01144444 C18.1085556,2.01144444 20.9741111,4.87811111 20.9741111,8.40144444 C20.9741111,11.9247778 18.1085556,14.7914444 14.583,14.7914444 C11.0596667,14.7914444 8.193,11.9247778 8.193,8.40144444 L8.193,8.40144444 Z M20.483,16.057 C20.3085556,15.9792222 20.1396667,15.8925556 19.963,15.8214444 C19.7663333,15.7436667 19.6241111,15.5658889 19.5918889,15.3558889 C19.5596667,15.1481111 19.6407778,14.9347778 19.8052222,14.7981111 C21.7374444,13.2225556 22.8463333,10.8903333 22.8463333,8.40144444 C22.8463333,3.84477778 19.1396667,0.139222222 14.583,0.139222222 C10.0274444,0.139222222 6.32077778,3.84477778 6.32077778,8.40144444 C6.32077778,10.8892222 7.42966667,13.2203333 9.363,14.7992222 C9.52633333,14.9347778 9.60744444,15.1481111 9.57522222,15.3536667 C9.54411111,15.5647778 9.40188889,15.7436667 9.20411111,15.8214444 C7.39633333,16.5458889 5.76855556,17.6214444 4.36855556,19.0214444 C1.68966667,21.7003333 0.193,25.247 0.138555556,29.0281111 L2.013,29.0281111 C2.123,22.1914444 7.71966667,16.6636667 14.583,16.6636667 C16.033,16.6636667 17.4207778,16.9203333 18.7174444,17.3736667 L20.483,16.057 Z" id="path-3"></path>
    </defs>
    <g id="Première-connexion" stroke="none" stroke-width="1" fill="none" fill-rule="evenodd">
        <g id="Première-connexion---Étape-1" transform="translate(-480.000000, -406.000000)">
            <g id="Pop-in" transform="translate(342.000000, 167.000000)">
                <g id="Oval-user" transform="translate(139.000000, 240.000000)">
                    <circle id="Oval" stroke="#001A70" stroke-width="2" fill="#FFFFFF" cx="31.5" cy="31.5" r="31.5"></circle>
                    <g id="Picto-/-ic/Proprietaire" stroke-width="1" transform="translate(17.000000, 17.000000)">
                        <mask id="mask-2" fill="white">
                            <use xlink:href="#path-1"></use>
                        </mask>
                        <use id="Mask" fill="#001A70" fill-rule="nonzero" xlink:href="#path-1"></use>
                        <path d="M28.7422222,28.0822222 L24.9444444,28.0822222 L24.9444444,24.3466667 C24.9444444,23.9588889 24.6266667,23.6444444 24.2366667,23.6444444 L21.6788889,23.6444444 C21.2888889,23.6444444 20.9711111,23.9588889 20.9711111,24.3466667 L20.9711111,28.0822222 L17.1711111,28.0822222 L17.0833333,21.0477778 L22.96,16.6666667 L28.7422222,20.87 L28.7422222,28.0822222 Z" id="Path" fill="#001A70" fill-rule="nonzero" mask="url(#mask-2)"></path>
                    </g>
                    <g id="Picto-/-ic/Proprietaire-Copy" stroke-width="1" transform="translate(34.500000, 32.000000) scale(-1, 1) translate(-34.500000, -32.000000) translate(23.000000, 17.000000)">
                        <mask id="mask-4" fill="white">
                            <use xlink:href="#path-3"></use>
                        </mask>
                        <use id="Mask-Copy" fill="#001A70" fill-rule="nonzero" xlink:href="#path-3"></use>
                        <path d="M28.7422222,28.0822222 L24.9444444,28.0822222 L24.9444444,24.3466667 C24.9444444,23.9588889 24.6266667,23.6444444 24.2366667,23.6444444 L21.6788889,23.6444444 C21.2888889,23.6444444 20.9711111,23.9588889 20.9711111,24.3466667 L20.9711111,28.0822222 L17.1711111,28.0822222 L17.0833333,21.0477778 L22.96,16.6666667 L28.7422222,20.87 L28.7422222,28.0822222 Z" id="Path" fill="#001A70" fill-rule="nonzero" mask="url(#mask-4)"></path>
                    </g>
                </g>
            </g>
        </g>
    </g>
</svg>