<?xml version="1.0" encoding="UTF-8"?>
<svg width="22px" height="24px" viewBox="0 0 22 24" version="1.1" xmlns="http://www.w3.org/2000/svg" xmlns:xlink="http://www.w3.org/1999/xlink">
    <!-- Generator: sketchtool 54.1 (76490) - https://sketchapp.com -->
    <title>146F0129-2F2E-4E79-BBBC-BC83AC1675F0</title>
    <desc>Created with sketchtool.</desc>
    <defs>
        <path d="M15.0776528,3 C16.3096135,3 16.5406062,3.86823497 16.5406062,4.20701994 L16.5406062,14.832262 C16.5406062,15.1726228 16.3096135,16.039282 15.0776528,16.039282 C13.8456922,16.039282 13.4590662,15.1726228 13.4590662,14.832262 L13.4590662,4.20701994 C13.4590662,3.86823497 13.8456922,3 15.0776528,3 Z M19.4060615,6.38296489 C23.2952565,8.07688974 26,11.8413423 26,16.2156077 C26,22.1041632 21.0950927,26.8896979 15.0008191,27 C8.90490729,26.8896979 4,22.1041632 4,16.2156077 C4,11.8413423 6.70638171,8.07688974 10.5939385,6.38296489 C10.5939385,6.38296489 11.9192792,5.80939406 11.9192792,7.1487765 C11.9192792,8.48815894 10.6070445,9.38790879 10.590662,9.3847573 C8.27254449,10.8391691 6.74242311,13.3540566 6.74242311,16.2156077 C6.74242311,20.6466 10.4202845,24.2534781 15.0008191,24.3637802 C19.5813538,24.2534781 23.2592151,20.6466 23.2592151,16.2156077 C23.2592151,13.3540566 21.7274555,10.8391691 19.4109762,9.3847573 C19.3945938,9.38790879 18.0807208,8.48815894 18.0807208,7.1487765 C18.0807208,5.80939406 19.4060615,6.38296489 19.4060615,6.38296489 Z" id="path-1"></path>
    </defs>
    <g id="Paramètres-utilisateur" stroke="none" stroke-width="1" fill="none" fill-rule="evenodd">
        <g id="Paramètres-utilisateur---Menu" transform="translate(-1290.000000, -406.000000)">
            <g id="Group-11" transform="translate(1023.000000, 403.000000)">
                <g id="Picto-/-ic/power" transform="translate(263.000000, 0.000000)">
                    <mask id="mask-2" fill="white">
                        <use xlink:href="#path-1"></use>
                    </mask>
                    <use id="Mask" fill="#001A70" fill-rule="nonzero" xlink:href="#path-1"></use>
                </g>
            </g>
        </g>
    </g>
</svg>