<?xml version="1.0" encoding="UTF-8"?>
<svg width="104px" height="43px" viewBox="0 0 104 43" version="1.1" xmlns="http://www.w3.org/2000/svg" xmlns:xlink="http://www.w3.org/1999/xlink">
    <!-- Generator: Sketch 63.1 (92452) - https://sketch.com -->
    <title>ROSIE_logo_2 Copy</title>
    <desc>Created with Sketch.</desc>
    <g id="ROSIE_logo_2-Copy" stroke="none" stroke-width="1" fill="none" fill-rule="evenodd">
        <g id="Group" fill="#001A70" fill-rule="nonzero">
            <path d="M9.345,28 L9.345,20.77 L12.435,20.77 L16.665,28 L22.365,28 L17.325,20.23 C18.585,19.77 19.545,19.06 20.205,18.1 C20.865,17.14 21.195,15.94 21.195,14.5 C21.195,12.46 20.55,10.9 19.26,9.82 C17.97,8.74 16.125,8.2 13.725,8.2 L13.725,8.2 L4.275,8.2 L4.275,28 L9.345,28 Z M12.855,17.11 L9.345,17.11 L9.345,12.1 L12.855,12.1 C13.955,12.1 14.755,12.3 15.255,12.7 C15.755,13.1 16.005,13.73 16.005,14.59 C16.005,15.47 15.755,16.11 15.255,16.51 C14.755,16.91 13.955,17.11 12.855,17.11 L12.855,17.11 Z M33.645,28.3 C35.645,28.3 37.37,27.895 38.82,27.085 C40.27,26.275 41.385,25.105 42.165,23.575 C42.945,22.045 43.335,20.22 43.335,18.1 C43.335,15.98 42.945,14.155 42.165,12.625 C41.385,11.095 40.27,9.925 38.82,9.115 C37.37,8.305 35.645,7.9 33.645,7.9 C31.645,7.9 29.915,8.305 28.455,9.115 C26.995,9.925 25.875,11.095 25.095,12.625 C24.315,14.155 23.925,15.98 23.925,18.1 C23.925,20.22 24.315,22.045 25.095,23.575 C25.875,25.105 26.995,26.275 28.455,27.085 C29.915,27.895 31.645,28.3 33.645,28.3 Z M33.645,24.25 C32.205,24.25 31.105,23.73 30.345,22.69 C29.585,21.65 29.205,20.12 29.205,18.1 C29.205,16.08 29.585,14.55 30.345,13.51 C31.105,12.47 32.205,11.95 33.645,11.95 C35.085,11.95 36.18,12.47 36.93,13.51 C37.68,14.55 38.055,16.08 38.055,18.1 C38.055,20.12 37.68,21.65 36.93,22.69 C36.18,23.73 35.085,24.25 33.645,24.25 Z M54.435,28.3 C56.035,28.3 57.47,28.06 58.74,27.58 C60.01,27.1 61.005,26.4 61.725,25.48 C62.445,24.56 62.805,23.47 62.805,22.21 C62.805,20.47 62.22,19.12 61.05,18.16 C59.88,17.2 57.925,16.47 55.185,15.97 C53.765,15.71 52.76,15.425 52.17,15.115 C51.58,14.805 51.285,14.4 51.285,13.9 C51.285,13.3 51.565,12.82 52.125,12.46 C52.685,12.1 53.485,11.92 54.525,11.92 C55.765,11.92 56.83,12.155 57.72,12.625 C58.61,13.095 59.385,13.83 60.045,14.83 L60.045,14.83 L62.955,11.47 C61.815,10.21 60.58,9.3 59.25,8.74 C57.92,8.18 56.315,7.9 54.435,7.9 C52.675,7.9 51.15,8.175 49.86,8.725 C48.57,9.275 47.59,10.04 46.92,11.02 C46.25,12 45.915,13.11 45.915,14.35 C45.915,15.59 46.22,16.61 46.83,17.41 C47.44,18.21 48.3,18.845 49.41,19.315 C50.52,19.785 51.925,20.19 53.625,20.53 C55.005,20.79 55.99,21.065 56.58,21.355 C57.17,21.645 57.465,22.02 57.465,22.48 C57.465,23.06 57.19,23.505 56.64,23.815 C56.09,24.125 55.265,24.28 54.165,24.28 C52.785,24.28 51.605,24.06 50.625,23.62 C49.645,23.18 48.765,22.42 47.985,21.34 L47.985,21.34 L45.345,24.94 C46.365,26.08 47.575,26.925 48.975,27.475 C50.375,28.025 52.195,28.3 54.435,28.3 Z M98.985,28 L98.985,24.01 L88.335,24.01 L88.335,19.96 L96.495,19.96 L96.495,16.21 L88.335,16.21 L88.335,12.19 L98.595,12.19 L98.595,8.2 L83.175,8.2 L83.175,28 L98.985,28 Z" id="ROSE"></path>
            <path d="M4.795,38 L4.795,35.831 L5.722,35.831 L6.991,38 L8.701,38 L7.189,35.669 C7.567,35.531 7.855,35.318 8.053,35.03 C8.251,34.742 8.35,34.382 8.35,33.95 C8.35,33.338 8.1565,32.87 7.7695,32.546 C7.3825,32.222 6.829,32.06 6.109,32.06 L6.109,32.06 L3.274,32.06 L3.274,38 L4.795,38 Z M5.848,34.733 L4.795,34.733 L4.795,33.23 L5.848,33.23 C6.178,33.23 6.418,33.29 6.568,33.41 C6.718,33.53 6.793,33.719 6.793,33.977 C6.793,34.241 6.718,34.433 6.568,34.553 C6.418,34.673 6.178,34.733 5.848,34.733 L5.848,34.733 Z M12.085,38.09 C12.685,38.09 13.2025,37.9685 13.6375,37.7255 C14.0725,37.4825 14.407,37.1315 14.641,36.6725 C14.875,36.2135 14.992,35.666 14.992,35.03 C14.992,34.394 14.875,33.8465 14.641,33.3875 C14.407,32.9285 14.0725,32.5775 13.6375,32.3345 C13.2025,32.0915 12.685,31.97 12.085,31.97 C11.485,31.97 10.966,32.0915 10.528,32.3345 C10.09,32.5775 9.754,32.9285 9.52,33.3875 C9.286,33.8465 9.169,34.394 9.169,35.03 C9.169,35.666 9.286,36.2135 9.52,36.6725 C9.754,37.1315 10.09,37.4825 10.528,37.7255 C10.966,37.9685 11.485,38.09 12.085,38.09 Z M12.085,36.875 C11.653,36.875 11.323,36.719 11.095,36.407 C10.867,36.095 10.753,35.636 10.753,35.03 C10.753,34.424 10.867,33.965 11.095,33.653 C11.323,33.341 11.653,33.185 12.085,33.185 C12.517,33.185 12.8455,33.341 13.0705,33.653 C13.2955,33.965 13.408,34.424 13.408,35.03 C13.408,35.636 13.2955,36.095 13.0705,36.407 C12.8455,36.719 12.517,36.875 12.085,36.875 Z M16.765,38 L17.179,36.659 L19.231,36.659 L19.636,38 L21.229,38 L19.15,32.06 L17.296,32.06 L15.208,38 L16.765,38 Z M18.907,35.606 L17.503,35.606 L17.953,34.175 L18.196,33.248 L18.214,33.248 L18.475,34.184 L18.907,35.606 Z M24.442,38 C25.372,38 26.0845,37.7435 26.5795,37.2305 C27.0745,36.7175 27.322,35.984 27.322,35.03 C27.322,34.076 27.0745,33.3425 26.5795,32.8295 C26.0845,32.3165 25.372,32.06 24.442,32.06 L24.442,32.06 L21.922,32.06 L21.922,38 L24.442,38 Z M24.289,36.83 L23.47,36.83 L23.47,33.23 L24.289,33.23 C24.787,33.23 25.153,33.38 25.387,33.68 C25.621,33.98 25.738,34.43 25.738,35.03 C25.738,35.63 25.621,36.08 25.387,36.38 C25.153,36.68 24.787,36.83 24.289,36.83 L24.289,36.83 Z M29.761,38 L29.761,35.273 L29.716,33.446 L29.734,33.446 L31.201,38 L32.452,38 L33.919,33.446 L33.937,33.446 L33.892,35.273 L33.892,38 L35.26,38 L35.26,32.06 L33.145,32.06 L32.218,35.093 L31.876,36.344 L31.858,36.344 L31.525,35.084 L30.589,32.06 L28.384,32.06 L28.384,38 L29.761,38 Z M37.51,38 L37.924,36.659 L39.976,36.659 L40.381,38 L41.974,38 L39.895,32.06 L38.041,32.06 L35.953,38 L37.51,38 Z M39.652,35.606 L38.248,35.606 L38.698,34.175 L38.941,33.248 L38.959,33.248 L39.22,34.184 L39.652,35.606 Z M44.215,38 L44.215,35.939 L45.394,35.939 C46.132,35.939 46.699,35.7725 47.095,35.4395 C47.491,35.1065 47.689,34.637 47.689,34.031 C47.689,33.395 47.491,32.9075 47.095,32.5685 C46.699,32.2295 46.132,32.06 45.394,32.06 L45.394,32.06 L42.667,32.06 L42.667,38 L44.215,38 Z M45.151,34.805 L44.215,34.805 L44.215,33.23 L45.151,33.23 C45.487,33.23 45.7345,33.2945 45.8935,33.4235 C46.0525,33.5525 46.132,33.749 46.132,34.013 C46.132,34.283 46.0525,34.4825 45.8935,34.6115 C45.7345,34.7405 45.487,34.805 45.151,34.805 L45.151,34.805 Z M53.494,38.09 C53.974,38.09 54.4045,38.018 54.7855,37.874 C55.1665,37.73 55.465,37.52 55.681,37.244 C55.897,36.968 56.005,36.641 56.005,36.263 C56.005,35.741 55.8295,35.336 55.4785,35.048 C55.1275,34.76 54.541,34.541 53.719,34.391 C53.293,34.313 52.9915,34.2275 52.8145,34.1345 C52.6375,34.0415 52.549,33.92 52.549,33.77 C52.549,33.59 52.633,33.446 52.801,33.338 C52.969,33.23 53.209,33.176 53.521,33.176 C53.893,33.176 54.2125,33.2465 54.4795,33.3875 C54.7465,33.5285 54.979,33.749 55.177,34.049 L55.177,34.049 L56.05,33.041 C55.708,32.663 55.3375,32.39 54.9385,32.222 C54.5395,32.054 54.058,31.97 53.494,31.97 C52.966,31.97 52.5085,32.0525 52.1215,32.2175 C51.7345,32.3825 51.4405,32.612 51.2395,32.906 C51.0385,33.2 50.938,33.533 50.938,33.905 C50.938,34.277 51.0295,34.583 51.2125,34.823 C51.3955,35.063 51.6535,35.2535 51.9865,35.3945 C52.3195,35.5355 52.741,35.657 53.251,35.759 C53.665,35.837 53.9605,35.9195 54.1375,36.0065 C54.3145,36.0935 54.403,36.206 54.403,36.344 C54.403,36.518 54.3205,36.6515 54.1555,36.7445 C53.9905,36.8375 53.743,36.884 53.413,36.884 C52.999,36.884 52.645,36.818 52.351,36.686 C52.057,36.554 51.793,36.326 51.559,36.002 L51.559,36.002 L50.767,37.082 C51.073,37.424 51.436,37.6775 51.856,37.8425 C52.276,38.0075 52.822,38.09 53.494,38.09 Z M58.516,38 L58.516,32.06 L56.968,32.06 L56.968,38 L58.516,38 Z M61.207,38 L61.207,35.273 L61.162,33.446 L61.18,33.446 L62.647,38 L63.898,38 L65.365,33.446 L65.383,33.446 L65.338,35.273 L65.338,38 L66.706,38 L66.706,32.06 L64.591,32.06 L63.664,35.093 L63.322,36.344 L63.304,36.344 L62.971,35.084 L62.035,32.06 L59.83,32.06 L59.83,38 L61.207,38 Z M69.568,38 L69.568,35.939 L70.747,35.939 C71.485,35.939 72.052,35.7725 72.448,35.4395 C72.844,35.1065 73.042,34.637 73.042,34.031 C73.042,33.395 72.844,32.9075 72.448,32.5685 C72.052,32.2295 71.485,32.06 70.747,32.06 L70.747,32.06 L68.02,32.06 L68.02,38 L69.568,38 Z M70.504,34.805 L69.568,34.805 L69.568,33.23 L70.504,33.23 C70.84,33.23 71.0875,33.2945 71.2465,33.4235 C71.4055,33.5525 71.485,33.749 71.485,34.013 C71.485,34.283 71.4055,34.4825 71.2465,34.6115 C71.0875,34.7405 70.84,34.805 70.504,34.805 L70.504,34.805 Z M78.559,38 L78.559,36.803 L75.58,36.803 L75.58,32.06 L74.032,32.06 L74.032,38 L78.559,38 Z M80.998,38 L80.998,32.06 L79.45,32.06 L79.45,38 L80.998,38 Z M83.86,38 L83.86,35.714 L86.308,35.714 L86.308,34.517 L83.86,34.517 L83.86,33.257 L86.929,33.257 L86.929,32.06 L82.312,32.06 L82.312,38 L83.86,38 Z M89.368,38 L89.368,32.06 L87.82,32.06 L87.82,38 L89.368,38 Z M93.409,31.493 L94.237,30.062 L92.788,30.062 L92.293,31.493 L93.409,31.493 Z M95.425,38 L95.425,36.803 L92.23,36.803 L92.23,35.588 L94.678,35.588 L94.678,34.463 L92.23,34.463 L92.23,33.257 L95.308,33.257 L95.308,32.06 L90.682,32.06 L90.682,38 L95.425,38 Z M101.104,38 L101.104,36.803 L97.909,36.803 L97.909,35.588 L100.357,35.588 L100.357,34.463 L97.909,34.463 L97.909,33.257 L100.987,33.257 L100.987,32.06 L96.361,32.06 L96.361,38 L101.104,38 Z" id="ROADMAPSIMPLIFIÉE"></path>
        </g>
        <g id="icon/coins" transform="translate(63.000000, 6.000000)" fill="#001A70" fill-rule="nonzero">
            <path d="M16.7481481,12.7837963 L16.7481481,11.0115741 C17.083463,10.8578704 17.3681111,10.687963 17.5918889,10.5018519 L17.5918889,12.0351852 C17.5918889,12.2430556 17.2952778,12.5143519 16.7481481,12.7837963 Z M16.7439259,17.6212963 C16.7136667,17.8712963 16.2808889,18.2037037 15.5124444,18.5166667 C14.5174074,18.9217593 12.9587037,19.2925926 10.9837593,19.4083333 C10.8820741,19.4138889 10.7817963,19.4189815 10.6787037,19.4226852 C10.594963,19.4263889 10.509463,19.4300926 10.4243148,19.4337963 C10.1906852,19.4388889 9.95424074,19.4444444 9.71111111,19.4444444 C9.46798148,19.4444444 9.23012963,19.4388889 8.99790741,19.4319444 C8.91240741,19.4300926 8.82866667,19.4263889 8.74492593,19.4226852 C8.64183333,19.4171296 8.54014815,19.412037 8.43846296,19.4064815 C6.46351852,19.2925926 4.90481481,18.9217593 3.90977778,18.5166667 C3.16490741,18.2148148 2.73459259,17.8925926 2.68111111,17.6449074 C2.76485185,17.6828704 2.85140741,17.7208333 2.94077778,17.7569444 C2.95027778,17.7606481 2.95872222,17.7643519 2.96822222,17.7680556 C3.04387037,17.7986111 3.12198148,17.8277778 3.20185185,17.8564815 C3.23211111,17.8675926 3.26237037,17.8800926 3.29262963,17.8893519 C3.33801852,17.9055556 3.38340741,17.9217593 3.42985185,17.9361111 C4.45514815,18.2814815 5.76368519,18.5273148 7.17672222,18.637963 C7.17672222,18.637963 7.17672222,18.637963 7.17812963,18.637963 C7.61512963,18.6703704 8.06057407,18.6921296 8.5112963,18.699537 C8.63092593,18.7027778 8.75055556,18.7027778 8.86737037,18.7027778 C9.02112963,18.7027778 9.18051852,18.7009259 9.34131481,18.6976852 C9.75227778,18.6884259 10.1576111,18.6685185 10.5534444,18.637963 C10.5548519,18.637963 10.5548519,18.637963 10.5562593,18.637963 C10.5576667,18.637963 10.5576667,18.637963 10.5590741,18.637963 C11.041463,18.5981481 11.5087222,18.5439815 11.9583889,18.4768519 C11.9597963,18.4768519 11.9608519,18.4768519 11.9636667,18.4768519 C11.9692963,18.4768519 11.9749259,18.4731481 11.9802037,18.4731481 C12.480537,18.3972222 12.9548333,18.3032407 13.3946481,18.1949074 C13.4854259,18.1731481 13.5744444,18.1513889 13.6624074,18.1277778 C13.6831667,18.1222222 13.7025185,18.1171296 13.7215185,18.1115741 C14.5532963,17.8875 15.2721296,17.5962963 15.7668333,17.2361111 C15.7928704,17.2157407 15.8189074,17.1962963 15.8438889,17.1768519 C15.8755556,17.1532407 15.905463,17.1277778 15.9346667,17.1023148 C15.9621111,17.0791667 15.9923704,17.0574074 16.017,17.0337963 C16.5736296,17.2939815 16.7259815,17.5273148 16.7439259,17.6212963 Z M15.9044074,20.9328704 L15.9044074,19.1606481 C16.2383148,19.0069444 16.5226111,18.8365741 16.7481481,18.650463 L16.7481481,20.1824074 C16.7481481,20.3921296 16.4511852,20.6634259 15.9044074,20.9328704 Z M2.67407407,20.1842593 L2.67407407,18.650463 C2.89961111,18.8365741 3.18390741,19.0069444 3.51781481,19.1606481 L3.51781481,20.9328704 C2.97103704,20.6634259 2.67407407,20.3921296 2.67407407,20.1842593 Z M1.83033333,16.1097222 L1.83033333,14.5759259 C2.05411111,14.7625 2.33875926,14.9324074 2.67407407,15.0861111 L2.67407407,16.8509259 L2.51327778,16.7699074 L2.51046296,16.7731481 C2.06783333,16.5328704 1.83033333,16.2958333 1.83033333,16.1097222 Z M3.19375926,12.7171296 C3.19762963,12.7222222 3.20325926,12.7277778 3.20888889,12.7333333 C3.59346296,13.2449074 4.39075926,13.6481481 5.38438889,13.9486111 C5.40796296,13.9541667 5.43118519,13.9611111 5.45440741,13.9685185 C5.52724074,13.9902778 5.60148148,14.012037 5.67712963,14.0319444 C6.58842593,14.2865741 7.67846296,14.4712963 8.86455556,14.5634259 C8.86596296,14.5634259 8.86596296,14.5634259 8.86596296,14.5634259 C8.86737037,14.5634259 8.86737037,14.5634259 8.86737037,14.5634259 C9.24948148,14.5921296 9.63827778,14.6115741 10.0369259,14.6212963 C10.2128519,14.6268519 10.385963,14.6305556 10.5548519,14.6305556 C10.7501296,14.6305556 10.9492778,14.6268519 11.1515926,14.6194444 C11.5199815,14.6106481 11.8827407,14.5907407 12.2398704,14.5634259 C12.2412778,14.5634259 12.2426852,14.5634259 12.2440926,14.5634259 C12.2469074,14.5634259 12.2483148,14.5615741 12.2511296,14.5615741 C13.4414444,14.4694444 14.5571667,14.2833333 15.501537,14.0152778 C15.2967593,14.1546296 15.0163333,14.3013889 14.6687037,14.4421296 C13.6173704,14.8708333 11.9376296,15.2597222 9.8047037,15.35 C9.74137037,15.3518519 9.67803704,15.3555556 9.61364815,15.3574074 C9.54468519,15.3592593 9.47466667,15.3611111 9.40464815,15.362963 C9.22731481,15.3662037 9.04998148,15.3699074 8.86737037,15.3699074 C8.62248148,15.3699074 8.38603704,15.3662037 8.15381481,15.3592593 C8.06725926,15.3555556 7.98351852,15.3518519 7.89837037,15.3481481 C7.79527778,15.3444444 7.695,15.3393519 7.59437037,15.3337963 C5.61942593,15.2180556 4.06072222,14.8472222 3.06427778,14.4421296 C2.29055556,14.1277778 1.85777778,13.7930556 1.8327963,13.5416667 C1.86446296,13.4023148 2.14911111,13.0532407 3.19375926,12.7171296 Z M1.83033333,7.59166667 L1.83033333,6.05833333 C2.05411111,6.24444444 2.33875926,6.41435185 2.67407407,6.56666667 L2.67407407,8.34074074 C2.12694444,8.0712963 1.83033333,7.8 1.83033333,7.59166667 Z M8.86737037,3.51944444 C13.5086481,3.51944444 15.8562037,4.47962963 15.9001852,5.03101852 C15.8657037,5.28240741 15.4329259,5.61342593 14.6687037,5.92453704 C13.6722593,6.32962963 12.1135556,6.70046296 10.1400185,6.81435185 C10.0383333,6.81944444 9.93805556,6.825 9.83496296,6.83055556 C9.74946296,6.83425926 9.66572222,6.83796296 9.58057407,6.83935185 C9.34694444,6.84675926 9.1105,6.85231481 8.86737037,6.85231481 C8.62248148,6.85231481 8.38603704,6.84675926 8.15381481,6.83935185 C8.06725926,6.83796296 7.98351852,6.83425926 7.89837037,6.83055556 C7.79527778,6.825 7.695,6.81944444 7.59437037,6.81435185 C5.61942593,6.70046296 4.06072222,6.32962963 3.06427778,5.92453704 C2.30040741,5.61342593 1.86727778,5.28240741 1.8342037,5.03101852 C1.87818519,4.47962963 4.22574074,3.51944444 8.86737037,3.51944444 Z M17.5894259,9.46898148 C17.563037,9.72037037 17.1302593,10.0550926 16.3579444,10.3694444 C15.3615,10.7731481 13.8027963,11.1435185 11.8278519,11.2592593 C11.7272222,11.2648148 11.625537,11.2703704 11.5238519,11.275463 C11.4387037,11.2791667 11.354963,11.2810185 11.2684074,11.2847222 C11.0361852,11.2921296 10.7997407,11.2953704 10.5548519,11.2953704 C10.3117222,11.2953704 10.0752778,11.2921296 9.84164815,11.2847222 C9.7565,11.2810185 9.67275926,11.2773148 9.58725926,11.2740741 C9.48416667,11.2703704 9.38388889,11.2648148 9.2822037,11.2592593 C7.30866667,11.1435185 5.74996296,10.7731481 4.75351852,10.3680556 C3.98648148,10.0569444 3.55511111,9.72407407 3.52203704,9.47453704 C3.52344444,9.46712963 3.52344444,9.46157407 3.52766667,9.45277778 C3.54666667,9.45833333 3.56742593,9.46342593 3.58677778,9.47083333 C3.69655556,9.50509259 3.81055556,9.53796296 3.92490741,9.57037037 C4.48435185,9.72777778 5.10396296,9.85787037 5.76368519,9.95740741 C5.7665,9.95740741 5.76790741,9.95925926 5.77072222,9.95925926 L5.77212963,9.95925926 C6.22144444,10.0259259 6.6887037,10.0787037 7.16722222,10.1166667 C7.17109259,10.1166667 7.17390741,10.1199074 7.17812963,10.1199074 C7.17953704,10.1199074 7.18094444,10.1180556 7.18340741,10.1180556 C7.52857407,10.1435185 7.87761111,10.1634259 8.23087037,10.174537 C8.44655556,10.1814815 8.65977778,10.1851852 8.86737037,10.1851852 C9.01444444,10.1851852 9.16538889,10.1833333 9.3195,10.1796296 C11.364463,10.137963 13.2598889,9.81805556 14.5779259,9.32268519 C14.6398519,9.29907407 14.698963,9.27546296 14.7566667,9.25185185 C14.7922037,9.2375 14.8295,9.225 14.8639815,9.21064815 C14.9656667,9.16712963 15.0631296,9.12175926 15.1577778,9.07638889 C15.1743148,9.06944444 15.1894444,9.06018519 15.2059815,9.05324074 C15.2858519,9.01342593 15.3625556,8.97175926 15.4357407,8.93009259 C15.4561481,8.91759259 15.4783148,8.90462963 15.4987222,8.89398148 C15.5771852,8.84675926 15.6528333,8.8 15.7228519,8.75092593 C15.7531111,8.72916667 15.7805556,8.70601852 15.8108148,8.68425926 C15.8438889,8.6587963 15.8780185,8.63194444 15.9096852,8.60648148 C15.9276296,8.59212963 15.9483889,8.57731481 15.9645741,8.56296296 C17.2249074,8.9212963 17.5577593,9.31527778 17.5894259,9.46898148 Z M16.0623889,13.0731481 C15.922,13.1240741 15.7735185,13.1726852 15.6225741,13.2199074 C15.5525556,13.2416667 15.4807778,13.2611111 15.4079444,13.2828704 C15.3861296,13.2884259 15.3625556,13.2958333 15.3407407,13.3009259 L15.3407407,11.4944444 C15.6405185,11.4166667 15.922,11.3319444 16.1858889,11.2375 L16.1858889,13.0282407 C16.1447222,13.0425926 16.1035556,13.0569444 16.0623889,13.0731481 Z M12.8461111,13.7675926 C12.7402037,13.7787037 12.6318333,13.7856481 12.5259259,13.7967593 L12.5259259,11.9518519 C12.8116296,11.9268519 13.093463,11.8976852 13.3696667,11.8615741 L13.3696667,13.6990741 C13.2064074,13.7226852 13.0442037,13.7435185 12.874963,13.7638889 C12.865463,13.7638889 12.855963,13.7657407 12.8461111,13.7675926 Z M14.751037,13.4513889 C14.627537,13.4782407 14.5036852,13.5074074 14.375963,13.5324074 C14.3017222,13.5472222 14.2260741,13.5615741 14.1518333,13.5759259 C14.0804074,13.5888889 14.0061667,13.599537 13.9333333,13.612037 L13.9333333,11.7819444 C14.2232593,11.737037 14.5050926,11.6842593 14.7784815,11.6263889 L14.7784815,13.4439815 C14.7689815,13.4458333 14.7608889,13.449537 14.751037,13.4513889 Z M11.1142963,12.0296296 C11.397537,12.0226852 11.6807778,12.0115741 11.9622593,11.9935185 L11.9622593,13.8416667 C11.5928148,13.8652778 11.2173889,13.8782407 10.8366852,13.8833333 L10.8366852,12.0351852 C10.9151481,12.0333333 10.9922037,12.0333333 11.0689074,12.0314815 L11.1142963,12.0296296 Z M4.36331481,11.0115741 L4.36331481,12.7712963 C3.92068519,12.5472222 3.63462963,12.3171296 3.5427963,12.112963 L3.52344444,12.0712963 C3.52203704,12.0587963 3.51922222,12.0476852 3.51781481,12.0351852 L3.51781481,10.5018519 C3.74335185,10.687963 4.028,10.8578704 4.36331481,11.0115741 Z M5.77072222,11.4944444 L5.77072222,13.299537 C5.45862963,13.2106481 5.1767963,13.1166667 4.92522222,13.0208333 L4.92522222,11.2375 C5.18911111,11.3319444 5.47094444,11.4166667 5.77072222,11.4944444 Z M6.65562963,13.5162037 C6.54444444,13.4925926 6.43994444,13.4675926 6.33262963,13.4421296 L6.33262963,11.6263889 C6.60637037,11.6842593 6.8882037,11.737037 7.17812963,11.7819444 L7.17812963,13.6138889 C7.00501852,13.5851852 6.83718519,13.5523148 6.67498148,13.5199074 C6.6682963,13.5180556 6.66266667,13.5162037 6.65562963,13.5162037 Z M8.51551852,13.7930556 C8.47681481,13.7875 8.43987037,13.7837963 8.40116667,13.7805556 C8.22137037,13.7625 8.04544444,13.7425926 7.87338889,13.7189815 C7.83644444,13.7152778 7.79914815,13.7097222 7.76361111,13.7046296 C7.75516667,13.7046296 7.74848148,13.7027778 7.74003704,13.7009259 L7.74003704,11.8615741 C8.018,11.8976852 8.29948148,11.9268519 8.58553704,11.9518519 L8.58553704,13.7986111 C8.56196296,13.7967593 8.53874074,13.7949074 8.51551852,13.7930556 Z M5.48888889,7.33703704 L5.48888889,9.16712963 C5.43259259,9.15787037 5.37488889,9.15092593 5.32,9.13981481 C5.28411111,9.13425926 5.24962963,9.12731481 5.21409259,9.11990741 C5.05188889,9.08935185 4.8925,9.05648148 4.73698148,9.02222222 C4.70531481,9.01527778 4.67540741,9.00787037 4.64514815,9.00046296 L4.64514815,7.18148148 C4.91712963,7.23935185 5.19896296,7.29166667 5.48888889,7.33703704 Z M6.05255556,9.25555556 L6.05255556,7.41805556 C6.32875926,7.45277778 6.61059259,7.48333333 6.8962963,7.5087963 L6.8962963,9.35138889 C6.61059259,9.32453704 6.32735185,9.29351852 6.05255556,9.25555556 Z M11.6821852,7.41805556 L11.6821852,9.25555556 C11.4098519,9.29166667 11.1280185,9.32638889 10.8366852,9.35324074 L10.8366852,7.5087963 C11.1227407,7.48333333 11.4042222,7.45277778 11.6821852,7.41805556 Z M13.6515,8.85416667 L13.6515,7.04953704 C13.9512778,6.97175926 14.2331111,6.88657407 14.497,6.79444444 L14.497,8.57916667 C14.2440185,8.675 13.9593704,8.76712963 13.6515,8.85416667 Z M12.2440926,9.16712963 L12.2440926,7.33703704 C12.5340185,7.29166667 12.8158519,7.23935185 13.0895926,7.18148148 L13.0895926,8.99722222 C12.8214815,9.05833333 12.5410556,9.1162037 12.2440926,9.16712963 Z M15.8396667,7.77083333 L15.8315741,7.76898148 L15.7284815,7.87407407 C15.58,8.02592593 15.3516481,8.17962963 15.0589074,8.32962963 L15.0589074,6.56666667 C15.3942222,6.41435185 15.6788704,6.24444444 15.9044074,6.05833333 L15.9044074,7.59027778 C15.9044074,7.6462963 15.8808333,7.70740741 15.8396667,7.77083333 Z M9.42540741,7.58472222 C9.7082963,7.57731481 9.99153704,7.56666667 10.2747778,7.55046296 L10.2747778,9.39675926 C10.2265741,9.40046296 10.1797778,9.4037037 10.1315741,9.40740741 C10.1287593,9.40740741 10.1248889,9.40740741 10.1206667,9.40925926 C9.93101852,9.42037037 9.73855556,9.42731481 9.54327778,9.43287037 C9.51337037,9.43472222 9.48311111,9.43472222 9.45285185,9.43657407 C9.35222222,9.43842593 9.24948148,9.44027778 9.14744444,9.44027778 L9.14744444,7.59027778 C9.22590741,7.59027778 9.30296296,7.58842593 9.38001852,7.58657407 L9.42540741,7.58472222 Z M8.35331481,7.58657407 C8.43001852,7.58842593 8.50707407,7.59027778 8.58553704,7.59027778 L8.58553704,9.44027778 C8.20624074,9.43472222 7.82940741,9.42222222 7.45996296,9.39861111 L7.45996296,7.55046296 C7.74144444,7.56666667 8.02468519,7.57916667 8.30792593,7.58657407 C8.32305556,7.58657407 8.33818519,7.58657407 8.35331481,7.58657407 Z M3.23774074,8.58287037 L3.23774074,6.79444444 C3.50022222,6.88657407 3.78311111,6.97175926 4.08148148,7.04953704 L4.08148148,8.85787037 C4.047,8.84675926 4.01146296,8.83796296 3.97698148,8.8287037 C3.82709259,8.78564815 3.68142593,8.74027778 3.54138889,8.6912037 C3.43548148,8.65694444 3.3337963,8.61898148 3.23774074,8.58287037 Z M9.8032963,13.8763889 C9.59148148,13.8689815 9.38388889,13.8583333 9.18051852,13.8453704 C9.16961111,13.8435185 9.1587037,13.8435185 9.14744444,13.8435185 L9.14744444,11.9935185 C9.43068519,12.0115741 9.71392593,12.0226852 9.99681481,12.0296296 C10.0119444,12.0296296 10.0270741,12.0296296 10.0407963,12.0314815 C10.1192593,12.0333333 10.1963148,12.0333333 10.2733704,12.0351852 L10.2733704,13.8851852 C10.1372037,13.8833333 9.99822222,13.8814815 9.86487037,13.8782407 C9.84446296,13.8763889 9.8237037,13.8763889 9.8032963,13.8763889 Z M13.6515,15.5671296 C13.9512778,15.4912037 14.2331111,15.4041667 14.497,15.312037 L14.497,17.100463 C14.2454259,17.1962963 13.9635926,17.2888889 13.6515,17.375463 L13.6515,15.5671296 Z M12.2440926,17.6884259 L12.2440926,15.8564815 C12.5340185,15.8111111 12.8158519,15.7587963 13.0895926,15.6990741 L13.0895926,17.5185185 C12.8242963,17.5800926 12.542463,17.637963 12.2440926,17.6884259 Z M11.0249259,17.8546296 C10.9633519,17.8601852 10.9000185,17.8675926 10.8366852,17.8726852 L10.8366852,16.0263889 C11.1227407,16.000463 11.4042222,15.9722222 11.6821852,15.9361111 L11.6821852,17.775 C11.5073148,17.7986111 11.3303333,17.8222222 11.1473704,17.8421296 C11.1062037,17.8458333 11.065037,17.8513889 11.0249259,17.8546296 Z M5.48888889,15.8564815 L5.48888889,17.6884259 C5.19192593,17.6361111 4.91009259,17.5800926 4.64514815,17.5185185 L4.64514815,15.6990741 C4.91712963,15.7587963 5.19896296,15.8111111 5.48888889,15.8564815 Z M6.19822222,17.7949074 C6.16937037,17.7916667 6.14051852,17.787963 6.11272222,17.7842593 C6.09231481,17.7805556 6.07155556,17.7787037 6.05255556,17.775 L6.05255556,15.9361111 C6.32875926,15.9722222 6.61059259,16.000463 6.8962963,16.0263889 L6.8962963,17.8726852 C6.65985185,17.849537 6.42622222,17.8240741 6.19822222,17.7949074 Z M6.8962963,20.0106481 C7.17390741,20.0449074 7.45574074,20.075463 7.74003704,20.1009259 L7.74003704,21.9472222 C7.4487037,21.9203704 7.16722222,21.8875 6.8962963,21.849537 L6.8962963,20.0106481 Z M5.48888889,19.7736111 C5.76087037,19.8333333 6.0427037,19.8856481 6.33262963,19.9310185 L6.33262963,21.762963 C6.03601852,21.7101852 5.75418519,21.6541667 5.48888889,21.5930556 L5.48888889,19.7736111 Z M4.92522222,19.6416667 L4.92522222,21.45 C4.61488889,21.362963 4.33164815,21.2708333 4.08148148,21.175 L4.08148148,19.3865741 C4.34396296,19.4787037 4.6272037,19.5657407 4.92522222,19.6416667 Z M14.497,19.6416667 C14.7950185,19.5638889 15.0782593,19.4787037 15.3407407,19.3865741 L15.3407407,21.175 C15.0905741,21.2708333 14.8073333,21.362963 14.497,21.45 L14.497,19.6416667 Z M13.0895926,19.9310185 C13.3795185,19.8837963 13.6613519,19.8314815 13.9333333,19.7736111 L13.9333333,21.5930556 C13.668037,21.6541667 13.3862037,21.7101852 13.0895926,21.762963 L13.0895926,19.9310185 Z M12.5259259,20.0106481 L12.5259259,21.849537 C12.255,21.8875 11.9735185,21.9203704 11.6821852,21.9472222 L11.6821852,20.0990741 C11.9664815,20.075463 12.2483148,20.0449074 12.5259259,20.0106481 Z M10.2691481,20.1787037 C10.5534444,20.1712963 10.8366852,20.1587963 11.1185185,20.1425926 L11.1185185,21.9907407 C10.7571667,22.0143519 10.3817407,22.0305556 9.99294444,22.0342593 L9.99294444,20.1824074 C10.07,20.1824074 10.1467037,20.1805556 10.2251667,20.1787037 C10.2402963,20.1787037 10.2540185,20.1787037 10.2691481,20.1787037 Z M9.19705556,20.1787037 C9.27551852,20.1805556 9.35222222,20.1824074 9.42927778,20.1842593 L9.42927778,22.0342593 C9.04048148,22.0305556 8.66505556,22.0162037 8.3037037,21.9925926 L8.3037037,20.1425926 C8.58553704,20.1606481 8.86842593,20.1712963 9.15307407,20.1787037 C9.1682037,20.1787037 9.18192593,20.1787037 9.19705556,20.1787037 Z M3.26377778,17.1115741 C3.25533333,17.1078704 3.24583333,17.1041667 3.23774074,17.100463 L3.23774074,15.312037 C3.50022222,15.4060185 3.78311111,15.4912037 4.08148148,15.5689815 L4.08148148,17.375463 C3.82322222,17.3032407 3.58537037,17.2273148 3.36827778,17.149537 C3.3337963,17.137037 3.29790741,17.1240741 3.26377778,17.1115741 Z M8.34909259,17.9560185 C8.21996296,17.9523148 8.09083333,17.9486111 7.96416667,17.9435185 L7.91596296,17.9416667 C7.76361111,17.9342593 7.61090741,17.9273148 7.45996296,17.9162037 L7.45996296,16.0680556 C7.74144444,16.0861111 8.02468519,16.0967593 8.30792593,16.1041667 C8.32305556,16.1041667 8.33818519,16.1041667 8.35331481,16.1041667 C8.43001852,16.1060185 8.50707407,16.1078704 8.58553704,16.1097222 L8.58553704,17.9597222 C8.53064815,17.9597222 8.47540741,17.9597222 8.42192593,17.9578704 C8.3972963,17.9578704 8.37231481,17.9560185 8.34909259,17.9560185 Z M9.57775926,17.950463 C9.53659259,17.9523148 9.49542593,17.9523148 9.45425926,17.9541667 C9.35362963,17.9578704 9.25053704,17.9578704 9.14885185,17.9597222 L9.14885185,16.1097222 C9.22590741,16.1078704 9.30296296,16.1060185 9.38107407,16.1041667 L9.42540741,16.1023148 C9.7082963,16.0967593 9.99294444,16.0842593 10.2747778,16.0680556 L10.2747778,17.9162037 C10.2142593,17.9217593 10.1537407,17.925463 10.0932222,17.9291667 C9.92292593,17.937963 9.75227778,17.9453704 9.57775926,17.950463 Z M15.8727407,16.2310185 L15.7777407,16.3412037 C15.6292593,16.512963 15.3833148,16.6847222 15.0589074,16.8509259 L15.0589074,15.0861111 C15.3942222,14.9324074 15.6788704,14.7625 15.9044074,14.5759259 L15.9044074,16.1097222 C15.9044074,16.1476852 15.8931481,16.1875 15.8727407,16.2310185 Z M18.1527407,9.44351852 C18.1238889,8.81064815 17.5521296,8.31527778 16.4057963,7.9375 C16.4445,7.82685185 16.4663148,7.71111111 16.4663148,7.59166667 L16.4663148,5.00046296 L16.4620926,5.00046296 C16.3604074,2.8412037 9.63827778,2.77777778 8.86737037,2.77777778 C8.0947037,2.77777778 1.37257407,2.8412037 1.27088889,5.00046296 L1.26666667,5.00046296 L1.26666667,7.59166667 C1.26807407,8.29537037 1.95805556,8.84675926 2.98475926,9.25740741 C2.97103704,9.31898148 2.96259259,9.38055556 2.95977778,9.44351852 L2.95590741,9.44351852 L2.95590741,12.0314815 C1.84933333,12.4078704 1.29692593,12.8958333 1.26948148,13.5180556 L1.26666667,13.5180556 L1.26666667,16.1115741 C1.26807407,16.6013889 1.60338889,17.0157407 2.15333333,17.362963 C2.13257407,17.437037 2.11885185,17.5148148 2.11462963,17.5925926 L2.11040741,17.5925926 L2.11040741,20.1861111 C2.11322222,21.4175926 4.22151852,22.1824074 6.5637963,22.5388889 C6.58033333,22.5439815 6.59651852,22.5532407 6.61446296,22.5532407 C6.62009259,22.5532407 6.62431481,22.549537 6.62959259,22.5476852 C7.08172222,22.6148148 7.54088889,22.6671296 7.99442593,22.7050926 C8.00392593,22.7069444 8.01237037,22.7125 8.02187037,22.7125 C8.0275,22.7125 8.03172222,22.7087963 8.037,22.7087963 C8.61298148,22.7537037 9.18051852,22.7773148 9.71111111,22.7773148 C10.2417037,22.7773148 10.8092407,22.7537037 11.3852222,22.7087963 C11.3905,22.7087963 11.3947222,22.7125 11.4003519,22.7125 C11.4098519,22.7125 11.4182963,22.7050926 11.4277963,22.7050926 C11.8813333,22.6671296 12.3405,22.6148148 12.7926296,22.5476852 C12.7979074,22.5476852 12.8021296,22.5513889 12.8077593,22.5513889 C12.8257037,22.5513889 12.8418889,22.5421296 12.8584259,22.5388889 C15.2007037,22.1805556 17.309,21.4157407 17.3118148,20.1842593 L17.3118148,17.5925926 L17.3061852,17.5925926 C17.2868333,17.1384259 16.9926852,16.7587963 16.4114259,16.4425926 C16.4473148,16.3356481 16.4663148,16.225463 16.4663148,16.1097222 L16.4663148,13.687963 C17.4764815,13.2796296 18.1541481,12.7333333 18.1555556,12.0351852 L18.1555556,9.44351852 L18.1527407,9.44351852 L18.1527407,9.44351852 Z" id="coins"></path>
        </g>
    </g>
</svg>