<?xml version="1.0" encoding="UTF-8"?>
<svg width="159px" height="51px" viewBox="0 0 159 51" version="1.1" xmlns="http://www.w3.org/2000/svg" xmlns:xlink="http://www.w3.org/1999/xlink">
    <!-- Generator: Sketch 54.1 (76490) - https://sketchapp.com -->
    <title>ROSIE_logo</title>
    <desc>Created with Sketch.</desc>
    <g id="Première-connexion" stroke="none" stroke-width="1" fill="none" fill-rule="evenodd">
        <g id="Première-connexion---Accueil" transform="translate(-22.000000, -31.000000)" fill="#FFFFFF">
            <g id="ROSIE_logo" transform="translate(16.000000, 19.000000)">
                <g id="Group" transform="translate(0.500000, 0.000000)" font-family="WorkSans-Bold, Work Sans" font-weight="bold">
                    <text id="ROS-E" font-size="50">
                        <tspan x="3.475" y="46.9206349">ROS  E</tspan>
                    </text>
                    <text id="ROADMAP-SIMPLIFIÉE" font-size="13">
                        <tspan x="14.1841515" y="61.5238095">ROADMAP SIMPLIFIÉE</tspan>
                    </text>
                </g>
                <g id="icon/coins" transform="translate(106.500000, 7.000000)">
                    <path d="M30.8518519,23.5221852 L30.8518519,20.2612963 C31.469537,19.9784815 31.9938889,19.6658519 32.4061111,19.3234074 L32.4061111,22.1447407 C32.4061111,22.5272222 31.8597222,23.0264074 30.8518519,23.5221852 Z M30.8440741,32.4231852 C30.7883333,32.8831852 29.9911111,33.4948148 28.5755556,34.0706667 C26.7425926,34.816037 23.8712963,35.4983704 20.2332407,35.7113333 C20.0459259,35.7215556 19.8612037,35.7309259 19.6712963,35.7377407 C19.517037,35.7445556 19.359537,35.7513704 19.2026852,35.7581852 C18.7723148,35.7675556 18.3367593,35.7777778 17.8888889,35.7777778 C17.4410185,35.7777778 17.0028704,35.7675556 16.5750926,35.7547778 C16.4175926,35.7513704 16.2633333,35.7445556 16.1090741,35.7377407 C15.9191667,35.7275185 15.7318519,35.7181481 15.544537,35.7079259 C11.9064815,35.4983704 9.03518519,34.816037 7.20222222,34.0706667 C5.83009259,33.5152593 5.03740741,32.9223704 4.93888889,32.4666296 C5.09314815,32.5364815 5.25259259,32.6063333 5.41722222,32.6727778 C5.43472222,32.6795926 5.45027778,32.6864074 5.46777778,32.6932222 C5.60712963,32.7494444 5.75101852,32.8031111 5.89814815,32.8559259 C5.95388889,32.8763704 6.00962963,32.8993704 6.06537037,32.9164074 C6.14898148,32.9462222 6.23259259,32.976037 6.31814815,33.0024444 C8.20685185,33.6379259 10.6173148,34.0902593 13.2202778,34.2938519 C13.2202778,34.2938519 13.2202778,34.2938519 13.2228704,34.2938519 C14.0278704,34.3534815 14.8484259,34.3935185 15.6787037,34.4071481 C15.8990741,34.4131111 16.1194444,34.4131111 16.3346296,34.4131111 C16.6178704,34.4131111 16.9114815,34.4097037 17.2076852,34.4037407 C17.9647222,34.3867037 18.7113889,34.3500741 19.4405556,34.2938519 C19.4431481,34.2938519 19.4431481,34.2938519 19.4457407,34.2938519 C19.4483333,34.2938519 19.4483333,34.2938519 19.4509259,34.2938519 C20.339537,34.2205926 21.2002778,34.1209259 22.0286111,33.9974074 C22.0312037,33.9974074 22.0331481,33.9974074 22.0383333,33.9974074 C22.0487037,33.9974074 22.0590741,33.9905926 22.0687963,33.9905926 C22.990463,33.8508889 23.8641667,33.677963 24.6743519,33.4786296 C24.8415741,33.4385926 25.0055556,33.3985556 25.1675926,33.3551111 C25.2058333,33.3448889 25.2414815,33.3355185 25.2764815,33.3252963 C26.8087037,32.913 28.1328704,32.3771852 29.0441667,31.7144444 C29.0921296,31.676963 29.1400926,31.6411852 29.1861111,31.6054074 C29.2444444,31.561963 29.299537,31.5151111 29.3533333,31.4682593 C29.4038889,31.4256667 29.4596296,31.3856296 29.505,31.3421852 C30.5303704,31.8209259 30.8110185,32.2502593 30.8440741,32.4231852 Z M29.2975926,38.5164815 L29.2975926,35.2555926 C29.9126852,34.9727778 30.4363889,34.6592963 30.8518519,34.3168519 L30.8518519,37.1356296 C30.8518519,37.5215185 30.3048148,38.0207037 29.2975926,38.5164815 Z M4.92592593,37.139037 L4.92592593,34.3168519 C5.34138889,34.6592963 5.86509259,34.9727778 6.48018519,35.2555926 L6.48018519,38.5164815 C5.47296296,38.0207037 4.92592593,37.5215185 4.92592593,37.139037 Z M3.37166667,29.6418889 L3.37166667,26.8197037 C3.78388889,27.163 4.30824074,27.4756296 4.92592593,27.7584444 L4.92592593,31.0057037 L4.62972222,30.8566296 L4.62453704,30.8625926 C3.80916667,30.4204815 3.37166667,29.9843333 3.37166667,29.6418889 Z M5.88324074,23.3995185 C5.89037037,23.4088889 5.90074074,23.4191111 5.91111111,23.4293333 C6.61953704,24.3706296 8.08824074,25.1125926 9.91861111,25.6654444 C9.96203704,25.6756667 10.0048148,25.6884444 10.0475926,25.7020741 C10.1817593,25.7421111 10.3185185,25.7821481 10.4578704,25.8187778 C12.1365741,26.2872963 14.144537,26.6271852 16.3294444,26.7967037 C16.332037,26.7967037 16.332037,26.7967037 16.332037,26.7967037 C16.3346296,26.7967037 16.3346296,26.7967037 16.3346296,26.7967037 C17.0385185,26.8495185 17.7547222,26.8852963 18.4890741,26.9031852 C18.8131481,26.9134074 19.132037,26.9202222 19.4431481,26.9202222 C19.8028704,26.9202222 20.1697222,26.9134074 20.5424074,26.8997778 C21.2210185,26.8835926 21.8892593,26.846963 22.5471296,26.7967037 C22.5497222,26.7967037 22.5523148,26.7967037 22.5549074,26.7967037 C22.5600926,26.7967037 22.5626852,26.7932963 22.5678704,26.7932963 C24.7605556,26.6237778 26.8158333,26.2813333 28.555463,25.7881111 C28.1782407,26.0445185 27.6616667,26.3145556 27.0212963,26.5735185 C25.0846296,27.3623333 21.9903704,28.0778889 18.0612963,28.244 C17.9446296,28.2474074 17.827963,28.2542222 17.7093519,28.2576296 C17.5823148,28.261037 17.4533333,28.2644444 17.3243519,28.2678519 C16.9976852,28.2738148 16.6710185,28.2806296 16.3346296,28.2806296 C15.8835185,28.2806296 15.447963,28.2738148 15.0201852,28.261037 C14.8607407,28.2542222 14.7064815,28.2474074 14.5496296,28.2405926 C14.3597222,28.2337778 14.175,28.2244074 13.9896296,28.2141852 C10.3515741,28.0012222 7.48027778,27.3188889 5.64472222,26.5735185 C4.21944444,25.9951111 3.42222222,25.3792222 3.3762037,24.9166667 C3.43453704,24.6602593 3.95888889,24.017963 5.88324074,23.3995185 Z M3.37166667,13.9686667 L3.37166667,11.1473333 C3.78388889,11.4897778 4.30824074,11.8024074 4.92592593,12.0826667 L4.92592593,15.346963 C3.91805556,14.8511852 3.37166667,14.352 3.37166667,13.9686667 Z M16.3346296,6.47577778 C24.8843519,6.47577778 29.2087963,8.24251852 29.2898148,9.25707407 C29.2262963,9.71962963 28.4290741,10.3287037 27.0212963,10.9011481 C25.1857407,11.6465185 22.3144444,12.3288519 18.6789815,12.5384074 C18.4916667,12.5477778 18.3069444,12.558 18.117037,12.5682222 C17.959537,12.575037 17.8052778,12.5818519 17.6484259,12.5844074 C17.2180556,12.598037 16.7825,12.6082593 16.3346296,12.6082593 C15.8835185,12.6082593 15.447963,12.598037 15.0201852,12.5844074 C14.8607407,12.5818519 14.7064815,12.575037 14.5496296,12.5682222 C14.3597222,12.558 14.175,12.5477778 13.9896296,12.5384074 C10.3515741,12.3288519 7.48027778,11.6465185 5.64472222,10.9011481 C4.23759259,10.3287037 3.43972222,9.71962963 3.3787963,9.25707407 C3.45981481,8.24251852 7.78425926,6.47577778 16.3346296,6.47577778 Z M32.4015741,17.4229259 C32.352963,17.8854815 31.5557407,18.5013704 30.1330556,19.0797778 C28.2975,19.8225926 25.4262037,20.5040741 21.7881481,20.717037 C21.6027778,20.7272593 21.415463,20.7374815 21.2281481,20.7468519 C21.0712963,20.7536667 20.917037,20.7570741 20.7575926,20.7638889 C20.3298148,20.7775185 19.8942593,20.7834815 19.4431481,20.7834815 C18.9952778,20.7834815 18.5597222,20.7775185 18.1293519,20.7638889 C17.9725,20.7570741 17.8182407,20.7502593 17.6607407,20.7442963 C17.4708333,20.7374815 17.2861111,20.7272593 17.0987963,20.717037 C13.4633333,20.5040741 10.592037,19.8225926 8.75648148,19.0772222 C7.34351852,18.5047778 6.54888889,17.8922963 6.48796296,17.4331481 C6.49055556,17.4195185 6.49055556,17.4092963 6.49833333,17.3931111 C6.53333333,17.4033333 6.57157407,17.4127037 6.60722222,17.4263333 C6.80944444,17.4893704 7.01944444,17.5498519 7.23009259,17.6094815 C8.26064815,17.8991111 9.40203704,18.1384815 10.6173148,18.3216296 C10.6225,18.3216296 10.6250926,18.325037 10.6302778,18.325037 L10.6328704,18.325037 C11.4605556,18.4477037 12.3212963,18.5448148 13.2027778,18.6146667 C13.2099074,18.6146667 13.2150926,18.6206296 13.2228704,18.6206296 C13.225463,18.6206296 13.2280556,18.6172222 13.2325926,18.6172222 C13.8684259,18.6640741 14.5113889,18.7007037 15.1621296,18.7211481 C15.5594444,18.7339259 15.9522222,18.7407407 16.3346296,18.7407407 C16.6055556,18.7407407 16.8836111,18.7373333 17.1675,18.7305185 C20.934537,18.6538519 24.4261111,18.0652222 26.8540741,17.1537407 C26.9681481,17.1102963 27.077037,17.0668519 27.1833333,17.0234074 C27.2487963,16.997 27.3175,16.974 27.3810185,16.9475926 C27.5683333,16.8675185 27.7478704,16.784037 27.9222222,16.7005556 C27.9526852,16.6877778 27.9805556,16.6707407 28.0110185,16.657963 C28.1581481,16.5847037 28.2994444,16.508037 28.4342593,16.4313704 C28.4718519,16.4083704 28.5126852,16.3845185 28.5502778,16.3649259 C28.6948148,16.278037 28.8341667,16.192 28.9631481,16.1017037 C29.0188889,16.0616667 29.0694444,16.0190741 29.1251852,15.979037 C29.1861111,15.9321852 29.2489815,15.8827778 29.3073148,15.8359259 C29.3403704,15.8095185 29.3786111,15.7822593 29.4084259,15.7558519 C31.7300926,16.4151852 32.3432407,17.1401111 32.4015741,17.4229259 Z M29.5886111,24.0545926 C29.33,24.1482963 29.0564815,24.2377407 28.7784259,24.3246296 C28.6494444,24.3646667 28.5172222,24.4004444 28.3830556,24.4404815 C28.3428704,24.4507037 28.2994444,24.4643333 28.2592593,24.4737037 L28.2592593,21.1497778 C28.8114815,21.0066667 29.33,20.8507778 29.8161111,20.677 L29.8161111,23.971963 C29.7402778,23.9983704 29.6644444,24.0247778 29.5886111,24.0545926 Z M23.6638889,25.3323704 C23.4687963,25.3528148 23.2691667,25.3655926 23.0740741,25.386037 L23.0740741,21.9914074 C23.6003704,21.9454074 24.119537,21.8917407 24.6283333,21.8252963 L24.6283333,25.2062963 C24.3275926,25.2497407 24.0287963,25.2880741 23.717037,25.3255556 C23.699537,25.3255556 23.682037,25.328963 23.6638889,25.3323704 Z M27.172963,24.7505556 C26.945463,24.799963 26.7173148,24.8536296 26.482037,24.8996296 C26.3452778,24.9268889 26.2059259,24.9532963 26.0691667,24.9797037 C25.9375926,25.0035556 25.8008333,25.0231481 25.6666667,25.0461481 L25.6666667,21.6787778 C26.2007407,21.5961481 26.7199074,21.499037 27.2235185,21.3925556 L27.2235185,24.7369259 C27.2060185,24.7403333 27.1911111,24.7471481 27.172963,24.7505556 Z M20.4737037,22.1345185 C20.995463,22.1217407 21.5172222,22.1012963 22.0357407,22.0680741 L22.0357407,25.4686667 C21.3551852,25.5121111 20.6636111,25.535963 19.9623148,25.5453333 L19.9623148,22.1447407 C20.1068519,22.1413333 20.2487963,22.1413333 20.3900926,22.1379259 L20.4737037,22.1345185 Z M8.03768519,20.2612963 L8.03768519,23.4991852 C7.22231481,23.0868889 6.69537037,22.6635185 6.5262037,22.2878519 L6.49055556,22.2111852 C6.48796296,22.1881852 6.48277778,22.1677407 6.48018519,22.1447407 L6.48018519,19.3234074 C6.89564815,19.6658519 7.42,19.9784815 8.03768519,20.2612963 Z M10.6302778,21.1497778 L10.6302778,24.4711481 C10.0553704,24.3075926 9.5362037,24.1346667 9.07277778,23.9583333 L9.07277778,20.677 C9.55888889,20.8507778 10.0780556,21.0066667 10.6302778,21.1497778 Z M12.2603704,24.8698148 C12.0555556,24.8263704 11.8630556,24.7803704 11.6653704,24.7335185 L11.6653704,21.3925556 C12.1696296,21.499037 12.6887963,21.5961481 13.2228704,21.6787778 L13.2228704,25.0495556 C12.9039815,24.9967407 12.5948148,24.9362593 12.2960185,24.8766296 C12.2837037,24.8732222 12.2733333,24.8698148 12.2603704,24.8698148 Z M15.6864815,25.3792222 C15.6151852,25.369 15.5471296,25.3621852 15.4758333,25.3562222 C15.1446296,25.323 14.8205556,25.2863704 14.5036111,25.2429259 C14.4355556,25.2361111 14.3668519,25.2258889 14.3013889,25.2165185 C14.2858333,25.2165185 14.2735185,25.2131111 14.257963,25.2097037 L14.257963,21.8252963 C14.77,21.8917407 15.2885185,21.9454074 15.815463,21.9914074 L15.815463,25.3894444 C15.772037,25.386037 15.7292593,25.3826296 15.6864815,25.3792222 Z M10.1111111,13.5001481 L10.1111111,16.8675185 C10.0074074,16.8504815 9.90111111,16.8377037 9.8,16.8172593 C9.73388889,16.807037 9.67037037,16.7942593 9.60490741,16.7806296 C9.30611111,16.7244074 9.0125,16.6639259 8.72601852,16.6008889 C8.66768519,16.5881111 8.61259259,16.5744815 8.55685185,16.5608519 L8.55685185,13.2139259 C9.05787037,13.3204074 9.57703704,13.4166667 10.1111111,13.5001481 Z M11.1494444,17.0302222 L11.1494444,13.6492222 C11.6582407,13.7131111 12.1774074,13.7693333 12.7037037,13.8161852 L12.7037037,17.2065556 C12.1774074,17.1571481 11.6556481,17.1000741 11.1494444,17.0302222 Z M21.5198148,13.6492222 L21.5198148,17.0302222 C21.0181481,17.0966667 20.4989815,17.1605556 19.9623148,17.209963 L19.9623148,13.8161852 C20.4892593,13.7693333 21.0077778,13.7131111 21.5198148,13.6492222 Z M25.1475,16.2916667 L25.1475,12.9711481 C25.6997222,12.828037 26.2188889,12.6712963 26.705,12.5017778 L26.705,15.7856667 C26.2389815,15.962 25.7146296,16.1315185 25.1475,16.2916667 Z M22.5549074,16.8675185 L22.5549074,13.5001481 C23.0889815,13.4166667 23.6081481,13.3204074 24.1124074,13.2139259 L24.1124074,16.5548889 C23.6185185,16.6673333 23.1019444,16.7738148 22.5549074,16.8675185 Z M29.1783333,14.2983333 L29.1634259,14.2949259 L28.9735185,14.4882963 C28.7,14.7677037 28.2793519,15.0505185 27.7400926,15.3265185 L27.7400926,12.0826667 C28.3577778,11.8024074 28.8821296,11.4897778 29.2975926,11.1473333 L29.2975926,13.9661111 C29.2975926,14.0691852 29.2541667,14.1816296 29.1783333,14.2983333 Z M17.3625926,13.9558889 C17.8837037,13.9422593 18.405463,13.9226667 18.9272222,13.8928519 L18.9272222,17.290037 C18.8384259,17.2968519 18.7522222,17.3028148 18.6634259,17.3096296 C18.6582407,17.3096296 18.6511111,17.3096296 18.6433333,17.313037 C18.2939815,17.3334815 17.9394444,17.3462593 17.5797222,17.3564815 C17.5246296,17.3598889 17.4688889,17.3598889 17.4131481,17.3632963 C17.2277778,17.3667037 17.0385185,17.3701111 16.8505556,17.3701111 L16.8505556,13.9661111 C16.9950926,13.9661111 17.137037,13.9627037 17.2789815,13.9592963 L17.3625926,13.9558889 Z M15.3876852,13.9592963 C15.5289815,13.9627037 15.6709259,13.9661111 15.815463,13.9661111 L15.815463,17.3701111 C15.1167593,17.3598889 14.4225926,17.3368889 13.742037,17.2934444 L13.742037,13.8928519 C14.2605556,13.9226667 14.7823148,13.9456667 15.3040741,13.9592963 C15.3319444,13.9592963 15.3598148,13.9592963 15.3876852,13.9592963 Z M5.96425926,15.7924815 L5.96425926,12.5017778 C6.44777778,12.6712963 6.96888889,12.828037 7.51851852,12.9711481 L7.51851852,16.2984815 C7.455,16.278037 7.38953704,16.2618519 7.32601852,16.2448148 C7.04990741,16.1655926 6.78157407,16.0821111 6.52361111,15.9918148 C6.32851852,15.9287778 6.1412037,15.8589259 5.96425926,15.7924815 Z M18.0587037,25.5325556 C17.6685185,25.5189259 17.2861111,25.4993333 16.9114815,25.4754815 C16.8913889,25.4720741 16.8712963,25.4720741 16.8505556,25.4720741 L16.8505556,22.0680741 C17.3723148,22.1012963 17.8940741,22.1217407 18.4151852,22.1345185 C18.4430556,22.1345185 18.4709259,22.1345185 18.4962037,22.1379259 C18.6407407,22.1413333 18.7826852,22.1413333 18.9246296,22.1447407 L18.9246296,25.5487407 C18.6737963,25.5453333 18.4177778,25.5419259 18.1721296,25.535963 C18.134537,25.5325556 18.0962963,25.5325556 18.0587037,25.5325556 Z M25.1475,28.6435185 C25.6997222,28.5038148 26.2188889,28.3436667 26.705,28.1741481 L26.705,31.4648519 C26.2415741,31.6411852 25.7224074,31.8115556 25.1475,31.9708519 L25.1475,28.6435185 Z M22.5549074,32.5467037 L22.5549074,29.1759259 C23.0889815,29.0924444 23.6081481,28.9961852 24.1124074,28.8862963 L24.1124074,32.2340741 C23.6237037,32.3473704 23.104537,32.4538519 22.5549074,32.5467037 Z M20.3090741,32.8525185 C20.1956481,32.8627407 20.0789815,32.8763704 19.9623148,32.8857407 L19.9623148,29.4885556 C20.4892593,29.4408519 21.0077778,29.3888889 21.5198148,29.3224444 L21.5198148,32.706 C21.1976852,32.7494444 20.8716667,32.7928889 20.5346296,32.8295185 C20.4587963,32.8363333 20.382963,32.8465556 20.3090741,32.8525185 Z M10.1111111,29.1759259 L10.1111111,32.5467037 C9.56407407,32.4504444 9.04490741,32.3473704 8.55685185,32.2340741 L8.55685185,28.8862963 C9.05787037,28.9961852 9.57703704,29.0924444 10.1111111,29.1759259 Z M11.4177778,32.7426296 C11.3646296,32.7366667 11.3114815,32.7298519 11.2602778,32.723037 C11.2226852,32.7162222 11.1844444,32.7128148 11.1494444,32.706 L11.1494444,29.3224444 C11.6582407,29.3888889 12.1774074,29.4408519 12.7037037,29.4885556 L12.7037037,32.8857407 C12.2681481,32.8431481 11.8377778,32.7962963 11.4177778,32.7426296 Z M12.7037037,36.8195926 C13.2150926,36.8826296 13.7342593,36.9388519 14.257963,36.9857037 L14.257963,40.3828889 C13.7212963,40.3334815 13.2027778,40.273 12.7037037,40.2031481 L12.7037037,36.8195926 Z M10.1111111,36.3834444 C10.6121296,36.4933333 11.1312963,36.5895926 11.6653704,36.6730741 L11.6653704,40.0438519 C11.1189815,39.9467407 10.5998148,39.8436667 10.1111111,39.7312222 L10.1111111,36.3834444 Z M9.07277778,36.1406667 L9.07277778,39.468 C8.50111111,39.3078519 7.97935185,39.1383333 7.51851852,38.962 L7.51851852,35.6712963 C8.00203704,35.8408148 8.5237963,36.000963 9.07277778,36.1406667 Z M26.705,36.1406667 C27.2539815,35.9975556 27.7757407,35.8408148 28.2592593,35.6712963 L28.2592593,38.962 C27.7984259,39.1383333 27.2766667,39.3078519 26.705,39.468 L26.705,36.1406667 Z M24.1124074,36.6730741 C24.6464815,36.5861852 25.1656481,36.4899259 25.6666667,36.3834444 L25.6666667,39.7312222 C25.177963,39.8436667 24.6587963,39.9467407 24.1124074,40.0438519 L24.1124074,36.6730741 Z M23.0740741,36.8195926 L23.0740741,40.2031481 C22.575,40.273 22.0564815,40.3334815 21.5198148,40.3828889 L21.5198148,36.9822963 C22.0435185,36.9388519 22.5626852,36.8826296 23.0740741,36.8195926 Z M18.9168519,37.1288148 C19.4405556,37.1151852 19.9623148,37.0921852 20.4814815,37.0623704 L20.4814815,40.462963 C19.8158333,40.5064074 19.1242593,40.5362222 18.4080556,40.543037 L18.4080556,37.1356296 C18.55,37.1356296 18.6912963,37.1322222 18.8358333,37.1288148 C18.8637037,37.1288148 18.8889815,37.1288148 18.9168519,37.1288148 Z M16.9419444,37.1288148 C17.0864815,37.1322222 17.2277778,37.1356296 17.3697222,37.139037 L17.3697222,40.543037 C16.6535185,40.5362222 15.9619444,40.5098148 15.2962963,40.4663704 L15.2962963,37.0623704 C15.815463,37.0955926 16.3365741,37.1151852 16.8609259,37.1288148 C16.8887963,37.1288148 16.9140741,37.1288148 16.9419444,37.1288148 Z M6.01222222,31.4852963 C5.99666667,31.4784815 5.97916667,31.4716667 5.96425926,31.4648519 L5.96425926,28.1741481 C6.44777778,28.3470741 6.96888889,28.5038148 7.51851852,28.6469259 L7.51851852,31.9708519 C7.04277778,31.837963 6.60462963,31.6982593 6.20472222,31.5551481 C6.1412037,31.5321481 6.07509259,31.5082963 6.01222222,31.4852963 Z M15.3799074,33.0390741 C15.142037,33.0322593 14.9041667,33.0254444 14.6708333,33.0160741 L14.582037,33.0126667 C14.3013889,32.999037 14.0200926,32.9862593 13.742037,32.9658148 L13.742037,29.5652222 C14.2605556,29.5984444 14.7823148,29.618037 15.3040741,29.6316667 C15.3319444,29.6316667 15.3598148,29.6316667 15.3876852,29.6316667 C15.5289815,29.6350741 15.6709259,29.6384815 15.815463,29.6418889 L15.815463,33.0458889 C15.7143519,33.0458889 15.6125926,33.0458889 15.5140741,33.0424815 C15.4687037,33.0424815 15.4226852,33.0390741 15.3799074,33.0390741 Z M17.6432407,33.0288519 C17.5674074,33.0322593 17.4915741,33.0322593 17.4157407,33.0356667 C17.2303704,33.0424815 17.040463,33.0424815 16.8531481,33.0458889 L16.8531481,29.6418889 C16.9950926,29.6384815 17.137037,29.6350741 17.2809259,29.6316667 L17.3625926,29.6282593 C17.8837037,29.618037 18.4080556,29.595037 18.9272222,29.5652222 L18.9272222,32.9658148 C18.8157407,32.976037 18.7042593,32.9828519 18.5927778,32.9896667 C18.2790741,33.0058519 17.9647222,33.0194815 17.6432407,33.0288519 Z M29.2392593,29.8650741 L29.0642593,30.0678148 C28.7907407,30.3838519 28.3376852,30.6998889 27.7400926,31.0057037 L27.7400926,27.7584444 C28.3577778,27.4756296 28.8821296,27.163 29.2975926,26.8197037 L29.2975926,29.6418889 C29.2975926,29.7117407 29.2768519,29.785 29.2392593,29.8650741 Z M33.4392593,17.3760741 C33.3861111,16.2115926 32.3328704,15.3001111 30.2212037,14.605 C30.2925,14.4014074 30.3326852,14.1884444 30.3326852,13.9686667 L30.3326852,9.20085185 L30.3249074,9.20085185 C30.1375926,5.22781481 17.7547222,5.11111111 16.3346296,5.11111111 C14.9112963,5.11111111 2.52842593,5.22781481 2.34111111,9.20085185 L2.33333333,9.20085185 L2.33333333,13.9686667 C2.33592593,15.2634815 3.60694444,16.278037 5.49824074,17.0336296 C5.47296296,17.1469259 5.45740741,17.2602222 5.45222222,17.3760741 L5.44509259,17.3760741 L5.44509259,22.1379259 C3.40666667,22.8304815 2.38907407,23.7283333 2.33851852,24.8732222 L2.33333333,24.8732222 L2.33333333,29.6452963 C2.33592593,30.5465556 2.95361111,31.308963 3.96666667,31.9478519 C3.92842593,32.0841481 3.90314815,32.2272593 3.89537037,32.3703704 L3.88759259,32.3703704 L3.88759259,37.1424444 C3.89277778,39.4083704 7.77648148,40.8156296 12.0912037,41.4715556 C12.1216667,41.4809259 12.1514815,41.497963 12.184537,41.497963 C12.1949074,41.497963 12.2026852,41.4911481 12.2124074,41.4877407 C13.0452778,41.6112593 13.8911111,41.7075185 14.7265741,41.7773704 C14.7440741,41.7807778 14.7596296,41.791 14.7771296,41.791 C14.7875,41.791 14.7952778,41.7841852 14.805,41.7841852 C15.8660185,41.8668148 16.9114815,41.9102593 17.8888889,41.9102593 C18.8662963,41.9102593 19.9117593,41.8668148 20.9727778,41.7841852 C20.9825,41.7841852 20.9902778,41.791 21.0006481,41.791 C21.0181481,41.791 21.0337037,41.7773704 21.0512037,41.7773704 C21.8866667,41.7075185 22.7325,41.6112593 23.5653704,41.4877407 C23.5750926,41.4877407 23.5828704,41.4945556 23.5932407,41.4945556 C23.6262963,41.4945556 23.6561111,41.4775185 23.6865741,41.4715556 C28.0012963,40.8122222 31.885,39.404963 31.8901852,37.139037 L31.8901852,32.3703704 L31.8798148,32.3703704 C31.8441667,31.5347037 31.3023148,30.8361852 30.2315741,30.2543704 C30.2976852,30.0575926 30.3326852,29.8548519 30.3326852,29.6418889 L30.3326852,25.1858519 C32.1935185,24.4345185 33.4418519,23.4293333 33.4444444,22.1447407 L33.4444444,17.3760741 L33.4392593,17.3760741 L33.4392593,17.3760741 Z" id="coins"></path>
                </g>
            </g>
        </g>
    </g>
</svg>