<?xml version="1.0" encoding="UTF-8"?>
<svg width="35px" height="12px" viewBox="0 0 35 12" version="1.1" xmlns="http://www.w3.org/2000/svg" xmlns:xlink="http://www.w3.org/1999/xlink">
    <!-- Generator: Sketch 54.1 (76490) - https://sketchapp.com -->
    <title>server</title>
    <desc>Created with Sketch.</desc>
    <g id="SYMBOLES" stroke="none" stroke-width="1" fill="none" fill-rule="evenodd">
        <g id="serveurs" transform="translate(-247.000000, -25.000000)" fill-rule="nonzero">
            <g id="Group-4" transform="translate(248.000000, 19.000000)">
                <g id="server" transform="translate(0.000000, 7.000000)">
                    <path d="M5.33333333,1.84745763 C3.955,1.84745763 2.83333333,2.96912429 2.83333333,4.34745763 C2.83333333,5.72579096 3.955,6.84745763 5.33333333,6.84745763 C6.71166667,6.84745763 7.83333333,5.72579096 7.83333333,4.34745763 C7.83333333,2.96912429 6.71166667,1.84745763 5.33333333,1.84745763 Z M5.33333333,5.73634652 C4.56777778,5.73634652 3.94444444,5.11356874 3.94444444,4.34745763 C3.94444444,3.58134652 4.56777778,2.95856874 5.33333333,2.95856874 C6.09888889,2.95856874 6.72222222,3.58134652 6.72222222,4.34745763 C6.72222222,5.11356874 6.09888889,5.73634652 5.33333333,5.73634652 Z" id="Shape" fill="#4C4C4C"></path>
                    <circle id="Oval" fill="#4C4C4C" cx="28.3333333" cy="3.34745763" r="1"></circle>
                    <circle id="Oval" fill="#4C4C4C" cx="25.3333333" cy="3.34745763" r="1"></circle>
                    <circle id="Oval" fill="#4C4C4C" cx="29.3333333" cy="5.34745763" r="1"></circle>
                    <circle id="Oval" fill="#4C4C4C" cx="27.3333333" cy="5.34745763" r="1"></circle>
                    <circle id="Oval" fill="#4C4C4C" cx="23.3333333" cy="3.34745763" r="1"></circle>
                    <circle id="Oval" fill="#4C4C4C" cx="24.3333333" cy="5.34745763" r="1"></circle>
                    <circle id="Oval" fill="#4C4C4C" cx="21.3333333" cy="3.34745763" r="1"></circle>
                    <circle id="Oval" fill="#4C4C4C" cx="22.3333333" cy="5.34745763" r="1"></circle>
                    <circle id="Oval" fill="#4C4C4C" cx="18.3333333" cy="3.34745763" r="1"></circle>
                    <circle id="Oval" fill="#4C4C4C" cx="20.3333333" cy="5.34745763" r="1"></circle>
                    <path d="M1.52133333,9.79661017 C0.6825,9.79661017 0,9.12237288 0,8.29369492 L0,1.50291525 C0,0.674237288 0.6825,-4.4408921e-16 1.52133333,-4.4408921e-16 L31.14475,-4.4408921e-16 C31.9841667,-4.4408921e-16 32.6666667,0.674237288 32.6666667,1.50291525 L32.6666667,8.29311864 C32.6666667,9.12179661 31.9841667,9.7960339 31.1453333,9.7960339 L1.52133333,9.7960339 L1.52133333,9.79661017 Z" id="Path" stroke="#4C4C4C"></path>
                </g>
            </g>
        </g>
    </g>
</svg>