<?xml version="1.0" encoding="UTF-8"?>
<svg width="90px" height="107px" viewBox="0 0 90 107" version="1.1" xmlns="http://www.w3.org/2000/svg" xmlns:xlink="http://www.w3.org/1999/xlink">
    <!-- Generator: Sketch 54.1 (76490) - https://sketchapp.com -->
    <title>Shape</title>
    <desc>Created with Sketch.</desc>
    <g id="Première-connexion" stroke="none" stroke-width="1" fill="none" fill-rule="evenodd">
        <g id="Première-connexion---Étape-3" transform="translate(-693.000000, -240.000000)" fill="#005BBB" fill-rule="nonzero">
            <g id="Vide" transform="translate(497.000000, 240.000000)">
                <path d="M283.916667,1.0658141e-13 L198.083333,1.0658141e-13 C196.932617,1.0658141e-13 196,0.933978966 196,2.08637558 L196,104.736054 C196,105.888451 196.932617,106.82243 198.083333,106.82243 L283.916667,106.82243 C285.067383,106.82243 286,105.888451 286,104.736054 L286,2.08637558 C286,0.933978966 285.067383,1.0658141e-13 283.916667,1.0658141e-13 Z M200.166667,68.4331192 L200.166667,38.3893107 L219.764648,38.3893107 L225.50765,53.7266163 C225.812825,54.5407916 226.590006,55.0803154 227.458333,55.0803154 L254.541667,55.0803154 C255.409994,55.0803154 256.187175,54.5407916 256.49235,53.7266163 L262.235352,38.3893107 L281.833333,38.3893107 L281.833333,68.4331192 L200.166667,68.4331192 Z M256.222982,76.7794364 L225.777018,76.7794364 L224.214518,72.6058703 L257.785482,72.6058703 L256.222982,76.7794364 Z M254.660482,80.9521876 L253.097982,85.1241238 L228.902018,85.1241238 L227.339518,80.9521876 L254.660482,80.9521876 Z M256.222982,42.5628769 L225.777018,42.5628769 L224.214518,38.3893107 L257.785482,38.3893107 L256.222982,42.5628769 Z M254.660482,46.735628 L253.097982,50.9075643 L228.902018,50.9075643 L227.339518,46.735628 L254.660482,46.735628 Z M257.785482,4.17275117 L256.222982,8.34631727 L225.777018,8.34631727 L224.214518,4.17275117 L257.785482,4.17275117 Z M254.660482,12.5190684 L253.097982,16.6910047 L228.902018,16.6910047 L227.339518,12.5190684 L254.660482,12.5190684 Z M200.166667,4.17275117 L219.764648,4.17275117 L225.50765,19.5100567 C225.812825,20.3242321 226.590006,20.8637558 227.458333,20.8637558 L254.541667,20.8637558 C255.409994,20.8637558 256.187175,20.3242321 256.49235,19.5100567 L262.235352,4.17275117 L281.833333,4.17275117 L281.833333,34.2165596 L200.166667,34.2165596 L200.166667,4.17275117 Z M281.833333,102.649679 L200.166667,102.649679 L200.166667,98.4769276 L206.416667,98.4769276 C207.564941,98.4769276 208.5,97.5421335 208.5,96.390552 C208.5,95.2406004 207.564941,94.3041764 206.416667,94.3041764 L200.166667,94.3041764 L200.166667,72.6058703 L219.764648,72.6058703 L225.50765,87.9431759 C225.812825,88.7573512 226.590006,89.296875 227.458333,89.296875 L254.541667,89.296875 C255.409994,89.296875 256.187175,88.7573512 256.49235,87.9431759 L262.235352,72.6058703 L281.833333,72.6058703 L281.833333,102.649679 Z" id="Shape"></path>
            </g>
        </g>
    </g>
</svg>