<?xml version="1.0" encoding="UTF-8"?>
<svg width="19px" height="19px" viewBox="0 0 19 19" version="1.1" xmlns="http://www.w3.org/2000/svg" xmlns:xlink="http://www.w3.org/1999/xlink">
    <!-- Generator: Sketch 54.1 (76490) - https://sketchapp.com -->
    <title>Shape</title>
    <desc>Created with Sketch.</desc>
    <g id="SYMBOLES" stroke="none" stroke-width="1" fill="none" fill-rule="evenodd">
        <g id="modifié_le" transform="translate(0.000000, -3.000000)" fill="#4C4C4C">
            <g id="Group-6">
                <path d="M17.5908086,17.6707583 L17.5908086,17.6707583 L17.5886961,17.6660949 C17.5879786,17.6637831 17.5866633,17.6616307 17.5858661,17.6593587 C17.5838333,17.6534597 17.5816012,17.6474011 17.5791698,17.6417811 C17.5777349,17.6383133 17.5759811,17.6350449 17.5743868,17.6316569 C17.5721547,17.626834 17.5698429,17.6220111 17.5672919,17.6173078 C17.564741,17.6126045 17.5625488,17.6093361 17.5601174,17.6051509 C17.557686,17.6009657 17.5557329,17.5978567 17.5533414,17.5943093 C17.5501128,17.5895263 17.5466053,17.5849027 17.5430977,17.5803588 C17.5411048,17.577768 17.5391118,17.5750974 17.5371189,17.572387 C17.532854,17.5672054 17.5283101,17.5622629 17.5236865,17.55744 C17.5222516,17.5559652 17.5210558,17.5544108 17.5197006,17.552936 L17.5165917,17.5497871 L17.5157148,17.5489501 L5.43788676,5.42588246 C5.43242612,5.42042182 5.42664661,5.4153199 5.42078738,5.41033756 C5.41580504,5.40447833 5.41078284,5.3986191 5.40524248,5.39307874 L3.38069883,3.3610018 C3.15445288,3.13057484 2.84523118,3.00053114 2.52230157,3.00000143 L2.52230157,3.00000143 C2.21168652,2.99951475 1.91386014,3.12365933 1.69555213,3.34461986 L0.356777652,4.68841654 C-0.112399267,5.15934724 -0.119852847,5.94759317 0.34043558,6.40967523 L2.36497923,8.44187176 C2.37051959,8.44745197 2.37637882,8.45255389 2.38231777,8.45757609 C2.38722039,8.4633556 2.39216287,8.46913512 2.39762351,8.47459576 L14.4793975,20.6016094 C14.4810317,20.6032436 14.4828652,20.6046785 14.4845393,20.6062729 C14.4888042,20.6102588 14.4931488,20.6142446 14.4976927,20.6182305 C14.5001639,20.6203032 14.5027946,20.6222164 14.5053456,20.624289 C14.5099293,20.6278763 14.5145529,20.6313839 14.5194157,20.634732 C14.5223254,20.6367249 14.5253546,20.6387179 14.5283839,20.6404717 C14.5330075,20.6433813 14.5376311,20.6462512 14.542454,20.6489217 C14.546121,20.6509146 14.5498677,20.6529076 14.5535746,20.6545418 C14.5579591,20.6566942 14.5623037,20.6588864 14.5668077,20.6608395 C14.5713117,20.6627925 14.5759752,20.6644268 14.5805589,20.6661407 C14.5837078,20.6672966 14.5866573,20.6686518 14.589846,20.669728 L18.4756322,21.9479969 C18.5751037,21.9805874 18.6844476,21.9548809 18.7589779,21.881383 C18.8335083,21.8078851 18.8607375,21.6989104 18.8295377,21.598994 L17.5908086,17.6707583 Z M0.752096375,5.08222063 L2.09091071,3.73846382 C2.20473166,3.62295919 2.36013955,3.55795582 2.52230157,3.55802342 C2.69678762,3.55898283 2.86359929,3.62988281 2.98538011,3.75484575 L4.84638345,5.62270479 L2.59524302,7.88229527 L0.735794161,6.01583128 C0.488112114,5.76727235 0.495406259,5.33970792 0.752096375,5.08222063 Z M5.24018754,6.01814309 L16.9281176,17.7499975 L14.6771366,20.0095082 L2.98912683,8.27765385 L5.24018754,6.01814309 Z M15.1940643,20.2811852 L17.1944934,18.2732627 L18.1328871,21.2479982 L15.1940643,20.2811852 Z" id="Shape" transform="translate(9.421126, 12.480950) scale(-1, 1) translate(-9.421126, -12.480950) "></path>
            </g>
        </g>
    </g>
</svg>