<?xml version="1.0" encoding="UTF-8"?>
<svg width="101px" height="78px" viewBox="0 0 101 78" version="1.1" xmlns="http://www.w3.org/2000/svg" xmlns:xlink="http://www.w3.org/1999/xlink">
    <!-- Generator: Sketch 54.1 (76490) - https://sketchapp.com -->
    <title>upload-to-cloud</title>
    <desc>Created with Sketch.</desc>
    <g id="Mon-prévisionnel" stroke="none" stroke-width="1" fill="none" fill-rule="evenodd" opacity="0.700241815">
        <g id="Mon-prévisionnel---Modification---Importer" transform="translate(-632.000000, -327.000000)" fill="#001A70" fill-rule="nonzero">
            <g id="Popin">
                <g id="Group" transform="translate(409.000000, 180.000000)">
                    <g id="upload-to-cloud" transform="translate(223.000000, 147.000000)">
                        <path d="M77.9423231,25.6836338 C76.9963795,11.3627733 65.0321666,0 50.4615442,0 C35.8871449,0 23.9208719,11.3675753 22.9800786,25.6935809 C9.94974775,27.3310935 0,38.4208337 0,51.7274242 C0,66.2139568 11.7976856,78 26.2992936,78 L66.2943404,78 C67.4318763,78 68.3544718,77.0783418 68.3544718,75.9419616 C68.3544718,74.8055813 67.4318763,73.8839231 66.2943404,73.8839231 L26.2992936,73.8839231 C14.0696671,73.8835801 4.12026272,63.9442834 4.12026272,51.7274242 C4.12026272,39.9708796 13.3335135,30.2661994 25.0948034,29.6340385 C26.1880465,29.5753845 27.0443744,28.6725916 27.0443744,27.5790872 C27.0443744,27.5382694 27.0433443,27.4981377 27.0409409,27.4573199 C27.0718428,14.5822314 37.566152,4.11607689 50.4615442,4.11607689 C63.3589966,4.11607689 73.8550225,14.5839464 73.8821476,27.462122 C73.8804308,27.5019107 73.8790574,27.5437575 73.8790574,27.5749711 C73.8790574,28.6712196 74.7391622,29.5750414 75.8348087,29.6302655 C87.6359279,30.2274396 96.8797373,39.9334919 96.8797373,51.7270812 C96.8797373,58.4246243 93.8932335,64.6930664 88.6859082,68.9247365 C87.8031419,69.6419629 87.66992,70.9381841 88.3878758,71.8197106 C89.1058316,72.70158 90.403371,72.8346665 91.2857939,72.1174401 C97.4593209,67.1006284 101,59.6687086 101,51.7267382 C101,38.3793299 91.0166034,27.2854737 77.9423231,25.6836338 Z" id="Path"></path>
                        <path d="M49,37.0336455 L49,62.9663545 C49,64.0892657 49.8956667,65 51,65 C52.1043333,65 53,64.0892657 53,62.9663545 L53,37.0336455 C53,35.9107343 52.1043333,35 51,35 C49.8956667,35 49,35.9107343 49,37.0336455 Z" id="Path"></path>
                        <path d="M61.9908258,39.999919 C62.5051529,39.999919 63.0191453,39.8101379 63.4115876,39.4308994 C64.1961375,38.6720985 64.1961375,37.4417594 63.4115876,36.6829586 L51.9205944,25.5691006 C51.1360446,24.8102998 49.8636206,24.8102998 49.0794056,25.5691006 L37.5884124,36.6829586 C36.8038625,37.4417594 36.8038625,38.6720985 37.5884124,39.4308994 C38.3729622,40.1897002 39.6453862,40.1897002 40.4296012,39.4308994 L50.4998326,29.6911738 L60.5700639,39.4308994 C60.9625063,39.8101379 61.4768335,39.999919 61.9908258,39.999919 Z" id="Path"></path>
                    </g>
                </g>
            </g>
        </g>
    </g>
</svg>