<?xml version="1.0" encoding="UTF-8"?>
<svg width="33px" height="19px" viewBox="0 0 33 19" version="1.1" xmlns="http://www.w3.org/2000/svg" xmlns:xlink="http://www.w3.org/1999/xlink">
    <!-- Generator: Sketch 54.1 (76490) - https://sketchapp.com -->
    <title>menu/icon/écarts</title>
    <desc>Created with Sketch.</desc>
    <g id="Mon-prévisionnel" stroke="none" stroke-width="1" fill="none" fill-rule="evenodd">
        <g id="Mon-prévisionnel---Modification---Ajout-souscription" transform="translate(-382.000000, -486.000000)" fill="#FE5815">
            <g id="Group-9" transform="translate(176.000000, 363.000000)">
                <g id="modification_prévisionnel" transform="translate(0.000000, 99.000000)">
                    <g id="menu/icon/écarts" transform="translate(203.000000, 13.000000)">
                        <path d="M8,25 L31,25 L31,24.8216732 C31,24.2693884 31.4477153,23.8216732 32,23.8216732 C32.190184,23.8216732 32.3764246,23.8759065 32.5368755,23.9780117 L35.1742462,25.6563385 C35.6401876,25.9528467 35.7775404,26.5709341 35.4810322,27.0368755 C35.4024535,27.1603563 35.297727,27.2650828 35.1742462,27.3436615 L32.5368755,29.0219883 C32.0709341,29.3184965 31.4528467,29.1811437 31.1563385,28.7152023 C31.0542334,28.5547514 31,28.3685109 31,28.1783268 L31,28 L8,28 L8,28.1783268 C8,28.7306116 7.55228475,29.1783268 7,29.1783268 C6.80981598,29.1783268 6.62357544,29.1240935 6.46312451,29.0219883 L3.82575377,27.3436615 C3.35981239,27.0471533 3.22245962,26.4290659 3.51896777,25.9631245 C3.59754646,25.8396437 3.70227296,25.7349172 3.82575377,25.6563385 L6.46312451,23.9780117 C6.92906588,23.6815035 7.54715334,23.8188563 7.84366149,24.2847977 C7.94576663,24.4452486 8,24.6314891 8,24.8216732 L8,25 Z" id="Combined-Shape"></path>
                        <g id="icon/coins" transform="translate(9.000000, 9.000000)">
                            <path d="M20.2740741,11.7610926 L20.2740741,10.1306481 C20.6799815,9.98924074 21.0245556,9.83292593 21.2954444,9.6617037 L21.2954444,11.0723704 C21.2954444,11.2636111 20.9363889,11.5132037 20.2740741,11.7610926 Z M20.268963,16.2115926 C20.2323333,16.4415926 19.7084444,16.7474074 18.7782222,17.0353333 C17.5737037,17.4080185 15.6868519,17.7491852 13.2961296,17.8556667 C13.173037,17.8607778 13.0516481,17.865463 12.9268519,17.8688704 C12.8254815,17.8722778 12.7219815,17.8756852 12.6189074,17.8790926 C12.3360926,17.8837778 12.0498704,17.8888889 11.7555556,17.8888889 C11.4612407,17.8888889 11.1733148,17.8837778 10.8922037,17.8773889 C10.7887037,17.8756852 10.6873333,17.8722778 10.585963,17.8688704 C10.4611667,17.8637593 10.3380741,17.8590741 10.2149815,17.853963 C7.82425926,17.7491852 5.93740741,17.4080185 4.73288889,17.0353333 C3.8312037,16.7576296 3.3102963,16.4611852 3.24555556,16.2333148 C3.34692593,16.2682407 3.4517037,16.3031667 3.55988889,16.3363889 C3.57138889,16.3397963 3.58161111,16.3432037 3.59311111,16.3466111 C3.68468519,16.3747222 3.77924074,16.4015556 3.87592593,16.427963 C3.91255556,16.4381852 3.94918519,16.4496852 3.98581481,16.4582037 C4.04075926,16.4731111 4.0957037,16.4880185 4.15192593,16.5012222 C5.39307407,16.818963 6.97709259,17.0451296 8.68761111,17.1469259 C8.68761111,17.1469259 8.68761111,17.1469259 8.68931481,17.1469259 C9.21831481,17.1767407 9.75753704,17.1967593 10.3031481,17.2035741 C10.447963,17.2065556 10.5927778,17.2065556 10.7341852,17.2065556 C10.9203148,17.2065556 11.1132593,17.2048519 11.3079074,17.2018704 C11.8053889,17.1933519 12.2960556,17.175037 12.7752222,17.1469259 C12.7769259,17.1469259 12.7769259,17.1469259 12.7786296,17.1469259 C12.7803333,17.1469259 12.7803333,17.1469259 12.782037,17.1469259 C13.3659815,17.1102963 13.9316111,17.060463 14.4759444,16.9987037 C14.4776481,16.9987037 14.4789259,16.9987037 14.4823333,16.9987037 C14.4891481,16.9987037 14.495963,16.9952963 14.5023519,16.9952963 C15.1080185,16.9254444 15.6821667,16.8389815 16.2145741,16.7393148 C16.324463,16.7192963 16.4322222,16.6992778 16.5387037,16.6775556 C16.5638333,16.6724444 16.5872593,16.6677593 16.6102593,16.6626481 C17.6171481,16.4565 18.4873148,16.1885926 19.0861667,15.8572222 C19.1176852,15.8384815 19.1492037,15.8205926 19.1794444,15.8027037 C19.2177778,15.7809815 19.2539815,15.7575556 19.2893333,15.7341296 C19.3225556,15.7128333 19.3591852,15.6928148 19.389,15.6710926 C20.0628148,15.910463 20.2472407,16.1251296 20.268963,16.2115926 Z M19.2527037,19.2582407 L19.2527037,17.6277963 C19.6569074,17.4863889 20.0010556,17.3296481 20.2740741,17.1584259 L20.2740741,18.5678148 C20.2740741,18.7607593 19.9145926,19.0103519 19.2527037,19.2582407 Z M3.23703704,18.5695185 L3.23703704,17.1584259 C3.51005556,17.3296481 3.8542037,17.4863889 4.25840741,17.6277963 L4.25840741,19.2582407 C3.59651852,19.0103519 3.23703704,18.7607593 3.23703704,18.5695185 Z M2.21566667,14.8209444 L2.21566667,13.4098519 C2.48655556,13.5815 2.83112963,13.7378148 3.23703704,13.8792222 L3.23703704,15.5028519 L3.04238889,15.4283148 L3.03898148,15.4312963 C2.50316667,15.2102407 2.21566667,14.9921667 2.21566667,14.8209444 Z M3.86612963,11.6997593 C3.87081481,11.7044444 3.87762963,11.7095556 3.88444444,11.7146667 C4.34998148,12.1853148 5.31512963,12.5562963 6.51794444,12.8327222 C6.54648148,12.8378333 6.57459259,12.8442222 6.6027037,12.851037 C6.69087037,12.8710556 6.78074074,12.8910741 6.87231481,12.9093889 C7.97546296,13.1436481 9.29498148,13.3135926 10.7307778,13.3983519 C10.7324815,13.3983519 10.7324815,13.3983519 10.7324815,13.3983519 C10.7341852,13.3983519 10.7341852,13.3983519 10.7341852,13.3983519 C11.1967407,13.4247593 11.6673889,13.4426481 12.149963,13.4515926 C12.3629259,13.4567037 12.5724815,13.4601111 12.7769259,13.4601111 C13.0133148,13.4601111 13.2543889,13.4567037 13.4992963,13.4498889 C13.9452407,13.4417963 14.3843704,13.4234815 14.8166852,13.3983519 C14.8183889,13.3983519 14.8200926,13.3983519 14.8217963,13.3983519 C14.8252037,13.3983519 14.8269074,13.3966481 14.8303148,13.3966481 C16.2712222,13.3118889 17.6218333,13.1406667 18.7650185,12.8940556 C18.5171296,13.0222593 18.1776667,13.1572778 17.7568519,13.2867593 C16.4841852,13.6811667 14.4508148,14.0389444 11.8688519,14.122 C11.7921852,14.1237037 11.7155185,14.1271111 11.6375741,14.1288148 C11.5540926,14.1305185 11.4693333,14.1322222 11.3845741,14.1339259 C11.1699074,14.1369074 10.9552407,14.1403148 10.7341852,14.1403148 C10.4377407,14.1403148 10.1515185,14.1369074 9.87040741,14.1305185 C9.76562963,14.1271111 9.66425926,14.1237037 9.56118519,14.1202963 C9.43638889,14.1168889 9.315,14.1122037 9.19318519,14.1070926 C6.80246296,14.0006111 4.91561111,13.6594444 3.70938889,13.2867593 C2.77277778,12.9975556 2.24888889,12.6896111 2.21864815,12.4583333 C2.25698148,12.3301296 2.60155556,12.0089815 3.86612963,11.6997593 Z M2.21566667,6.98433333 L2.21566667,5.57366667 C2.48655556,5.74488889 2.83112963,5.9012037 3.23703704,6.04133333 L3.23703704,7.67348148 C2.57472222,7.42559259 2.21566667,7.176 2.21566667,6.98433333 Z M10.7341852,3.23788889 C16.3525741,3.23788889 19.1943519,4.12125926 19.2475926,4.62853704 C19.2058519,4.85981481 18.681963,5.16435185 17.7568519,5.45057407 C16.5506296,5.82325926 14.6637778,6.16442593 12.2747593,6.2692037 C12.1516667,6.27388889 12.0302778,6.279 11.9054815,6.28411111 C11.8019815,6.28751852 11.7006111,6.29092593 11.597537,6.2922037 C11.3147222,6.29901852 11.0285,6.30412963 10.7341852,6.30412963 C10.4377407,6.30412963 10.1515185,6.29901852 9.87040741,6.2922037 C9.76562963,6.29092593 9.66425926,6.28751852 9.56118519,6.28411111 C9.43638889,6.279 9.315,6.27388889 9.19318519,6.2692037 C6.80246296,6.16442593 4.91561111,5.82325926 3.70938889,5.45057407 C2.7847037,5.16435185 2.26038889,4.85981481 2.22035185,4.62853704 C2.27359259,4.12125926 5.11537037,3.23788889 10.7341852,3.23788889 Z M21.292463,8.71146296 C21.2605185,8.94274074 20.7366296,9.25068519 19.8017222,9.53988889 C18.5955,9.9112963 16.7086481,10.252037 14.3179259,10.3585185 C14.1961111,10.3636296 14.0730185,10.3687407 13.9499259,10.3734259 C13.8468519,10.3768333 13.7454815,10.378537 13.6407037,10.3819444 C13.3595926,10.3887593 13.0733704,10.3917407 12.7769259,10.3917407 C12.4826111,10.3917407 12.1963889,10.3887593 11.9135741,10.3819444 C11.8105,10.378537 11.7091296,10.3751296 11.6056296,10.3721481 C11.4808333,10.3687407 11.3594444,10.3636296 11.2363519,10.3585185 C8.84733333,10.252037 6.96048148,9.9112963 5.75425926,9.53861111 C4.82574074,9.25238889 4.30355556,8.94614815 4.26351852,8.71657407 C4.26522222,8.70975926 4.26522222,8.70464815 4.27033333,8.69655556 C4.29333333,8.70166667 4.31846296,8.70635185 4.34188889,8.71316667 C4.47477778,8.74468519 4.61277778,8.77492593 4.7512037,8.80474074 C5.42842593,8.94955556 6.17848148,9.06924074 6.97709259,9.16081481 C6.9805,9.16081481 6.9822037,9.16251852 6.98561111,9.16251852 L6.98731481,9.16251852 C7.53122222,9.22385185 8.09685185,9.27240741 8.67611111,9.30733333 C8.6807963,9.30733333 8.6842037,9.31031481 8.68931481,9.31031481 C8.69101852,9.31031481 8.69272222,9.30861111 8.6957037,9.30861111 C9.11353704,9.33203704 9.53605556,9.35035185 9.96368519,9.36057407 C10.2247778,9.36696296 10.4828889,9.37037037 10.7341852,9.37037037 C10.9122222,9.37037037 11.0949444,9.36866667 11.2815,9.36525926 C13.7569815,9.32692593 16.0514444,9.03261111 17.646963,8.57687037 C17.7219259,8.55514815 17.7934815,8.53342593 17.8633333,8.5117037 C17.9063519,8.4985 17.9515,8.487 17.9932407,8.4737963 C18.1163333,8.43375926 18.2343148,8.39201852 18.3488889,8.35027778 C18.3689074,8.34388889 18.3872222,8.33537037 18.4072407,8.32898148 C18.5039259,8.29235185 18.5967778,8.25401852 18.6853704,8.21568519 C18.7100741,8.20418519 18.7369074,8.19225926 18.7616111,8.18246296 C18.8565926,8.13901852 18.9481667,8.096 19.0329259,8.05085185 C19.0695556,8.03083333 19.1027778,8.00953704 19.1394074,7.98951852 C19.1794444,7.96609259 19.2207593,7.94138889 19.2590926,7.91796296 C19.2808148,7.90475926 19.3059444,7.89112963 19.325537,7.87792593 C20.8512037,8.20759259 21.2541296,8.57005556 21.292463,8.71146296 Z M19.4439444,12.0272963 C19.274,12.0741481 19.0942593,12.1188704 18.911537,12.1623148 C18.8267778,12.1823333 18.7398889,12.2002222 18.6517222,12.2202407 C18.6253148,12.2253519 18.5967778,12.2321667 18.5703704,12.2368519 L18.5703704,10.5748889 C18.9332593,10.5033333 19.274,10.4253889 19.5934444,10.3385 L19.5934444,11.9859815 C19.5436111,11.9991852 19.4937778,12.0123889 19.4439444,12.0272963 Z M15.5505556,12.6661852 C15.4223519,12.6764074 15.2911667,12.6827963 15.162963,12.6930185 L15.162963,10.9957037 C15.5088148,10.9727037 15.8499815,10.9458704 16.1843333,10.9126481 L16.1843333,12.6031481 C15.9867037,12.6248704 15.7903519,12.644037 15.5854815,12.6627778 C15.5739815,12.6627778 15.5624815,12.6644815 15.5505556,12.6661852 Z M17.8565185,12.3752778 C17.7070185,12.3999815 17.5570926,12.4268148 17.4024815,12.4498148 C17.3126111,12.4634444 17.221037,12.4766481 17.1311667,12.4898519 C17.0447037,12.5017778 16.9548333,12.5115741 16.8666667,12.5230741 L16.8666667,10.8393889 C17.2176296,10.7980741 17.5587963,10.7495185 17.8897407,10.6962778 L17.8897407,12.368463 C17.8782407,12.3701667 17.8684444,12.3735741 17.8565185,12.3752778 Z M13.4541481,11.0672593 C13.7970185,11.0608704 14.1398889,11.0506481 14.4806296,11.034037 L14.4806296,12.7343333 C14.0334074,12.7560556 13.5789444,12.7679815 13.1180926,12.7726667 L13.1180926,11.0723704 C13.2130741,11.0706667 13.3063519,11.0706667 13.3992037,11.068963 L13.4541481,11.0672593 Z M5.28190741,10.1306481 L5.28190741,11.7495926 C4.74609259,11.5434444 4.39981481,11.3317593 4.28864815,11.1439259 L4.26522222,11.1055926 C4.26351852,11.0940926 4.26011111,11.0838704 4.25840741,11.0723704 L4.25840741,9.6617037 C4.53142593,9.83292593 4.876,9.98924074 5.28190741,10.1306481 Z M6.98561111,10.5748889 L6.98561111,12.2355741 C6.60781481,12.1537963 6.26664815,12.0673333 5.96211111,11.9791667 L5.96211111,10.3385 C6.28155556,10.4253889 6.62272222,10.5033333 6.98561111,10.5748889 Z M8.05681481,12.4349074 C7.92222222,12.4131852 7.79572222,12.3901852 7.66581481,12.3667593 L7.66581481,10.6962778 C7.99718519,10.7495185 8.33835185,10.7980741 8.68931481,10.8393889 L8.68931481,12.5247778 C8.47975926,12.4983704 8.27659259,12.4681296 8.08024074,12.4383148 C8.07214815,12.4366111 8.06533333,12.4349074 8.05681481,12.4349074 Z M10.3082593,12.6896111 C10.2614074,12.6845 10.2166852,12.6810926 10.1698333,12.6781111 C9.95218519,12.6615 9.73922222,12.6431852 9.53094444,12.621463 C9.48622222,12.6180556 9.44107407,12.6129444 9.39805556,12.6082593 C9.38783333,12.6082593 9.37974074,12.6065556 9.36951852,12.6048519 L9.36951852,10.9126481 C9.706,10.9458704 10.0467407,10.9727037 10.3930185,10.9957037 L10.3930185,12.6947222 C10.3644815,12.6930185 10.3363704,12.6913148 10.3082593,12.6896111 Z M6.64444444,6.75007407 L6.64444444,8.43375926 C6.5762963,8.42524074 6.50644444,8.41885185 6.44,8.40862963 C6.39655556,8.40351852 6.35481481,8.39712963 6.3117963,8.39031481 C6.11544444,8.3622037 5.9225,8.33196296 5.73424074,8.30044444 C5.69590741,8.29405556 5.6597037,8.28724074 5.62307407,8.28042593 L5.62307407,6.60696296 C5.95231481,6.6602037 6.29348148,6.70833333 6.64444444,6.75007407 Z M7.32677778,8.51511111 L7.32677778,6.82461111 C7.66112963,6.85655556 8.0022963,6.88466667 8.34814815,6.90809259 L8.34814815,8.60327778 C8.0022963,8.57857407 7.65942593,8.55003704 7.32677778,8.51511111 Z M14.1415926,6.82461111 L14.1415926,8.51511111 C13.8119259,8.54833333 13.4707593,8.58027778 13.1180926,8.60498148 L13.1180926,6.90809259 C13.4643704,6.88466667 13.8051111,6.85655556 14.1415926,6.82461111 Z M16.5255,8.14583333 L16.5255,6.48557407 C16.8883889,6.41401852 17.2295556,6.33564815 17.549,6.25088889 L17.549,7.89283333 C17.2427593,7.981 16.8981852,8.06575926 16.5255,8.14583333 Z M14.8217963,8.43375926 L14.8217963,6.75007407 C15.1727593,6.70833333 15.5139259,6.6602037 15.8452963,6.60696296 L15.8452963,8.27744444 C15.5207407,8.33366667 15.1812778,8.38690741 14.8217963,8.43375926 Z M19.1743333,7.14916667 L19.164537,7.14746296 L19.0397407,7.24414815 C18.86,7.38385185 18.5835741,7.52525926 18.2292037,7.66325926 L18.2292037,6.04133333 C18.6351111,5.9012037 18.9796852,5.74488889 19.2527037,5.57366667 L19.2527037,6.98305556 C19.2527037,7.03459259 19.2241667,7.09081481 19.1743333,7.14916667 Z M11.4097037,6.97794444 C11.7521481,6.97112963 12.0950185,6.96133333 12.4378889,6.94642593 L12.4378889,8.64501852 C12.379537,8.64842593 12.3228889,8.65140741 12.264537,8.65481481 C12.2611296,8.65481481 12.2564444,8.65481481 12.2513333,8.65651852 C12.0217593,8.66674074 11.7887778,8.67312963 11.5523889,8.67824074 C11.5161852,8.67994444 11.4795556,8.67994444 11.4429259,8.68164815 C11.3211111,8.68335185 11.1967407,8.68505556 11.0732222,8.68505556 L11.0732222,6.98305556 C11.1682037,6.98305556 11.2614815,6.98135185 11.3547593,6.97964815 L11.4097037,6.97794444 Z M10.1119074,6.97964815 C10.2047593,6.98135185 10.298037,6.98305556 10.3930185,6.98305556 L10.3930185,8.68505556 C9.93387037,8.67994444 9.4777037,8.66844444 9.03048148,8.64672222 L9.03048148,6.94642593 C9.37122222,6.96133333 9.71409259,6.97283333 10.056963,6.97964815 C10.0752778,6.97964815 10.0935926,6.97964815 10.1119074,6.97964815 Z M3.91937037,7.89624074 L3.91937037,6.25088889 C4.23711111,6.33564815 4.57955556,6.41401852 4.94074074,6.48557407 L4.94074074,8.14924074 C4.899,8.13901852 4.85598148,8.13092593 4.81424074,8.12240741 C4.6327963,8.0827963 4.45646296,8.04105556 4.28694444,7.99590741 C4.15874074,7.96438889 4.03564815,7.92946296 3.91937037,7.89624074 Z M11.8671481,12.7662778 C11.6107407,12.759463 11.3594444,12.7496667 11.1132593,12.7377407 C11.1000556,12.736037 11.0868519,12.736037 11.0732222,12.736037 L11.0732222,11.034037 C11.4160926,11.0506481 11.758963,11.0608704 12.1014074,11.0672593 C12.1197222,11.0672593 12.138037,11.0672593 12.1546481,11.068963 C12.2496296,11.0706667 12.3429074,11.0706667 12.4361852,11.0723704 L12.4361852,12.7743704 C12.2713519,12.7726667 12.1031111,12.770963 11.9416852,12.7679815 C11.9169815,12.7662778 11.8918519,12.7662778 11.8671481,12.7662778 Z M16.5255,14.3217593 C16.8883889,14.2519074 17.2295556,14.1718333 17.549,14.0870741 L17.549,15.7324259 C17.244463,15.8205926 16.9032963,15.9057778 16.5255,15.9854259 L16.5255,14.3217593 Z M14.8217963,16.2733519 L14.8217963,14.587963 C15.1727593,14.5462222 15.5139259,14.4980926 15.8452963,14.4431481 L15.8452963,16.117037 C15.5241481,16.1736852 15.1829815,16.2269259 14.8217963,16.2733519 Z M13.345963,16.4262593 C13.2714259,16.4313704 13.1947593,16.4381852 13.1180926,16.4428704 L13.1180926,14.7442778 C13.4643704,14.7204259 13.8051111,14.6944444 14.1415926,14.6612222 L14.1415926,16.353 C13.9299074,16.3747222 13.7156667,16.3964444 13.4941852,16.4147593 C13.4443519,16.4181667 13.3945185,16.4232778 13.345963,16.4262593 Z M6.64444444,14.587963 L6.64444444,16.2733519 C6.28496296,16.2252222 5.9437963,16.1736852 5.62307407,16.117037 L5.62307407,14.4431481 C5.95231481,14.4980926 6.29348148,14.5462222 6.64444444,14.587963 Z M7.50311111,16.3713148 C7.46818519,16.3683333 7.43325926,16.3649259 7.39961111,16.3615185 C7.37490741,16.3581111 7.34977778,16.3564074 7.32677778,16.353 L7.32677778,14.6612222 C7.66112963,14.6944444 8.0022963,14.7204259 8.34814815,14.7442778 L8.34814815,16.4428704 C8.06192593,16.4215741 7.77911111,16.3981481 7.50311111,16.3713148 Z M8.34814815,18.4097963 C8.6842037,18.4413148 9.02537037,18.4694259 9.36951852,18.4928519 L9.36951852,20.1914444 C9.01685185,20.1667407 8.67611111,20.1365 8.34814815,20.1015741 L8.34814815,18.4097963 Z M6.64444444,18.1917222 C6.97368519,18.2466667 7.31485185,18.2947963 7.66581481,18.336537 L7.66581481,20.0219259 C7.30675926,19.9733704 6.96559259,19.9218333 6.64444444,19.8656111 L6.64444444,18.1917222 Z M5.96211111,18.0703333 L5.96211111,19.734 C5.58644444,19.6539259 5.24357407,19.5691667 4.94074074,19.481 L4.94074074,17.8356481 C5.25848148,17.9204074 5.60135185,18.0004815 5.96211111,18.0703333 Z M17.549,18.0703333 C17.9097593,17.9987778 18.2526296,17.9204074 18.5703704,17.8356481 L18.5703704,19.481 C18.267537,19.5691667 17.9246667,19.6539259 17.549,19.734 L17.549,18.0703333 Z M15.8452963,18.336537 C16.1962593,18.2930926 16.5374259,18.244963 16.8666667,18.1917222 L16.8666667,19.8656111 C16.5455185,19.9218333 16.2043519,19.9733704 15.8452963,20.0219259 L15.8452963,18.336537 Z M15.162963,18.4097963 L15.162963,20.1015741 C14.835,20.1365 14.4942593,20.1667407 14.1415926,20.1914444 L14.1415926,18.4911481 C14.4857407,18.4694259 14.8269074,18.4413148 15.162963,18.4097963 Z M12.4310741,18.5644074 C12.7752222,18.5575926 13.1180926,18.5460926 13.4592593,18.5311852 L13.4592593,20.2314815 C13.0218333,20.2532037 12.5673704,20.2681111 12.0967222,20.2715185 L12.0967222,18.5678148 C12.19,18.5678148 12.2828519,18.5661111 12.3778333,18.5644074 C12.3961481,18.5644074 12.4127593,18.5644074 12.4310741,18.5644074 Z M11.1332778,18.5644074 C11.2282593,18.5661111 11.3211111,18.5678148 11.4143889,18.5695185 L11.4143889,20.2715185 C10.9437407,20.2681111 10.4892778,20.2549074 10.0518519,20.2331852 L10.0518519,18.5311852 C10.3930185,18.5477963 10.735463,18.5575926 11.080037,18.5644074 C11.0983519,18.5644074 11.114963,18.5644074 11.1332778,18.5644074 Z M3.95088889,15.7426481 C3.94066667,15.7392407 3.92916667,15.7358333 3.91937037,15.7324259 L3.91937037,14.0870741 C4.23711111,14.173537 4.57955556,14.2519074 4.94074074,14.323463 L4.94074074,15.9854259 C4.62811111,15.9189815 4.34018519,15.8491296 4.07738889,15.7775741 C4.03564815,15.7660741 3.9922037,15.7541481 3.95088889,15.7426481 Z M10.1067963,16.519537 C9.95048148,16.5161296 9.79416667,16.5127222 9.64083333,16.508037 L9.58248148,16.5063333 C9.39805556,16.4995185 9.2132037,16.4931296 9.03048148,16.4829074 L9.03048148,14.7826111 C9.37122222,14.7992222 9.71409259,14.8090185 10.056963,14.8158333 C10.0752778,14.8158333 10.0935926,14.8158333 10.1119074,14.8158333 C10.2047593,14.817537 10.298037,14.8192407 10.3930185,14.8209444 L10.3930185,16.5229444 C10.3265741,16.5229444 10.2597037,16.5229444 10.194963,16.5212407 C10.1651481,16.5212407 10.1349074,16.519537 10.1067963,16.519537 Z M11.5941296,16.5144259 C11.5442963,16.5161296 11.494463,16.5161296 11.4446296,16.5178333 C11.3228148,16.5212407 11.1980185,16.5212407 11.0749259,16.5229444 L11.0749259,14.8209444 C11.1682037,14.8192407 11.2614815,14.817537 11.356037,14.8158333 L11.4097037,14.8141296 C11.7521481,14.8090185 12.0967222,14.7975185 12.4378889,14.7826111 L12.4378889,16.4829074 C12.3646296,16.4880185 12.2913704,16.4914259 12.2181111,16.4948333 C12.011963,16.5029259 11.8053889,16.5097407 11.5941296,16.5144259 Z M19.2143704,14.932537 L19.0993704,15.0339074 C18.9196296,15.1919259 18.6219074,15.3499444 18.2292037,15.5028519 L18.2292037,13.8792222 C18.6351111,13.7378148 18.9796852,13.5815 19.2527037,13.4098519 L19.2527037,14.8209444 C19.2527037,14.8558704 19.2390741,14.8925 19.2143704,14.932537 Z M21.9743704,8.68803704 C21.9394444,8.1057963 21.2473148,7.65005556 19.8596481,7.3025 C19.9065,7.2007037 19.9329074,7.09422222 19.9329074,6.98433333 L19.9329074,4.60042593 L19.9277963,4.60042593 C19.8047037,2.61390741 11.6673889,2.55555556 10.7341852,2.55555556 C9.79885185,2.55555556 1.66153704,2.61390741 1.53844444,4.60042593 L1.53333333,4.60042593 L1.53333333,6.98433333 C1.53503704,7.63174074 2.37027778,8.13901852 3.61312963,8.51681481 C3.59651852,8.57346296 3.5862963,8.63011111 3.58288889,8.68803704 L3.5782037,8.68803704 L3.5782037,11.068963 C2.23866667,11.4152407 1.56996296,11.8641667 1.53674074,12.4366111 L1.53333333,12.4366111 L1.53333333,14.8226481 C1.53503704,15.2732778 1.94094444,15.6544815 2.60666667,15.9739259 C2.58153704,16.0420741 2.56492593,16.1136296 2.55981481,16.1851852 L2.5547037,16.1851852 L2.5547037,18.5712222 C2.55811111,19.7041852 5.11025926,20.4078148 7.94564815,20.7357778 C7.96566667,20.740463 7.98525926,20.7489815 8.00698148,20.7489815 C8.0137963,20.7489815 8.01890741,20.7455741 8.0252963,20.7438704 C8.57261111,20.8056296 9.12844444,20.8537593 9.67746296,20.8886852 C9.68896296,20.8903889 9.69918519,20.8955 9.71068519,20.8955 C9.7175,20.8955 9.72261111,20.8920926 9.729,20.8920926 C10.4262407,20.9334074 11.1132593,20.9551296 11.7555556,20.9551296 C12.3978519,20.9551296 13.0848704,20.9334074 13.7821111,20.8920926 C13.7885,20.8920926 13.7936111,20.8955 13.8004259,20.8955 C13.8119259,20.8955 13.8221481,20.8886852 13.8336481,20.8886852 C14.3826667,20.8537593 14.9385,20.8056296 15.4858148,20.7438704 C15.4922037,20.7438704 15.4973148,20.7472778 15.5041296,20.7472778 C15.5258519,20.7472778 15.5454444,20.7387593 15.565463,20.7357778 C18.4008519,20.4061111 20.953,19.7024815 20.9564074,18.5695185 L20.9564074,16.1851852 L20.9495926,16.1851852 C20.9261667,15.7673519 20.5700926,15.4180926 19.866463,15.1271852 C19.9099074,15.0287963 19.9329074,14.9274259 19.9329074,14.8209444 L19.9329074,12.5929259 C21.1557407,12.2172593 21.9760741,11.7146667 21.9777778,11.0723704 L21.9777778,8.68803704 L21.9743704,8.68803704 L21.9743704,8.68803704 Z" id="coins"></path>
                        </g>
                    </g>
                </g>
            </g>
        </g>
    </g>
</svg>